<svg width="61" height="65" viewBox="0 0 61 65" fill="none" xmlns="http://www.w3.org/2000/svg">
<g opacity="0.1">
<path d="M15.7688 41.728L15.5958 41.5671L15.6659 41.4918H15.7688V41.728ZM22.9256 41.728L23.096 41.8916L23.0263 41.9643H22.9256V41.728ZM34.9551 29.1913H35.1913V29.2863L35.1256 29.3549L34.9551 29.1913ZM34.9551 27.3976C34.2592 27.3976 33.695 26.8334 33.695 26.1375C33.695 25.4416 34.2592 24.8774 34.9551 24.8774C35.651 24.8774 36.2151 25.4416 36.2151 26.1375C36.2151 26.8334 35.651 27.3976 34.9551 27.3976ZM3.18559 54.9074L15.5958 41.5671L15.9418 41.8889L3.53156 55.2293L3.18559 54.9074ZM15.7688 41.4918H22.9256V41.9643H15.7688V41.4918ZM22.7551 41.5644L34.7846 29.0277L35.1256 29.3549L23.096 41.8916L22.7551 41.5644ZM34.7188 29.1913V26.1375H35.1913V29.1913H34.7188Z" fill="url(#paint0_linear_2828_2310)"/>
<path d="M24.9822 46.6301L24.8107 46.4677L24.8806 46.3939H24.9822V46.6301ZM28.789 46.6301L28.9575 46.7958L28.888 46.8664H28.789V46.6301ZM32.9004 43.7113C32.2045 43.7113 31.6403 43.1472 31.6403 42.4512C31.6403 41.7553 32.2045 41.1912 32.9004 41.1912C33.5963 41.1912 34.1605 41.7553 34.1605 42.4512C34.1605 43.1472 33.5963 43.7113 32.9004 43.7113ZM21.2323 50.2447L24.8107 46.4677L25.1537 46.7926L21.5753 50.5697L21.2323 50.2447ZM24.9822 46.3939H28.789V46.8664H24.9822V46.3939ZM28.6206 46.4644L32.732 42.2855L33.0688 42.6169L28.9575 46.7958L28.6206 46.4644Z" fill="url(#paint1_linear_2828_2310)"/>
<path d="M5.7203 56.5143H5.48404V56.4222L5.54636 56.3544L5.7203 56.5143ZM13.1816 49.6577C12.4857 49.6577 11.9216 49.0935 11.9216 48.3976C11.9216 47.7017 12.4857 47.1375 13.1816 47.1375C13.8776 47.1375 14.4417 47.7017 14.4417 48.3976C14.4417 49.0935 13.8776 49.6577 13.1816 49.6577ZM5.48404 63.3452V56.5143H5.95656V63.3452H5.48404ZM5.54636 56.3544L13.0077 48.2377L13.3556 48.5575L5.89424 56.6742L5.54636 56.3544Z" fill="url(#paint2_linear_2828_2310)"/>
<path d="M9.45005 55.2291H9.21379V55.1345L9.27913 55.066L9.45005 55.2291ZM20.033 44.1389L19.8621 43.9758L19.9319 43.9027H20.033V44.1389ZM27.875 45.399C27.1791 45.399 26.6149 44.8349 26.6149 44.1389C26.6149 43.443 27.1791 42.8789 27.875 42.8789C28.5709 42.8789 29.1351 43.443 29.1351 44.1389C29.1351 44.8349 28.5709 45.399 27.875 45.399ZM9.21379 59.3276V55.2291H9.68632V59.3276H9.21379ZM9.27913 55.066L19.8621 43.9758L20.2039 44.302L9.62098 55.3922L9.27913 55.066ZM20.033 43.9027H27.875V44.3752H20.033V43.9027Z" fill="url(#paint3_linear_2828_2310)"/>
<path d="M17.2924 58.0415L17.1203 57.8795L17.1903 57.8052H17.2924V58.0415ZM19.5003 58.0415L19.6777 58.1975L19.6071 58.2777H19.5003V58.0415ZM21.4799 55.7913L21.3025 55.6352L21.373 55.555H21.4799V55.7913ZM25.2867 55.7913L25.4582 55.9538L25.3883 56.0275H25.2867V55.7913ZM28.4844 53.6761C27.7885 53.6761 27.2243 53.1119 27.2243 52.416C27.2243 51.7201 27.7885 51.1559 28.4844 51.1559C29.1803 51.1559 29.7444 51.7201 29.7444 52.416C29.7444 53.1119 29.1803 53.6761 28.4844 53.6761ZM4.93857 70.818L17.1203 57.8795L17.4644 58.2034L5.2826 71.1419L4.93857 70.818ZM17.2924 57.8052H19.5003V58.2777H17.2924V57.8052ZM19.3229 57.8854L21.3025 55.6352L21.6572 55.9473L19.6777 58.1975L19.3229 57.8854ZM21.4799 55.555H25.2867V56.0275H21.4799V55.555ZM25.1151 55.6288L28.3129 52.2535L28.6559 52.5785L25.4582 55.9538L25.1151 55.6288Z" fill="url(#paint4_linear_2828_2310)"/>
<path d="M25.2693 58.0464L25.4408 58.2089L25.3709 58.2826H25.2693V58.0464ZM37.2988 46.609C36.6029 46.609 36.0388 46.0449 36.0388 45.349C36.0388 44.653 36.6029 44.0889 37.2988 44.0889C37.9947 44.0889 38.5589 44.653 38.5589 45.349C38.5589 46.0449 37.9947 46.609 37.2988 46.609ZM19.6352 57.8101H25.2693V58.2826H19.6352V57.8101ZM25.0978 57.8839L37.1273 45.1865L37.4703 45.5114L25.4408 58.2089L25.0978 57.8839Z" fill="url(#paint5_linear_2828_2310)"/>
<path d="M18.5844 64.6315L18.4138 64.4681L18.4835 64.3953H18.5844V64.6315ZM28.8628 64.6315L29.034 64.7944L28.9641 64.8678H28.8628V64.6315ZM48.582 45.1578C47.8861 45.1578 47.322 44.5937 47.322 43.8978C47.322 43.2018 47.8861 42.6377 48.582 42.6377C49.2779 42.6377 49.8421 43.2018 49.8421 43.8978C49.8421 44.5937 49.2779 45.1578 48.582 45.1578ZM4.63314 78.8532L18.4138 64.4681L18.755 64.795L4.97436 79.18L4.63314 78.8532ZM18.5844 64.3953H28.8628V64.8678H18.5844V64.3953ZM28.6916 64.4687L38.5512 54.1018L38.8936 54.4275L29.034 64.7944L28.6916 64.4687ZM38.5512 54.1018L48.4108 43.7349L48.7532 44.0606L38.8936 54.4275L38.5512 54.1018Z" fill="url(#paint6_linear_2828_2310)"/>
<path d="M38.6854 57.479L38.8569 57.6415L38.787 57.7153H38.6854V57.479ZM46.6035 50.3813C45.9076 50.3813 45.3434 49.8171 45.3434 49.1212C45.3434 48.4253 45.9076 47.8611 46.6035 47.8611C47.2994 47.8611 47.8636 48.4253 47.8636 49.1212C47.8636 49.8171 47.2994 50.3813 46.6035 50.3813ZM35.7922 57.2427H38.6854V57.7153H35.7922V57.2427ZM38.5138 57.3165L46.432 48.9587L46.775 49.2837L38.8569 57.6415L38.5138 57.3165Z" fill="url(#paint7_linear_2828_2310)"/>
<path d="M11.0479 72.5068V69.2923L18.9661 60.9345H29.0161L30.8628 59.0058M36.249 53.3803L30.8628 59.0058M30.8628 59.0058V55.068L42.416 43.0938V39.0756" stroke="url(#paint8_linear_2828_2310)" stroke-width="0.472526"/>
<path d="M12.192 65.8365H11.9557V65.7414L12.0216 65.6728L12.192 65.8365ZM17.5215 61.5515C16.8256 61.5515 16.2614 60.9874 16.2614 60.2915C16.2614 59.5955 16.8256 59.0314 17.5215 59.0314C18.2174 59.0314 18.7816 59.5955 18.7816 60.2915C18.7816 60.9874 18.2174 61.5515 17.5215 61.5515ZM11.9557 68.0063V65.8365H12.4282V68.0063H11.9557ZM12.0216 65.6728L17.3511 60.1277L17.6918 60.4552L12.3623 66.0003L12.0216 65.6728Z" fill="url(#paint9_linear_2828_2310)"/>
<path d="M19.6521 68.5685H19.4159V68.4744L19.4806 68.406L19.6521 68.5685ZM19.6521 73.3646C18.9562 73.3646 18.3921 72.8004 18.3921 72.1045C18.3921 71.4086 18.9562 70.8444 19.6521 70.8444C20.3481 70.8444 20.9122 71.4086 20.9122 72.1045C20.9122 72.8004 20.3481 73.3646 19.6521 73.3646ZM23.5543 64.7932L19.8237 68.731L19.4806 68.406L23.2113 64.4682L23.5543 64.7932ZM19.8884 68.5685V72.1045H19.4159V68.5685H19.8884Z" fill="url(#paint10_linear_2828_2310)"/>
<path d="M26.9618 71.9443H26.7256V71.8502L26.7903 71.7819L26.9618 71.9443ZM37.1641 62.4357C36.4681 62.4357 35.904 61.8716 35.904 61.1756C35.904 60.4797 36.4681 59.9156 37.1641 59.9156C37.86 59.9156 38.4241 60.4797 38.4241 61.1756C38.4241 61.8716 37.86 62.4357 37.1641 62.4357ZM26.7256 76.2036V71.9443H27.1981V76.2036H26.7256ZM26.7903 71.7819L36.9925 61.0132L37.3356 61.3381L27.1333 72.1068L26.7903 71.7819Z" fill="url(#paint11_linear_2828_2310)"/>
<path d="M30.3107 66.0779H30.0744V65.9837L30.1392 65.9154L30.3107 66.0779ZM34.8027 62.5965C34.1068 62.5965 33.5427 62.0323 33.5427 61.3364C33.5427 60.6405 34.1068 60.0763 34.8027 60.0763C35.4987 60.0763 36.0628 60.6405 36.0628 61.3364C36.0628 62.0323 35.4987 62.5965 34.8027 62.5965ZM30.0744 68.4888V66.0779H30.547V68.4888H30.0744ZM30.1392 65.9154L34.6312 61.1739L34.9742 61.4989L30.4822 66.2404L30.1392 65.9154Z" fill="url(#paint12_linear_2828_2310)"/>
<path d="M34.1193 76.1231H34.3555V76.219L34.2887 76.2878L34.1193 76.1231ZM34.1193 72.2657H33.883V72.1707L33.9487 72.1022L34.1193 72.2657ZM46.9102 58.9254H47.1464V59.0203L47.0807 59.0889L46.9102 58.9254ZM46.9102 57.5334C46.2142 57.5334 45.6501 56.9693 45.6501 56.2734C45.6501 55.5774 46.2142 55.0133 46.9102 55.0133C47.6061 55.0133 48.1702 55.5774 48.1702 56.2734C48.1702 56.9693 47.6061 57.5334 46.9102 57.5334ZM30.9044 79.0927L33.9498 75.9585L34.2887 76.2878L31.2433 79.422L30.9044 79.0927ZM33.883 76.1231V72.2657H34.3555V76.1231H33.883ZM33.9487 72.1022L46.7396 58.7618L47.0807 59.0889L34.2898 72.4292L33.9487 72.1022ZM46.6739 58.9254V56.2734H47.1464V58.9254H46.6739Z" fill="url(#paint13_linear_2828_2310)"/>
<path d="M42.6444 69.292L42.8148 69.4556L42.7451 69.5283H42.6444V69.292ZM54.6739 56.7553L54.5034 56.5917L54.5731 56.519H54.6739V56.7553ZM58.9375 58.0154C58.2416 58.0154 57.6774 57.4512 57.6774 56.7553C57.6774 56.0594 58.2416 55.4952 58.9375 55.4952C59.6334 55.4952 60.1976 56.0594 60.1976 56.7553C60.1976 57.4512 59.6334 58.0154 58.9375 58.0154ZM37.1626 69.0557H42.6444V69.5283H37.1626V69.0557ZM42.4739 69.1284L54.5034 56.5917L54.8444 56.9189L42.8148 69.4556L42.4739 69.1284ZM54.6739 56.519H58.9375V56.9915H54.6739V56.519Z" fill="url(#paint14_linear_2828_2310)"/>
<path d="M31.2999 38.0312L31.4765 38.1881L31.4061 38.2675H31.2999V38.0312ZM33.584 36.7197C32.8881 36.7197 32.3239 36.1555 32.3239 35.4596C32.3239 34.7637 32.8881 34.1995 33.584 34.1995C34.2799 34.1995 34.8441 34.7637 34.8441 35.4596C34.8441 36.1555 34.2799 36.7197 33.584 36.7197ZM26.5795 37.795H31.2999V38.2675H26.5795V37.795ZM31.1233 37.8744L33.4073 35.3027L33.7606 35.6165L31.4765 38.1881L31.1233 37.8744Z" fill="url(#paint15_linear_2828_2310)"/>
<path d="M24.5977 30.2902C23.9017 30.2902 23.3376 29.726 23.3376 29.0301C23.3376 28.3342 23.9017 27.7701 24.5977 27.7701C25.2936 27.7701 25.8577 28.3342 25.8577 29.0301C25.8577 29.726 25.2936 30.2902 24.5977 30.2902ZM3.18504 51.047L24.427 28.8667L24.7683 29.1935L3.52631 51.3739L3.18504 51.047Z" fill="url(#paint16_linear_2828_2310)"/>
<path d="M24.0665 23.4042L23.8954 23.2413L23.9652 23.1679H24.0665V23.4042ZM28.4062 24.6642C27.7103 24.6642 27.1462 24.1001 27.1462 23.4042C27.1462 22.7083 27.7103 22.1441 28.4062 22.1441C29.1022 22.1441 29.6663 22.7083 29.6663 23.4042C29.6663 24.1001 29.1022 24.6642 28.4062 24.6642ZM7.37381 40.5998L23.8954 23.2413L24.2376 23.5671L7.71609 40.9256L7.37381 40.5998ZM24.0665 23.1679H28.4062V23.6404H24.0665V23.1679Z" fill="url(#paint17_linear_2828_2310)"/>
<path d="M7.54441 40.6827H7.78068V40.7756L7.71733 40.8437L7.54441 40.6827ZM7.54441 30.798H7.30815V30.7041L7.37259 30.6358L7.54441 30.798ZM27.2637 9.90345H27.4999V9.99733L27.4355 10.0656L27.2637 9.90345ZM27.2637 2.80572C26.5678 2.80572 26.0036 2.24157 26.0036 1.54565C26.0036 0.849731 26.5678 0.28558 27.2637 0.28558C27.9596 0.28558 28.5237 0.849731 28.5237 1.54565C28.5237 2.24157 27.9596 2.80572 27.2637 2.80572ZM3.03174 45.1828L7.3715 40.5217L7.71733 40.8437L3.37757 45.5047L3.03174 45.1828ZM7.30815 40.6827V30.798H7.78068V40.6827H7.30815ZM7.37259 30.6358L27.0918 9.74129L27.4355 10.0656L7.71624 30.9601L7.37259 30.6358ZM27.0274 9.90345V1.54565H27.4999V9.90345H27.0274Z" fill="url(#paint18_linear_2828_2310)"/>
<path d="M4.95681 71.1407H5.19307V71.2348L5.12832 71.3032L4.95681 71.1407ZM4.95681 66.8011H4.72055V66.7061L4.78622 66.6376L4.95681 66.8011ZM18.4329 52.7375L18.2623 52.574L18.3321 52.5012H18.4329V52.7375ZM25.2852 53.9975C24.5892 53.9975 24.0251 53.4334 24.0251 52.7375C24.0251 52.0415 24.5892 51.4774 25.2852 51.4774C25.9811 51.4774 26.5452 52.0415 26.5452 52.7375C26.5452 53.4334 25.9811 53.9975 25.2852 53.9975ZM3.1103 72.7462L4.7853 70.9782L5.12832 71.3032L3.45333 73.0712L3.1103 72.7462ZM4.72055 71.1407V66.8011H5.19307V71.1407H4.72055ZM4.78622 66.6376L18.2623 52.574L18.6035 52.9009L5.1274 66.9645L4.78622 66.6376ZM18.4329 52.5012H25.2852V52.9737H18.4329V52.5012Z" fill="url(#paint19_linear_2828_2310)"/>
<path d="M3.28008 65.9971L17.8982 50.5673H28.7857L38.2266 40.8433" stroke="url(#paint20_linear_2828_2310)" stroke-width="0.472526"/>
<path d="M19.9566 78.9351L19.8143 78.7464L19.8775 78.6988H19.9566V78.9351ZM24.5247 78.9351L24.6956 79.0983L24.6258 79.1714H24.5247V78.9351ZM43.9395 59.8632C43.2435 59.8632 42.6794 59.299 42.6794 58.6031C42.6794 57.9072 43.2435 57.3431 43.9395 57.3431C44.6354 57.3431 45.1995 57.9072 45.1995 58.6031C45.1995 59.299 44.6354 59.8632 43.9395 59.8632ZM19.2814 79.1483L19.8143 78.7464L20.0988 79.1237L19.5659 79.5256L19.2814 79.1483ZM19.9566 78.6988H24.5247V79.1714H19.9566V78.6988ZM24.3539 78.7719L43.7686 58.44L44.1103 58.7663L24.6956 79.0983L24.3539 78.7719Z" fill="url(#paint21_linear_2828_2310)"/>
</g>
<g filter="url(#filter0_ddddd_2828_2310)">
<path d="M5.99556 62.7993V61.4953H3.4043" stroke="url(#paint22_linear_2828_2310)" stroke-width="0.330768"/>
<path d="M9.15087 62.2974V59.8899H3.17969" stroke="url(#paint23_linear_2828_2310)" stroke-width="0.330768"/>
<path d="M11.9662 62.2974V57.984H2.95313" stroke="url(#paint24_linear_2828_2310)" stroke-width="0.330768"/>
<path d="M15.3477 58.1846H15.1823V58.0192H15.3477V58.1846ZM18.3896 58.1846V58.0192H18.555V58.1846H18.3896ZM17.5075 61.4948C17.5075 61.0077 17.9024 60.6128 18.3896 60.6128C18.8767 60.6128 19.2716 61.0077 19.2716 61.4948C19.2716 61.982 18.8767 62.3769 18.3896 62.3769C17.9024 62.3769 17.5075 61.982 17.5075 61.4948ZM15.1823 62.0967V58.1846H15.513V62.0967H15.1823ZM15.3477 58.0192H18.3896V58.3499H15.3477V58.0192ZM18.555 58.1846V61.4948H18.2242V58.1846H18.555Z" fill="url(#paint25_linear_2828_2310)"/>
<path d="M21.3184 62.1973V57.7836" stroke="url(#paint26_linear_2828_2310)" stroke-width="0.330768"/>
<path d="M6.0171 55.5765C6.0171 55.0894 6.412 54.6945 6.89914 54.6945C7.38628 54.6945 7.78119 55.0894 7.78119 55.5765C7.78119 56.0637 7.38628 56.4586 6.89914 56.4586C6.412 56.4586 6.0171 56.0637 6.0171 55.5765ZM24.5874 55.5765V55.4111H24.7527V55.5765H24.5874ZM23.7053 62.2974C23.7053 61.8102 24.1002 61.4153 24.5874 61.4153C25.0745 61.4153 25.4694 61.8102 25.4694 62.2974C25.4694 62.7845 25.0745 63.1794 24.5874 63.1794C24.1002 63.1794 23.7053 62.7845 23.7053 62.2974ZM3.65115 55.5765C3.65115 55.0894 4.04606 54.6945 4.5332 54.6945C5.02034 54.6945 5.41525 55.0894 5.41525 55.5765C5.41525 56.0637 5.02034 56.4586 4.5332 56.4586C4.04606 56.4586 3.65115 56.0637 3.65115 55.5765ZM3.65115 47.351C3.65115 46.8639 4.04606 46.469 4.5332 46.469C5.02034 46.469 5.41525 46.8639 5.41525 47.351C5.41525 47.8382 5.02034 48.2331 4.5332 48.2331C4.04606 48.2331 3.65115 47.8382 3.65115 47.351ZM6.89914 55.4111H24.5874V55.7419H6.89914V55.4111ZM24.7527 55.5765V62.2974H24.422V55.5765H24.7527ZM4.36782 55.5765L4.36782 47.351H4.69859L4.69859 55.5765H4.36782Z" fill="url(#paint27_linear_2828_2310)"/>
<path d="M6.01639 52.5674C6.01639 52.0803 6.4113 51.6854 6.89844 51.6854C7.38558 51.6854 7.78049 52.0803 7.78049 52.5674C7.78049 53.0546 7.38558 53.4495 6.89844 53.4495C6.4113 53.4495 6.01639 53.0546 6.01639 52.5674ZM26.3893 52.5674V52.402H26.4482L26.4939 52.4393L26.3893 52.5674ZM27.7412 53.6708L27.8458 53.5427L27.9066 53.5923V53.6708H27.7412ZM26.8592 62.1973C26.8592 61.7101 27.2541 61.3152 27.7412 61.3152C28.2284 61.3152 28.6233 61.7101 28.6233 62.1973C28.6233 62.6844 28.2284 63.0793 27.7412 63.0793C27.2541 63.0793 26.8592 62.6844 26.8592 62.1973ZM6.89844 52.402H26.3893V52.7328H6.89844V52.402ZM26.4939 52.4393L27.8458 53.5427L27.6367 53.799L26.2847 52.6955L26.4939 52.4393ZM27.9066 53.6708V62.1973H27.5759V53.6708H27.9066Z" fill="url(#paint28_linear_2828_2310)"/>
<path d="M8.58683 45.5458V45.3804H8.64888L8.69561 45.4212L8.58683 45.5458ZM14.4454 50.6616V50.827H14.3833L14.3366 50.7862L14.4454 50.6616ZM16.9432 50.6616C16.9432 50.1745 17.3381 49.7796 17.8253 49.7796C18.3124 49.7796 18.7073 50.1745 18.7073 50.6616C18.7073 51.1488 18.3124 51.5437 17.8253 51.5437C17.3381 51.5437 16.9432 51.1488 16.9432 50.6616ZM3.4043 45.3804H8.58683V45.7111H3.4043L3.4043 45.3804ZM8.69561 45.4212L14.5541 50.537L14.3366 50.7862L8.47805 45.6703L8.69561 45.4212ZM14.4454 50.4962H17.8253V50.827H14.4454V50.4962Z" fill="url(#paint29_linear_2828_2310)"/>
<path d="M30.6682 54.3736L30.7814 54.253L30.8336 54.302V54.3736H30.6682ZM26.4997 50.4614V50.296H26.5651L26.6128 50.3408L26.4997 50.4614ZM22.3504 50.4614C22.3504 49.9743 22.7453 49.5794 23.2324 49.5794C23.7196 49.5794 24.1145 49.9743 24.1145 50.4614C24.1145 50.9486 23.7196 51.3435 23.2324 51.3435C22.7453 51.3435 22.3504 50.9486 22.3504 50.4614ZM30.5029 62.3984V54.3736H30.8336V62.3984H30.5029ZM30.5551 54.4942L26.3865 50.582L26.6128 50.3408L30.7814 54.253L30.5551 54.4942ZM26.4997 50.6268H23.2324V50.296H26.4997V50.6268Z" fill="url(#paint30_linear_2828_2310)"/>
<path d="M36.7534 61.7966L36.8634 61.6731L36.9188 61.7224V61.7966H36.7534ZM33.5988 58.9879L33.4889 59.1114L33.4334 59.0621V58.9879H33.5988ZM33.5988 54.6745L33.7108 54.5528L33.7642 54.6019V54.6745H33.5988ZM26.839 48.4552V48.2898H26.9035L26.951 48.3335L26.839 48.4552ZM22.239 48.4552C22.239 47.9681 22.634 47.5732 23.1211 47.5732C23.6082 47.5732 24.0031 47.9681 24.0031 48.4552C24.0031 48.9424 23.6082 49.3373 23.1211 49.3373C22.634 49.3373 22.239 48.9424 22.239 48.4552ZM36.588 62.3984V61.7966H36.9188V62.3984H36.588ZM36.6434 61.9201L33.4889 59.1114L33.7088 58.8643L36.8634 61.6731L36.6434 61.9201ZM33.4334 58.9879V54.6745H33.7642V58.9879H33.4334ZM33.4869 54.7962L26.727 48.5769L26.951 48.3335L33.7108 54.5528L33.4869 54.7962ZM26.839 48.6206H23.1211V48.2898H26.839V48.6206Z" fill="url(#paint31_linear_2828_2310)"/>
<path d="M17.7734 49.3479C17.2863 49.3479 16.8914 48.953 16.8914 48.4658C16.8914 47.9787 17.2863 47.5838 17.7734 47.5838C18.2606 47.5838 18.6555 47.9787 18.6555 48.4658C18.6555 48.953 18.2606 49.3479 17.7734 49.3479ZM14.7209 48.4658V48.6312H14.6568L14.6095 48.588L14.7209 48.4658ZM9.72181 43.9091V43.7437H9.78587L9.83322 43.7869L9.72181 43.9091ZM4.67848 43.9091V44.0745H4.5131V43.9091H4.67848ZM4.67848 23.5146H4.5131V23.4625L4.54299 23.4198L4.67848 23.5146ZM6.53655 21.7423C6.04941 21.7423 5.6545 21.3474 5.6545 20.8602C5.6545 20.3731 6.04941 19.9782 6.53655 19.9782C7.02369 19.9782 7.4186 20.3731 7.4186 20.8602C7.4186 21.3474 7.02369 21.7423 6.53655 21.7423ZM17.7734 48.6312H14.7209V48.3004H17.7734V48.6312ZM14.6095 48.588L9.6104 44.0314L9.83322 43.7869L14.8323 48.3436L14.6095 48.588ZM9.72181 44.0745H4.67848V43.7437H9.72181V44.0745ZM4.5131 43.9091L4.5131 23.5146H4.84386L4.84386 43.9091H4.5131ZM4.54299 23.4198L6.40106 20.7654L6.67204 20.9551L4.81397 23.6095L4.54299 23.4198Z" fill="url(#paint32_linear_2828_2310)"/>
</g>
<defs>
<filter id="filter0_ddddd_2828_2310" x="0.590496" y="17.6154" width="38.6901" height="47.9264" filterUnits="userSpaceOnUse" color-interpolation-filters="sRGB">
<feFlood flood-opacity="0" result="BackgroundImageFix"/>
<feColorMatrix in="SourceAlpha" type="matrix" values="0 0 0 0 0 0 0 0 0 0 0 0 0 0 0 0 0 0 127 0" result="hardAlpha"/>
<feOffset dy="0.18901"/>
<feGaussianBlur stdDeviation="0.0945051"/>
<feComposite in2="hardAlpha" operator="out"/>
<feColorMatrix type="matrix" values="0 0 0 0 0 0 0 0 0 0 0 0 0 0 0 0 0 0 0.25 0"/>
<feBlend mode="normal" in2="BackgroundImageFix" result="effect1_dropShadow_2828_2310"/>
<feColorMatrix in="SourceAlpha" type="matrix" values="0 0 0 0 0 0 0 0 0 0 0 0 0 0 0 0 0 0 127 0" result="hardAlpha"/>
<feOffset dy="0.18901"/>
<feGaussianBlur stdDeviation="0.0945051"/>
<feComposite in2="hardAlpha" operator="out"/>
<feColorMatrix type="matrix" values="0 0 0 0 0 0 0 0 0 0 0 0 0 0 0 0 0 0 0.25 0"/>
<feBlend mode="normal" in2="effect1_dropShadow_2828_2310" result="effect2_dropShadow_2828_2310"/>
<feColorMatrix in="SourceAlpha" type="matrix" values="0 0 0 0 0 0 0 0 0 0 0 0 0 0 0 0 0 0 127 0" result="hardAlpha"/>
<feOffset dy="0.18901"/>
<feGaussianBlur stdDeviation="0.0945051"/>
<feComposite in2="hardAlpha" operator="out"/>
<feColorMatrix type="matrix" values="0 0 0 0 0 0 0 0 0 0 0 0 0 0 0 0 0 0 0.25 0"/>
<feBlend mode="normal" in2="effect2_dropShadow_2828_2310" result="effect3_dropShadow_2828_2310"/>
<feColorMatrix in="SourceAlpha" type="matrix" values="0 0 0 0 0 0 0 0 0 0 0 0 0 0 0 0 0 0 127 0" result="hardAlpha"/>
<feOffset dy="0.18901"/>
<feGaussianBlur stdDeviation="0.0945051"/>
<feComposite in2="hardAlpha" operator="out"/>
<feColorMatrix type="matrix" values="0 0 0 0 0 0 0 0 0 0 0 0 0 0 0 0 0 0 0.25 0"/>
<feBlend mode="normal" in2="effect3_dropShadow_2828_2310" result="effect4_dropShadow_2828_2310"/>
<feColorMatrix in="SourceAlpha" type="matrix" values="0 0 0 0 0 0 0 0 0 0 0 0 0 0 0 0 0 0 127 0" result="hardAlpha"/>
<feOffset/>
<feGaussianBlur stdDeviation="1.18131"/>
<feComposite in2="hardAlpha" operator="out"/>
<feColorMatrix type="matrix" values="0 0 0 0 0.0196078 0 0 0 0 0.760784 0 0 0 0 0.988235 0 0 0 1 0"/>
<feBlend mode="normal" in2="effect4_dropShadow_2828_2310" result="effect5_dropShadow_2828_2310"/>
<feBlend mode="normal" in="SourceGraphic" in2="effect5_dropShadow_2828_2310" result="shape"/>
</filter>
<linearGradient id="paint0_linear_2828_2310" x1="34.9551" y1="40.6029" x2="3.35858" y2="40.6029" gradientUnits="userSpaceOnUse">
<stop offset="0.0239582" stop-color="#05C2FC"/>
<stop offset="0.919792" stop-color="#0DF8CF"/>
</linearGradient>
<linearGradient id="paint1_linear_2828_2310" x1="32.9004" y1="46.4292" x2="21.4038" y2="46.4292" gradientUnits="userSpaceOnUse">
<stop offset="0.0239582" stop-color="#05C2FC"/>
<stop offset="0.919792" stop-color="#0DF8CF"/>
</linearGradient>
<linearGradient id="paint2_linear_2828_2310" x1="13.1816" y1="55.8714" x2="5.7203" y2="55.8714" gradientUnits="userSpaceOnUse">
<stop offset="0.0239582" stop-color="#05C2FC"/>
<stop offset="0.919792" stop-color="#0DF8CF"/>
</linearGradient>
<linearGradient id="paint3_linear_2828_2310" x1="27.875" y1="51.7333" x2="9.45005" y2="51.7333" gradientUnits="userSpaceOnUse">
<stop offset="0.0239582" stop-color="#05C2FC"/>
<stop offset="0.919792" stop-color="#0DF8CF"/>
</linearGradient>
<linearGradient id="paint4_linear_2828_2310" x1="28.4844" y1="61.698" x2="5.11058" y2="61.698" gradientUnits="userSpaceOnUse">
<stop offset="0.0239582" stop-color="#05C2FC"/>
<stop offset="0.919792" stop-color="#0DF8CF"/>
</linearGradient>
<linearGradient id="paint5_linear_2828_2310" x1="37.2988" y1="51.6977" x2="19.6352" y2="51.6977" gradientUnits="userSpaceOnUse">
<stop offset="0.0239582" stop-color="#05C2FC"/>
<stop offset="0.919792" stop-color="#0DF8CF"/>
</linearGradient>
<linearGradient id="paint6_linear_2828_2310" x1="48.582" y1="61.4572" x2="4.80375" y2="61.4572" gradientUnits="userSpaceOnUse">
<stop offset="0.0239582" stop-color="#05C2FC"/>
<stop offset="0.919792" stop-color="#0DF8CF"/>
</linearGradient>
<linearGradient id="paint7_linear_2828_2310" x1="46.6035" y1="53.3001" x2="35.7922" y2="53.3001" gradientUnits="userSpaceOnUse">
<stop offset="0.0239582" stop-color="#05C2FC"/>
<stop offset="0.919792" stop-color="#0DF8CF"/>
</linearGradient>
<linearGradient id="paint8_linear_2828_2310" x1="42.416" y1="55.7912" x2="11.0479" y2="55.7912" gradientUnits="userSpaceOnUse">
<stop offset="0.0239582" stop-color="#05C2FC"/>
<stop offset="0.919792" stop-color="#0DF8CF"/>
</linearGradient>
<linearGradient id="paint9_linear_2828_2310" x1="17.5215" y1="64.1489" x2="12.192" y2="64.1489" gradientUnits="userSpaceOnUse">
<stop offset="0.0239582" stop-color="#05C2FC"/>
<stop offset="0.919792" stop-color="#0DF8CF"/>
</linearGradient>
<linearGradient id="paint10_linear_2828_2310" x1="23.3828" y1="68.3676" x2="19.6521" y2="68.3676" gradientUnits="userSpaceOnUse">
<stop offset="0.0239582" stop-color="#05C2FC"/>
<stop offset="0.919792" stop-color="#0DF8CF"/>
</linearGradient>
<linearGradient id="paint11_linear_2828_2310" x1="37.1641" y1="68.6896" x2="26.9618" y2="68.6896" gradientUnits="userSpaceOnUse">
<stop offset="0.0239582" stop-color="#05C2FC"/>
<stop offset="0.919792" stop-color="#0DF8CF"/>
</linearGradient>
<linearGradient id="paint12_linear_2828_2310" x1="34.8027" y1="64.9126" x2="30.3107" y2="64.9126" gradientUnits="userSpaceOnUse">
<stop offset="0.0239582" stop-color="#05C2FC"/>
<stop offset="0.919792" stop-color="#0DF8CF"/>
</linearGradient>
<linearGradient id="paint13_linear_2828_2310" x1="46.9102" y1="67.7653" x2="31.0738" y2="67.7653" gradientUnits="userSpaceOnUse">
<stop offset="0.0239582" stop-color="#05C2FC"/>
<stop offset="0.919792" stop-color="#0DF8CF"/>
</linearGradient>
<linearGradient id="paint14_linear_2828_2310" x1="58.9375" y1="63.0236" x2="37.1626" y2="63.0236" gradientUnits="userSpaceOnUse">
<stop offset="0.0239582" stop-color="#05C2FC"/>
<stop offset="0.919792" stop-color="#0DF8CF"/>
</linearGradient>
<linearGradient id="paint15_linear_2828_2310" x1="33.584" y1="36.7454" x2="26.5795" y2="36.7454" gradientUnits="userSpaceOnUse">
<stop offset="0.0239582" stop-color="#05C2FC"/>
<stop offset="0.919792" stop-color="#0DF8CF"/>
</linearGradient>
<linearGradient id="paint16_linear_2828_2310" x1="24.5977" y1="40.1203" x2="3.35568" y2="40.1203" gradientUnits="userSpaceOnUse">
<stop offset="0.0239582" stop-color="#05C2FC"/>
<stop offset="0.919792" stop-color="#0DF8CF"/>
</linearGradient>
<linearGradient id="paint17_linear_2828_2310" x1="28.4062" y1="32.0834" x2="13.179" y2="32.0113" gradientUnits="userSpaceOnUse">
<stop stop-color="#05C2FC"/>
<stop offset="1" stop-color="#0DF8CF"/>
</linearGradient>
<linearGradient id="paint18_linear_2828_2310" x1="27.2637" y1="23.4447" x2="3.20465" y2="23.4447" gradientUnits="userSpaceOnUse">
<stop offset="0.0239582" stop-color="#05C2FC"/>
<stop offset="0.919792" stop-color="#0DF8CF"/>
</linearGradient>
<linearGradient id="paint19_linear_2828_2310" x1="25.2852" y1="62.8231" x2="3.28181" y2="62.8231" gradientUnits="userSpaceOnUse">
<stop offset="0.0239582" stop-color="#05C2FC"/>
<stop offset="0.919792" stop-color="#0DF8CF"/>
</linearGradient>
<linearGradient id="paint20_linear_2828_2310" x1="38.2266" y1="53.4202" x2="3.28008" y2="53.4202" gradientUnits="userSpaceOnUse">
<stop offset="0.0239582" stop-color="#05C2FC"/>
<stop offset="0.919792" stop-color="#0DF8CF"/>
</linearGradient>
<linearGradient id="paint21_linear_2828_2310" x1="43.9395" y1="68.97" x2="19.4236" y2="68.97" gradientUnits="userSpaceOnUse">
<stop offset="0.0239582" stop-color="#05C2FC"/>
<stop offset="0.919792" stop-color="#0DF8CF"/>
</linearGradient>
<linearGradient id="paint22_linear_2828_2310" x1="4.69993" y1="62.7993" x2="7.2995" y2="62.7954" gradientUnits="userSpaceOnUse">
<stop stop-color="#05C2FC"/>
<stop offset="1" stop-color="#05C2FC" stop-opacity="0.01"/>
</linearGradient>
<linearGradient id="paint23_linear_2828_2310" x1="6.16528" y1="62.2974" x2="12.1556" y2="62.2861" gradientUnits="userSpaceOnUse">
<stop stop-color="#05C2FC"/>
<stop offset="1" stop-color="#05C2FC" stop-opacity="0.01"/>
</linearGradient>
<linearGradient id="paint24_linear_2828_2310" x1="7.45968" y1="62.2974" x2="16.5017" y2="62.283" gradientUnits="userSpaceOnUse">
<stop stop-color="#05C2FC"/>
<stop offset="1" stop-color="#05C2FC" stop-opacity="0.01"/>
</linearGradient>
<linearGradient id="paint25_linear_2828_2310" x1="16.8686" y1="62.0967" x2="19.9203" y2="62.0949" gradientUnits="userSpaceOnUse">
<stop stop-color="#05C2FC"/>
<stop offset="1" stop-color="#05C2FC" stop-opacity="0.01"/>
</linearGradient>
<linearGradient id="paint26_linear_2828_2310" x1="21.8184" y1="62.1973" x2="22.8216" y2="62.1971" gradientUnits="userSpaceOnUse">
<stop stop-color="#05C2FC"/>
<stop offset="1" stop-color="#05C2FC" stop-opacity="0.01"/>
</linearGradient>
<linearGradient id="paint27_linear_2828_2310" x1="14.5603" y1="62.2974" x2="34.6787" y2="62.2769" gradientUnits="userSpaceOnUse">
<stop stop-color="#05C2FC"/>
<stop offset="1" stop-color="#05C2FC" stop-opacity="0.01"/>
</linearGradient>
<linearGradient id="paint28_linear_2828_2310" x1="17.3198" y1="62.1973" x2="38.2294" y2="62.163" gradientUnits="userSpaceOnUse">
<stop stop-color="#05C2FC"/>
<stop offset="1" stop-color="#05C2FC" stop-opacity="0.01"/>
</linearGradient>
<linearGradient id="paint29_linear_2828_2310" x1="10.6148" y1="50.6616" x2="25.0819" y2="50.6307" gradientUnits="userSpaceOnUse">
<stop stop-color="#05C2FC"/>
<stop offset="1" stop-color="#05C2FC" stop-opacity="0.01"/>
</linearGradient>
<linearGradient id="paint30_linear_2828_2310" x1="26.9503" y1="62.3984" x2="34.41" y2="62.3949" gradientUnits="userSpaceOnUse">
<stop stop-color="#05C2FC"/>
<stop offset="1" stop-color="#05C2FC" stop-opacity="0.01"/>
</linearGradient>
<linearGradient id="paint31_linear_2828_2310" x1="29.9373" y1="62.3984" x2="43.6133" y2="62.3883" gradientUnits="userSpaceOnUse">
<stop stop-color="#05C2FC"/>
<stop offset="1" stop-color="#05C2FC" stop-opacity="0.01"/>
</linearGradient>
<linearGradient id="paint32_linear_2828_2310" x1="17.7734" y1="34.663" x2="17.7292" y2="6.96896" gradientUnits="userSpaceOnUse">
<stop stop-color="#05C2FC"/>
<stop offset="1" stop-color="#05C2FC" stop-opacity="0.01"/>
</linearGradient>
</defs>
</svg>
