<svg width="53" height="61" viewBox="0 0 53 61" fill="none" xmlns="http://www.w3.org/2000/svg">
<g opacity="0.1">
<path d="M40.7621 22.4886L40.9202 22.634L40.8563 22.7033H40.7621V22.4886ZM34.3245 22.4886L34.1687 22.3407L34.2322 22.2738H34.3245V22.4886ZM23.5039 33.8907H23.2891V33.805L23.3481 33.7429L23.5039 33.8907ZM23.5039 35.5227C24.1366 35.5227 24.6494 36.0355 24.6494 36.6682C24.6494 37.3008 24.1366 37.8137 23.5039 37.8137C22.8713 37.8137 22.3584 37.3008 22.3584 36.6682C22.3584 36.0355 22.8713 35.5227 23.5039 35.5227ZM52.0832 10.5009L40.9202 22.634L40.604 22.3431L51.7671 10.21L52.0832 10.5009ZM40.7621 22.7033H34.3245V22.2738H40.7621V22.7033ZM34.4803 22.6364L23.6597 34.0386L23.3481 33.7429L34.1687 22.3407L34.4803 22.6364ZM23.7187 33.8907V36.6682H23.2891V33.8907H23.7187Z" fill="url(#paint0_linear_2828_2352)"/>
<path d="M32.474 18.0305L32.6307 18.1773L32.5671 18.2453H32.474V18.0305ZM29.0497 18.0305L28.8958 17.8807L28.9591 17.8157H29.0497V18.0305ZM25.3516 20.6857C25.9842 20.6857 26.4971 21.1986 26.4971 21.8312C26.4971 22.4639 25.9842 22.9767 25.3516 22.9767C24.7189 22.9767 24.206 22.4639 24.206 21.8312C24.206 21.1986 24.7189 20.6857 25.3516 20.6857ZM35.8495 14.7421L32.6307 18.1773L32.3173 17.8836L35.536 14.4484L35.8495 14.7421ZM32.474 18.2453H29.0497V17.8157H32.474V18.2453ZM29.2037 18.1803L25.5055 21.981L25.1976 21.6814L28.8958 17.8807L29.2037 18.1803Z" fill="url(#paint1_linear_2828_2352)"/>
<path d="M49.8014 9.0389H50.0161V9.12194L49.9603 9.18338L49.8014 9.0389ZM43.0898 15.2756C43.7225 15.2756 44.2354 15.7884 44.2354 16.4211C44.2354 17.0537 43.7225 17.5666 43.0898 17.5666C42.4572 17.5666 41.9443 17.0537 41.9443 16.4211C41.9443 15.7884 42.4572 15.2756 43.0898 15.2756ZM50.0161 2.82617V9.0389H49.5866V2.82617H50.0161ZM49.9603 9.18338L43.2488 16.5656L42.9309 16.2766L49.6424 8.89441L49.9603 9.18338Z" fill="url(#paint2_linear_2828_2352)"/>
<path d="M46.4444 10.2096H46.6592V10.2949L46.6006 10.357L46.4444 10.2096ZM36.925 20.2961L37.0812 20.4435L37.0177 20.5109H36.925V20.2961ZM29.8711 19.1506C30.5037 19.1506 31.0166 19.6635 31.0166 20.2961C31.0166 20.9288 30.5037 21.4416 29.8711 21.4416C29.2384 21.4416 28.7256 20.9288 28.7256 20.2961C28.7256 19.6635 29.2384 19.1506 29.8711 19.1506ZM46.6592 6.48193V10.2096H46.2296V6.48193H46.6592ZM46.6006 10.357L37.0812 20.4435L36.7688 20.1487L46.2882 10.0621L46.6006 10.357ZM36.925 20.5109H29.8711V20.0813H36.925V20.5109Z" fill="url(#paint3_linear_2828_2352)"/>
<path d="M39.3895 7.65093L39.5467 7.7973L39.483 7.86572H39.3895V7.65093ZM37.4035 7.65093L37.2414 7.50995L37.3057 7.43615H37.4035V7.65093ZM35.6229 9.69748L35.7849 9.83846L35.7207 9.91226H35.6229V9.69748ZM32.1986 9.69748L32.0419 9.55062L32.1055 9.48269H32.1986V9.69748ZM29.3223 11.6218C29.9549 11.6218 30.4678 12.1346 30.4678 12.7673C30.4678 13.3999 29.9549 13.9128 29.3223 13.9128C28.6896 13.9128 28.1767 13.3999 28.1767 12.7673C28.1767 12.1346 28.6896 11.6218 29.3223 11.6218ZM50.5043 -3.97033L39.5467 7.7973L39.2324 7.50456L50.1899 -4.26307L50.5043 -3.97033ZM39.3895 7.86572H37.4035V7.43615H39.3895V7.86572ZM37.5655 7.79191L35.7849 9.83846L35.4608 9.5565L37.2414 7.50995L37.5655 7.79191ZM35.6229 9.91226H32.1986V9.48269H35.6229V9.91226ZM32.3554 9.84433L29.479 12.9142L29.1655 12.6204L32.0419 9.55062L32.3554 9.84433Z" fill="url(#paint4_linear_2828_2352)"/>
<path d="M32.2132 7.64648L32.0565 7.49963L32.1201 7.4317H32.2132V7.64648ZM21.3926 18.0493C22.0252 18.0493 22.5381 18.5622 22.5381 19.1948C22.5381 19.8275 22.0252 20.3404 21.3926 20.3404C20.7599 20.3404 20.2471 19.8275 20.2471 19.1948C20.2471 18.5622 20.7599 18.0493 21.3926 18.0493ZM37.2811 7.86127H32.2132V7.4317H37.2811V7.86127ZM32.3699 7.79334L21.5493 19.3417L21.2358 19.048L32.0565 7.49963L32.3699 7.79334Z" fill="url(#paint5_linear_2828_2352)"/>
<path d="M38.2272 1.65798L38.3831 1.8057L38.3196 1.87276H38.2272V1.65798ZM28.9817 1.65798L28.8253 1.51082L28.8889 1.44319H28.9817V1.65798ZM11.2441 19.3699C11.8768 19.3699 12.3897 19.8828 12.3897 20.5154C12.3897 21.1481 11.8768 21.6609 11.2441 21.6609C10.6115 21.6609 10.0986 21.1481 10.0986 20.5154C10.0986 19.8828 10.6115 19.3699 11.2441 19.3699ZM50.7789 -11.2776L38.3831 1.8057L38.0713 1.51025L50.467 -11.573L50.7789 -11.2776ZM38.2272 1.87276H28.9817V1.44319H38.2272V1.87276ZM29.1382 1.80513L20.2694 11.2339L19.9565 10.9395L28.8253 1.51082L29.1382 1.80513ZM20.2694 11.2339L11.4006 20.6626L11.0877 20.3683L19.9565 10.9395L20.2694 11.2339Z" fill="url(#paint6_linear_2828_2352)"/>
<path d="M20.1478 8.1626L19.9911 8.01574L20.0547 7.94781H20.1478V8.1626ZM13.0254 14.6185C13.658 14.6185 14.1709 15.1314 14.1709 15.764C14.1709 16.3967 13.658 16.9096 13.0254 16.9096C12.3927 16.9096 11.8799 16.3967 11.8799 15.764C11.8799 15.1314 12.3927 14.6185 13.0254 14.6185ZM22.7502 8.37738H20.1478V7.94781L22.7502 7.94781V8.37738ZM20.3046 8.30945L13.1821 15.9109L12.8687 15.6172L19.9911 8.01574L20.3046 8.30945Z" fill="url(#paint7_linear_2828_2352)"/>
<path d="M45.0068 -5.50439V-2.58076L37.8844 5.02069L28.8444 5.02069L27.1832 6.77487M22.3383 11.8912L27.1832 6.77487M27.1832 6.77487V10.3563L16.791 21.2469L16.791 24.9014" stroke="url(#paint8_linear_2828_2352)" stroke-width="0.429568"/>
<path d="M43.9795 0.560856H44.1943V0.646651L44.1352 0.708835L43.9795 0.560856ZM39.1855 4.45861C39.8182 4.45861 40.3311 4.97148 40.3311 5.60413C40.3311 6.23678 39.8182 6.74964 39.1855 6.74964C38.5529 6.74964 38.04 6.23678 38.04 5.60413C38.04 4.97148 38.5529 4.45861 39.1855 4.45861ZM44.1943 -1.4126V0.560856H43.7647V-1.4126H44.1943ZM44.1352 0.708835L39.3412 5.75211L39.0299 5.45615L43.8238 0.412878L44.1352 0.708835Z" fill="url(#paint9_linear_2828_2352)"/>
<path d="M37.2679 -1.92365H37.4827V-1.83875L37.4246 -1.77679L37.2679 -1.92365ZM37.2679 -6.28516C37.9005 -6.28516 38.4134 -5.7723 38.4134 -5.13965C38.4134 -4.507 37.9005 -3.99413 37.2679 -3.99413C36.6352 -3.99413 36.1224 -4.507 36.1224 -5.13965C36.1224 -5.7723 36.6352 -6.28516 37.2679 -6.28516ZM33.7554 1.51095L37.1111 -2.07051L37.4246 -1.77679L34.0688 1.80466L33.7554 1.51095ZM37.0531 -1.92365V-5.13965H37.4827V-1.92365H37.0531Z" fill="url(#paint10_linear_2828_2352)"/>
<path d="M30.6946 -4.99337H30.9093V-4.90847L30.8513 -4.84652L30.6946 -4.99337ZM21.5176 3.65529C22.1502 3.65529 22.6631 4.16815 22.6631 4.8008C22.6631 5.43346 22.1502 5.94632 21.5176 5.94632C20.8849 5.94632 20.3721 5.43346 20.3721 4.8008C20.3721 4.16815 20.8849 3.65529 21.5176 3.65529ZM30.9093 -8.86719V-4.99337H30.4798V-8.86719H30.9093ZM30.8513 -4.84652L21.6743 4.94766L21.3608 4.65395L30.5378 -5.14023L30.8513 -4.84652Z" fill="url(#paint11_linear_2828_2352)"/>
<path d="M27.6793 0.342629H27.8941V0.427531L27.836 0.489486L27.6793 0.342629ZM23.6387 3.50948C24.2713 3.50948 24.7842 4.02234 24.7842 4.65499C24.7842 5.28764 24.2713 5.80051 23.6387 5.80051C23.006 5.80051 22.4932 5.28764 22.4932 4.65499C22.4932 4.02234 23.006 3.50948 23.6387 3.50948ZM27.8941 -1.8501V0.342629H27.4645V-1.8501H27.8941ZM27.836 0.489486L23.7954 4.80185L23.4819 4.50813L27.5225 0.195772L27.836 0.489486Z" fill="url(#paint12_linear_2828_2352)"/>
<path d="M24.2535 -8.79448H24.0387V-8.88095L24.0986 -8.9433L24.2535 -8.79448ZM24.2535 -5.28611H24.4683V-5.20047L24.4094 -5.13832L24.2535 -5.28611ZM12.748 6.84697H12.5333V6.76132L12.5922 6.69918L12.748 6.84697ZM12.748 8.11345C13.3807 8.11345 13.8936 8.62632 13.8936 9.25897C13.8936 9.89162 13.3807 10.4045 12.748 10.4045C12.1154 10.4045 11.6025 9.89162 11.6025 9.25897C11.6025 8.62632 12.1154 8.11345 12.748 8.11345ZM27.1478 -11.4962L24.4084 -8.64565L24.0986 -8.9433L26.838 -11.7938L27.1478 -11.4962ZM24.4683 -8.79448V-5.28611H24.0387V-8.79448H24.4683ZM24.4094 -5.13832L12.9039 6.99476L12.5922 6.69918L24.0977 -5.43391L24.4094 -5.13832ZM12.9628 6.84697V9.25897H12.5333V6.84697H12.9628Z" fill="url(#paint13_linear_2828_2352)"/>
<path d="M16.5854 -2.58203L16.4297 -2.72988L16.4932 -2.79682H16.5854V-2.58203ZM5.76484 8.82015L5.92064 8.968L5.85712 9.03493H5.76484V8.82015ZM1.92969 7.67463C2.56234 7.67463 3.0752 8.1875 3.0752 8.82015C3.0752 9.4528 2.56234 9.96566 1.92969 9.96566C1.29704 9.96566 0.784172 9.4528 0.784172 8.82015C0.784172 8.1875 1.29704 7.67463 1.92969 7.67463ZM21.5164 -2.36725L16.5854 -2.36725V-2.79682L21.5164 -2.79682V-2.36725ZM16.7412 -2.43418L5.92064 8.968L5.60904 8.6723L16.4297 -2.72988L16.7412 -2.43418ZM5.76484 9.03493H1.92969V8.60536H5.76484V9.03493Z" fill="url(#paint14_linear_2828_2352)"/>
<path d="M26.7909 25.8506L26.6295 25.7088L26.6937 25.6358H26.7909V25.8506ZM24.7363 27.044C25.369 27.044 25.8818 27.5568 25.8818 28.1895C25.8818 28.8221 25.369 29.335 24.7363 29.335C24.1037 29.335 23.5908 28.8221 23.5908 28.1895C23.5908 27.5568 24.1037 27.044 24.7363 27.044ZM31.0369 26.0654H26.7909V25.6358H31.0369V26.0654ZM26.9522 25.9923L24.8977 28.3312L24.575 28.0477L26.6295 25.7088L26.9522 25.9923Z" fill="url(#paint15_linear_2828_2352)"/>
<path d="M32.8184 32.8918C33.451 32.8918 33.9639 33.4047 33.9639 34.0373C33.9639 34.67 33.451 35.1829 32.8184 35.1829C32.1857 35.1829 31.6728 34.67 31.6728 34.0373C31.6728 33.4047 32.1857 32.8918 32.8184 32.8918ZM52.0816 14.012L32.9743 34.185L32.6624 33.8896L51.7697 13.7166L52.0816 14.012Z" fill="url(#paint16_linear_2828_2352)"/>
<path d="M33.2962 39.1534L33.4526 39.3006L33.389 39.3681H33.2962V39.1534ZM29.3926 38.0078C30.0252 38.0078 30.5381 38.5207 30.5381 39.1534C30.5381 39.786 30.0252 40.2989 29.3926 40.2989C28.7599 40.2989 28.2471 39.786 28.2471 39.1534C28.2471 38.5207 28.7599 38.0078 29.3926 38.0078ZM48.3138 23.5129L33.4526 39.3006L33.1398 39.0061L48.001 23.2185L48.3138 23.5129ZM33.2962 39.3681H29.3926V38.9386H33.2962V39.3681Z" fill="url(#paint17_linear_2828_2352)"/>
<path d="M48.1556 23.439H47.9408V23.3552L47.9975 23.2935L48.1556 23.439ZM48.1556 32.4292H48.3703V32.5138L48.3126 32.5757L48.1556 32.4292ZM30.418 51.4328H30.2032V51.3481L30.261 51.2862L30.418 51.4328ZM30.418 57.8887C31.0506 57.8887 31.5635 58.4016 31.5635 59.0342C31.5635 59.6669 31.0506 60.1798 30.418 60.1798C29.7853 60.1798 29.2725 59.6669 29.2725 59.0342C29.2725 58.4016 29.7853 57.8887 30.418 57.8887ZM52.2172 19.3452L48.3136 23.5845L47.9975 23.2935L51.9012 19.0542L52.2172 19.3452ZM48.3703 23.439V32.4292H47.9408V23.439H48.3703ZM48.3126 32.5757L30.575 51.5793L30.261 51.2862L47.9985 32.2826L48.3126 32.5757ZM30.6328 51.4328V59.0342H30.2032V51.4328H30.6328Z" fill="url(#paint18_linear_2828_2352)"/>
<path d="M50.4847 -4.26261H50.2699V-4.34751L50.3279 -4.40946L50.4847 -4.26261ZM50.4847 -0.3157H50.6995V-0.230093L50.6406 -0.167956L50.4847 -0.3157ZM38.3629 12.4752L38.5188 12.6229L38.4552 12.69H38.3629V12.4752ZM32.1992 11.3297C32.8319 11.3297 33.3447 11.8426 33.3447 12.4752C33.3447 13.1079 32.8319 13.6207 32.1992 13.6207C31.5666 13.6207 31.0537 13.1079 31.0537 12.4752C31.0537 11.8426 31.5666 11.3297 32.1992 11.3297ZM52.1481 -5.72375L50.6414 -4.11575L50.3279 -4.40946L51.8346 -6.01746L52.1481 -5.72375ZM50.6995 -4.26261V-0.3157H50.2699V-4.26261H50.6995ZM50.6406 -0.167956L38.5188 12.6229L38.207 12.3275L50.3288 -0.463443L50.6406 -0.167956ZM38.3629 12.69H32.1992V12.2604H38.3629V12.69Z" fill="url(#paint19_linear_2828_2352)"/>
<path d="M51.9912 0.415039L38.8421 14.4485L29.0488 14.4485L20.5566 23.2925" stroke="url(#paint20_linear_2828_2352)" stroke-width="0.429568"/>
<path d="M36.9946 -11.3518L37.1248 -11.181L37.0671 -11.137H36.9946V-11.3518ZM32.8855 -11.3518L32.7294 -11.4993L32.7929 -11.5666H32.8855V-11.3518ZM15.4219 5.99465C16.0545 5.99465 16.5674 6.50751 16.5674 7.14016C16.5674 7.77281 16.0545 8.28568 15.4219 8.28568C14.7892 8.28568 14.2764 7.77281 14.2764 7.14016C14.2764 6.50751 14.7892 5.99465 15.4219 5.99465ZM37.6042 -11.5465L37.1248 -11.181L36.8644 -11.5226L37.3438 -11.8881L37.6042 -11.5465ZM36.9946 -11.137H32.8855V-11.5666H36.9946V-11.137ZM33.0417 -11.2044L15.578 7.28763L15.2657 6.99269L32.7294 -11.4993L33.0417 -11.2044Z" fill="url(#paint21_linear_2828_2352)"/>
</g>
<g filter="url(#filter0_ddddd_2828_2352)">
<path d="M49.5461 3.32422V4.51025H51.877" stroke="url(#paint22_linear_2828_2352)" stroke-width="0.300698"/>
<path d="M46.707 3.78027V5.96987L52.0781 5.96987" stroke="url(#paint23_linear_2828_2352)" stroke-width="0.300698"/>
<path d="M44.1759 3.78027V7.7033L52.2832 7.7033" stroke="url(#paint24_linear_2828_2352)" stroke-width="0.300698"/>
<path d="M41.1328 7.52099H41.2832V7.67133H41.1328V7.52099ZM38.3966 7.52099V7.67133H38.2462V7.52099H38.3966ZM39.1984 4.51029C39.1984 4.95315 38.8394 5.31215 38.3966 5.31215C37.9537 5.31215 37.5947 4.95315 37.5947 4.51029C37.5947 4.06743 37.9537 3.70843 38.3966 3.70843C38.8394 3.70843 39.1984 4.06743 39.1984 4.51029ZM41.2832 3.96289V7.52099H40.9825V3.96289H41.2832ZM41.1328 7.67133H38.3966V7.37064H41.1328V7.67133ZM38.2462 7.52099V4.51029H38.5469V7.52099H38.2462Z" fill="url(#paint25_linear_2828_2352)"/>
<path d="M35.7656 3.87207V7.88633" stroke="url(#paint26_linear_2828_2352)" stroke-width="0.300698"/>
<path d="M49.535 9.8929C49.535 10.3358 49.176 10.6948 48.7332 10.6948C48.2903 10.6948 47.9313 10.3358 47.9313 9.8929C47.9313 9.45004 48.2903 9.09104 48.7332 9.09104C49.176 9.09104 49.535 9.45004 49.535 9.8929ZM32.8225 9.8929V10.0432H32.6722V9.8929H32.8225ZM33.6244 3.78027C33.6244 4.22313 33.2654 4.58213 32.8225 4.58213C32.3796 4.58213 32.0206 4.22313 32.0206 3.78027C32.0206 3.33742 32.3796 2.97841 32.8225 2.97841C33.2654 2.97841 33.6244 3.33742 33.6244 3.78027ZM51.6632 9.8929C51.6632 10.3358 51.3042 10.6948 50.8613 10.6948C50.4185 10.6948 50.0595 10.3358 50.0595 9.8929C50.0595 9.45004 50.4185 9.09104 50.8613 9.09104C51.3042 9.09104 51.6632 9.45004 51.6632 9.8929ZM51.6632 17.374C51.6632 17.8169 51.3042 18.1759 50.8613 18.1759C50.4185 18.1759 50.0595 17.8169 50.0595 17.374C50.0595 16.9312 50.4185 16.5722 50.8613 16.5722C51.3042 16.5722 51.6632 16.9312 51.6632 17.374ZM48.7332 10.0432L32.8225 10.0432V9.74255L48.7332 9.74255V10.0432ZM32.6722 9.8929V3.78027H32.9728V9.8929H32.6722ZM51.0117 9.8929V17.374H50.711V9.8929H51.0117Z" fill="url(#paint27_linear_2828_2352)"/>
<path d="M49.5382 12.6305C49.5382 13.0733 49.1792 13.4323 48.7363 13.4323C48.2935 13.4323 47.9345 13.0733 47.9345 12.6305C47.9345 12.1876 48.2935 11.8286 48.7363 11.8286C49.1792 11.8286 49.5382 12.1876 49.5382 12.6305ZM31.2042 12.6305V12.7808H31.1502L31.1085 12.7464L31.2042 12.6305ZM29.9881 11.6269L29.8924 11.7429L29.8378 11.6978V11.6269H29.9881ZM30.79 3.87207C30.79 4.31493 30.431 4.67393 29.9881 4.67393C29.5452 4.67393 29.1862 4.31493 29.1862 3.87207C29.1862 3.42921 29.5452 3.07021 29.9881 3.07021C30.431 3.07021 30.79 3.42921 30.79 3.87207ZM48.7363 12.7808L31.2042 12.7808V12.4801L48.7363 12.4801V12.7808ZM31.1085 12.7464L29.8924 11.7429L30.0838 11.5109L31.2999 12.5145L31.1085 12.7464ZM29.8378 11.6269V3.87207L30.1385 3.87207V11.6269H29.8378Z" fill="url(#paint28_linear_2828_2352)"/>
<path d="M47.2152 19.0157V19.166H47.1584L47.1157 19.1284L47.2152 19.0157ZM41.9455 14.3628V14.2124H42.0023L42.045 14.2501L41.9455 14.3628ZM39.7071 14.3628C39.7071 14.8056 39.3481 15.1647 38.9052 15.1647C38.4624 15.1647 38.1034 14.8056 38.1034 14.3628C38.1034 13.9199 38.4624 13.5609 38.9052 13.5609C39.3481 13.5609 39.7071 13.9199 39.7071 14.3628ZM51.877 19.166H47.2152V18.8653H51.877V19.166ZM47.1157 19.1284L41.846 14.4755L42.045 14.2501L47.3147 18.903L47.1157 19.1284ZM41.9455 14.5131H38.9052V14.2124H41.9455V14.5131Z" fill="url(#paint29_linear_2828_2352)"/>
<path d="M27.3505 10.9871L27.247 11.0962L27.2002 11.0517V10.9871H27.3505ZM31.1002 14.5452V14.6956H31.0402L30.9967 14.6543L31.1002 14.5452ZM34.8409 14.5452C34.8409 14.9881 34.4819 15.3471 34.0391 15.3471C33.5962 15.3471 33.2372 14.9881 33.2372 14.5452C33.2372 14.1024 33.5962 13.7434 34.0391 13.7434C34.4819 13.7434 34.8409 14.1024 34.8409 14.5452ZM27.5009 3.68848V10.9871H27.2002V3.68848H27.5009ZM27.454 10.8781L31.2036 14.4362L30.9967 14.6543L27.247 11.0962L27.454 10.8781ZM31.1002 14.3949H34.0391V14.6956H31.1002V14.3949Z" fill="url(#paint30_linear_2828_2352)"/>
<path d="M21.8783 4.23588L21.7777 4.34762L21.7279 4.30282V4.23588H21.8783ZM24.7158 6.79041L24.8164 6.67867L24.8662 6.72346V6.79041H24.7158ZM24.7158 10.7134L24.6134 10.8235L24.5655 10.7789V10.7134H24.7158ZM30.7963 16.3699V16.5202H30.7372L30.6939 16.48L30.7963 16.3699ZM34.9425 16.3699C34.9425 16.8127 34.5835 17.1718 34.1406 17.1718C33.6978 17.1718 33.3388 16.8127 33.3388 16.3699C33.3388 15.927 33.6978 15.568 34.1406 15.568C34.5835 15.568 34.9425 15.927 34.9425 16.3699ZM22.0286 3.68848V4.23588H21.7279V3.68848H22.0286ZM21.9789 4.12414L24.8164 6.67867L24.6153 6.90214L21.7777 4.34762L21.9789 4.12414ZM24.8662 6.79041V10.7134H24.5655V6.79041H24.8662ZM24.8183 10.6034L30.8988 16.2598L30.6939 16.48L24.6134 10.8235L24.8183 10.6034ZM30.7963 16.2195H34.1406V16.5202H30.7963V16.2195Z" fill="url(#paint31_linear_2828_2352)"/>
<path d="M38.9492 15.559C39.3921 15.559 39.7511 15.918 39.7511 16.3608C39.7511 16.8037 39.3921 17.1627 38.9492 17.1627C38.5064 17.1627 38.1474 16.8037 38.1474 16.3608C38.1474 15.918 38.5064 15.559 38.9492 15.559ZM41.695 16.3608V16.2105H41.7537L41.7969 16.2503L41.695 16.3608ZM46.1917 20.5052V20.6555H46.133L46.0898 20.6157L46.1917 20.5052ZM50.7282 20.5052V20.3548H50.8786V20.5052H50.7282ZM50.7282 39.054H50.8786V39.101L50.8518 39.1396L50.7282 39.054ZM49.0569 40.6664C49.4997 40.6664 49.8587 41.0254 49.8587 41.4682C49.8587 41.9111 49.4997 42.2701 49.0569 42.2701C48.614 42.2701 48.255 41.9111 48.255 41.4682C48.255 41.0254 48.614 40.6664 49.0569 40.6664ZM38.9492 16.2105H41.695V16.5112H38.9492V16.2105ZM41.7969 16.2503L46.2936 20.3946L46.0898 20.6157L41.5931 16.4714L41.7969 16.2503ZM46.1917 20.3548H50.7282V20.6555H46.1917V20.3548ZM50.8786 20.5052V39.054H50.5779V20.5052H50.8786ZM50.8518 39.1396L49.1805 41.5538L48.9332 41.3826L50.6046 38.9685L50.8518 39.1396Z" fill="url(#paint32_linear_2828_2352)"/>
</g>
<defs>
<filter id="filter0_ddddd_2828_2352" x="19.5807" y="0.830673" width="34.8504" height="43.5872" filterUnits="userSpaceOnUse" color-interpolation-filters="sRGB">
<feFlood flood-opacity="0" result="BackgroundImageFix"/>
<feColorMatrix in="SourceAlpha" type="matrix" values="0 0 0 0 0 0 0 0 0 0 0 0 0 0 0 0 0 0 127 0" result="hardAlpha"/>
<feOffset dy="0.171827"/>
<feGaussianBlur stdDeviation="0.0859137"/>
<feComposite in2="hardAlpha" operator="out"/>
<feColorMatrix type="matrix" values="0 0 0 0 0 0 0 0 0 0 0 0 0 0 0 0 0 0 0.25 0"/>
<feBlend mode="normal" in2="BackgroundImageFix" result="effect1_dropShadow_2828_2352"/>
<feColorMatrix in="SourceAlpha" type="matrix" values="0 0 0 0 0 0 0 0 0 0 0 0 0 0 0 0 0 0 127 0" result="hardAlpha"/>
<feOffset dy="0.171827"/>
<feGaussianBlur stdDeviation="0.0859137"/>
<feComposite in2="hardAlpha" operator="out"/>
<feColorMatrix type="matrix" values="0 0 0 0 0 0 0 0 0 0 0 0 0 0 0 0 0 0 0.25 0"/>
<feBlend mode="normal" in2="effect1_dropShadow_2828_2352" result="effect2_dropShadow_2828_2352"/>
<feColorMatrix in="SourceAlpha" type="matrix" values="0 0 0 0 0 0 0 0 0 0 0 0 0 0 0 0 0 0 127 0" result="hardAlpha"/>
<feOffset dy="0.171827"/>
<feGaussianBlur stdDeviation="0.0859137"/>
<feComposite in2="hardAlpha" operator="out"/>
<feColorMatrix type="matrix" values="0 0 0 0 0 0 0 0 0 0 0 0 0 0 0 0 0 0 0.25 0"/>
<feBlend mode="normal" in2="effect2_dropShadow_2828_2352" result="effect3_dropShadow_2828_2352"/>
<feColorMatrix in="SourceAlpha" type="matrix" values="0 0 0 0 0 0 0 0 0 0 0 0 0 0 0 0 0 0 127 0" result="hardAlpha"/>
<feOffset dy="0.171827"/>
<feGaussianBlur stdDeviation="0.0859137"/>
<feComposite in2="hardAlpha" operator="out"/>
<feColorMatrix type="matrix" values="0 0 0 0 0 0 0 0 0 0 0 0 0 0 0 0 0 0 0.25 0"/>
<feBlend mode="normal" in2="effect3_dropShadow_2828_2352" result="effect4_dropShadow_2828_2352"/>
<feColorMatrix in="SourceAlpha" type="matrix" values="0 0 0 0 0 0 0 0 0 0 0 0 0 0 0 0 0 0 127 0" result="hardAlpha"/>
<feOffset/>
<feGaussianBlur stdDeviation="1.07392"/>
<feComposite in2="hardAlpha" operator="out"/>
<feColorMatrix type="matrix" values="0 0 0 0 0.0196078 0 0 0 0 0.760784 0 0 0 0 0.988235 0 0 0 1 0"/>
<feBlend mode="normal" in2="effect4_dropShadow_2828_2352" result="effect5_dropShadow_2828_2352"/>
<feBlend mode="normal" in="SourceGraphic" in2="effect5_dropShadow_2828_2352" result="shape"/>
</filter>
<linearGradient id="paint0_linear_2828_2352" x1="23.5039" y1="23.5118" x2="51.9251" y2="23.5118" gradientUnits="userSpaceOnUse">
<stop offset="0.0239582" stop-color="#05C2FC"/>
<stop offset="0.919792" stop-color="#0DF8CF"/>
</linearGradient>
<linearGradient id="paint1_linear_2828_2352" x1="25.3516" y1="18.2132" x2="35.6928" y2="18.2132" gradientUnits="userSpaceOnUse">
<stop offset="0.0239582" stop-color="#05C2FC"/>
<stop offset="0.919792" stop-color="#0DF8CF"/>
</linearGradient>
<linearGradient id="paint2_linear_2828_2352" x1="43.0898" y1="9.62362" x2="49.8014" y2="9.62362" gradientUnits="userSpaceOnUse">
<stop offset="0.0239582" stop-color="#05C2FC"/>
<stop offset="0.919792" stop-color="#0DF8CF"/>
</linearGradient>
<linearGradient id="paint3_linear_2828_2352" x1="29.8711" y1="13.389" x2="46.4444" y2="13.389" gradientUnits="userSpaceOnUse">
<stop offset="0.0239582" stop-color="#05C2FC"/>
<stop offset="0.919792" stop-color="#0DF8CF"/>
</linearGradient>
<linearGradient id="paint4_linear_2828_2352" x1="29.3223" y1="4.3253" x2="50.3471" y2="4.3253" gradientUnits="userSpaceOnUse">
<stop offset="0.0239582" stop-color="#05C2FC"/>
<stop offset="0.919792" stop-color="#0DF8CF"/>
</linearGradient>
<linearGradient id="paint5_linear_2828_2352" x1="21.3926" y1="13.4207" x2="37.2811" y2="13.4207" gradientUnits="userSpaceOnUse">
<stop offset="0.0239582" stop-color="#05C2FC"/>
<stop offset="0.919792" stop-color="#0DF8CF"/>
</linearGradient>
<linearGradient id="paint6_linear_2828_2352" x1="11.2441" y1="4.54506" x2="50.6229" y2="4.54506" gradientUnits="userSpaceOnUse">
<stop offset="0.0239582" stop-color="#05C2FC"/>
<stop offset="0.919792" stop-color="#0DF8CF"/>
</linearGradient>
<linearGradient id="paint7_linear_2828_2352" x1="13.0254" y1="11.9633" x2="22.7502" y2="11.9633" gradientUnits="userSpaceOnUse">
<stop offset="0.0239582" stop-color="#05C2FC"/>
<stop offset="0.919792" stop-color="#0DF8CF"/>
</linearGradient>
<linearGradient id="paint8_linear_2828_2352" x1="16.791" y1="9.69851" x2="45.0068" y2="9.69851" gradientUnits="userSpaceOnUse">
<stop offset="0.0239582" stop-color="#05C2FC"/>
<stop offset="0.919792" stop-color="#0DF8CF"/>
</linearGradient>
<linearGradient id="paint9_linear_2828_2352" x1="39.1855" y1="2.09576" x2="43.9795" y2="2.09576" gradientUnits="userSpaceOnUse">
<stop offset="0.0239582" stop-color="#05C2FC"/>
<stop offset="0.919792" stop-color="#0DF8CF"/>
</linearGradient>
<linearGradient id="paint10_linear_2828_2352" x1="33.9121" y1="-1.74092" x2="37.2679" y2="-1.74092" gradientUnits="userSpaceOnUse">
<stop offset="0.0239582" stop-color="#05C2FC"/>
<stop offset="0.919792" stop-color="#0DF8CF"/>
</linearGradient>
<linearGradient id="paint11_linear_2828_2352" x1="21.5176" y1="-2.03319" x2="30.6945" y2="-2.03319" gradientUnits="userSpaceOnUse">
<stop offset="0.0239582" stop-color="#05C2FC"/>
<stop offset="0.919792" stop-color="#0DF8CF"/>
</linearGradient>
<linearGradient id="paint12_linear_2828_2352" x1="23.6387" y1="1.40245" x2="27.6793" y2="1.40245" gradientUnits="userSpaceOnUse">
<stop offset="0.0239582" stop-color="#05C2FC"/>
<stop offset="0.919792" stop-color="#0DF8CF"/>
</linearGradient>
<linearGradient id="paint13_linear_2828_2352" x1="12.748" y1="-1.19303" x2="26.9929" y2="-1.19303" gradientUnits="userSpaceOnUse">
<stop offset="0.0239582" stop-color="#05C2FC"/>
<stop offset="0.919792" stop-color="#0DF8CF"/>
</linearGradient>
<linearGradient id="paint14_linear_2828_2352" x1="1.92969" y1="3.11906" x2="21.5164" y2="3.11906" gradientUnits="userSpaceOnUse">
<stop offset="0.0239582" stop-color="#05C2FC"/>
<stop offset="0.919792" stop-color="#0DF8CF"/>
</linearGradient>
<linearGradient id="paint15_linear_2828_2352" x1="24.7363" y1="27.02" x2="31.0369" y2="27.02" gradientUnits="userSpaceOnUse">
<stop offset="0.0239582" stop-color="#05C2FC"/>
<stop offset="0.919792" stop-color="#0DF8CF"/>
</linearGradient>
<linearGradient id="paint16_linear_2828_2352" x1="32.8184" y1="23.9508" x2="51.9256" y2="23.9508" gradientUnits="userSpaceOnUse">
<stop offset="0.0239582" stop-color="#05C2FC"/>
<stop offset="0.919792" stop-color="#0DF8CF"/>
</linearGradient>
<linearGradient id="paint17_linear_2828_2352" x1="29.3926" y1="31.2595" x2="43.0896" y2="31.3237" gradientUnits="userSpaceOnUse">
<stop stop-color="#05C2FC"/>
<stop offset="1" stop-color="#0DF8CF"/>
</linearGradient>
<linearGradient id="paint18_linear_2828_2352" x1="30.418" y1="39.117" x2="52.0592" y2="39.117" gradientUnits="userSpaceOnUse">
<stop offset="0.0239582" stop-color="#05C2FC"/>
<stop offset="0.919792" stop-color="#0DF8CF"/>
</linearGradient>
<linearGradient id="paint19_linear_2828_2352" x1="32.1992" y1="3.3023" x2="51.9913" y2="3.3023" gradientUnits="userSpaceOnUse">
<stop offset="0.0239582" stop-color="#05C2FC"/>
<stop offset="0.919792" stop-color="#0DF8CF"/>
</linearGradient>
<linearGradient id="paint20_linear_2828_2352" x1="20.5566" y1="11.8538" x2="51.9912" y2="11.8538" gradientUnits="userSpaceOnUse">
<stop offset="0.0239582" stop-color="#05C2FC"/>
<stop offset="0.919792" stop-color="#0DF8CF"/>
</linearGradient>
<linearGradient id="paint21_linear_2828_2352" x1="15.4219" y1="-2.28856" x2="37.474" y2="-2.28856" gradientUnits="userSpaceOnUse">
<stop offset="0.0239582" stop-color="#05C2FC"/>
<stop offset="0.919792" stop-color="#0DF8CF"/>
</linearGradient>
<linearGradient id="paint22_linear_2828_2352" x1="50.7115" y1="3.32422" x2="48.3732" y2="3.3277" gradientUnits="userSpaceOnUse">
<stop stop-color="#05C2FC"/>
<stop offset="1" stop-color="#05C2FC" stop-opacity="0.01"/>
</linearGradient>
<linearGradient id="paint23_linear_2828_2352" x1="49.3926" y1="3.78027" x2="44.0042" y2="3.79029" gradientUnits="userSpaceOnUse">
<stop stop-color="#05C2FC"/>
<stop offset="1" stop-color="#05C2FC" stop-opacity="0.01"/>
</linearGradient>
<linearGradient id="paint24_linear_2828_2352" x1="48.2295" y1="3.78027" x2="40.0962" y2="3.79301" gradientUnits="userSpaceOnUse">
<stop stop-color="#05C2FC"/>
<stop offset="1" stop-color="#05C2FC" stop-opacity="0.01"/>
</linearGradient>
<linearGradient id="paint25_linear_2828_2352" x1="39.7647" y1="3.96289" x2="37.0197" y2="3.96449" gradientUnits="userSpaceOnUse">
<stop stop-color="#05C2FC"/>
<stop offset="1" stop-color="#05C2FC" stop-opacity="0.01"/>
</linearGradient>
<linearGradient id="paint26_linear_2828_2352" x1="35.2656" y1="3.87207" x2="34.2624" y2="3.87226" gradientUnits="userSpaceOnUse">
<stop stop-color="#05C2FC"/>
<stop offset="1" stop-color="#05C2FC" stop-opacity="0.01"/>
</linearGradient>
<linearGradient id="paint27_linear_2828_2352" x1="41.8419" y1="3.78027" x2="23.7452" y2="3.79847" gradientUnits="userSpaceOnUse">
<stop stop-color="#05C2FC"/>
<stop offset="1" stop-color="#05C2FC" stop-opacity="0.01"/>
</linearGradient>
<linearGradient id="paint28_linear_2828_2352" x1="39.3622" y1="3.87207" x2="20.5539" y2="3.90258" gradientUnits="userSpaceOnUse">
<stop stop-color="#05C2FC"/>
<stop offset="1" stop-color="#05C2FC" stop-opacity="0.01"/>
</linearGradient>
<linearGradient id="paint29_linear_2828_2352" x1="45.3911" y1="14.3628" x2="32.3778" y2="14.3903" gradientUnits="userSpaceOnUse">
<stop stop-color="#05C2FC"/>
<stop offset="1" stop-color="#05C2FC" stop-opacity="0.01"/>
</linearGradient>
<linearGradient id="paint30_linear_2828_2352" x1="30.6948" y1="3.68848" x2="23.9848" y2="3.69161" gradientUnits="userSpaceOnUse">
<stop stop-color="#05C2FC"/>
<stop offset="1" stop-color="#05C2FC" stop-opacity="0.01"/>
</linearGradient>
<linearGradient id="paint31_linear_2828_2352" x1="28.0095" y1="3.68848" x2="15.7078" y2="3.69749" gradientUnits="userSpaceOnUse">
<stop stop-color="#05C2FC"/>
<stop offset="1" stop-color="#05C2FC" stop-opacity="0.01"/>
</linearGradient>
<linearGradient id="paint32_linear_2828_2352" x1="38.9492" y1="28.9145" x2="38.9899" y2="54.1024" gradientUnits="userSpaceOnUse">
<stop stop-color="#05C2FC"/>
<stop offset="1" stop-color="#05C2FC" stop-opacity="0.01"/>
</linearGradient>
</defs>
</svg>
