<svg width="146" height="30" viewBox="0 0 146 30" fill="none" xmlns="http://www.w3.org/2000/svg">
<path d="M44 15L102 15" stroke="url(#paint0_linear_511_986)" stroke-width="2" stroke-linecap="round"/>
<path d="M28.8284 1H54.6716C56.4534 1 57.3457 3.15428 56.0858 4.41421L32.0858 28.4142C31.7107 28.7893 31.202 29 30.6716 29H4.82843C3.04662 29 2.15428 26.8457 3.41421 25.5858L27.4142 1.58579C27.7893 1.21071 28.298 1 28.8284 1Z" fill="url(#paint1_linear_511_986)" stroke="white" stroke-opacity="0.38"/>
<path d="M114.828 1H140.672C142.453 1 143.346 3.15428 142.086 4.41421L118.086 28.4142C117.711 28.7893 117.202 29 116.672 29H90.8284C89.0466 29 88.1543 26.8457 89.4142 25.5858L113.414 1.58579C113.789 1.21071 114.298 1 114.828 1Z" fill="url(#paint2_linear_511_986)" stroke="white" stroke-opacity="0.38"/>
<defs>
<linearGradient id="paint0_linear_511_986" x1="54.3571" y1="18" x2="72.9835" y2="15.8565" gradientUnits="userSpaceOnUse">
<stop stop-color="#05C2FC"/>
<stop offset="1" stop-color="#0DF8CF"/>
</linearGradient>
<linearGradient id="paint1_linear_511_986" x1="30" y1="30.5" x2="52.5" y2="7" gradientUnits="userSpaceOnUse">
<stop stop-color="#0DF8CF"/>
<stop offset="1" stop-color="#05C2FC"/>
</linearGradient>
<linearGradient id="paint2_linear_511_986" x1="116" y1="30.5" x2="138.5" y2="7" gradientUnits="userSpaceOnUse">
<stop stop-color="#0DF8CF"/>
<stop offset="1" stop-color="#05C2FC"/>
</linearGradient>
</defs>
</svg>
