<svg width="171" height="54" viewBox="0 0 171 54" fill="none" xmlns="http://www.w3.org/2000/svg">
<g filter="url(#filter0_i_2383_378)">
<path d="M28.1553 15.3621V36.6502L3.72787 13.6453V49.6978H10.4969V28.4096L34.9243 51.4145V15.3621H28.1553ZM46.8969 49.6978H64.2119V43.7626H46.8969V49.6978ZM46.8969 21.2972H64.2119V15.3621H46.8969V21.2972ZM46.8969 34.3939H63.2309V28.5568H46.8969V34.3939ZM42.3843 15.3621V49.6978H49.1533V15.3621H42.3843ZM106.177 32.5299C106.177 30.2409 106.684 28.2625 107.698 26.5947C108.744 24.927 110.101 23.6517 111.769 22.7688C113.437 21.8532 115.252 21.3953 117.214 21.3953C118.849 21.3953 120.304 21.6079 121.579 22.033C122.855 22.4581 123.999 23.0304 125.013 23.7498C126.059 24.4692 126.959 25.254 127.711 26.1042V18.207C126.305 17.0952 124.768 16.2286 123.1 15.6073C121.465 14.986 119.388 14.6754 116.87 14.6754C114.254 14.6754 111.818 15.1005 109.562 15.9507C107.338 16.8009 105.393 18.0272 103.725 19.6295C102.09 21.2318 100.814 23.1285 99.8988 25.3194C99.0159 27.4777 98.5744 29.8812 98.5744 32.5299C98.5744 35.1787 99.0159 37.5985 99.8988 39.7895C100.814 41.9477 102.09 43.828 103.725 45.4303C105.393 47.0327 107.338 48.2589 109.562 49.1091C111.818 49.9594 114.254 50.3845 116.87 50.3845C119.388 50.3845 121.465 50.0738 123.1 49.4525C124.768 48.8312 126.305 47.9646 127.711 46.8528V38.9556C126.959 39.8058 126.059 40.5906 125.013 41.31C123.999 42.0295 122.855 42.6017 121.579 43.0268C120.304 43.4519 118.849 43.6645 117.214 43.6645C115.252 43.6645 113.437 43.223 111.769 42.3401C110.101 41.4245 108.744 40.1328 107.698 38.4651C106.684 36.7646 106.177 34.7863 106.177 32.5299ZM140.135 32.5299C140.135 30.339 140.593 28.3933 141.508 26.6928C142.424 24.9924 143.683 23.6517 145.285 22.6707C146.887 21.6896 148.751 21.1991 150.877 21.1991C153.035 21.1991 154.915 21.6896 156.518 22.6707C158.12 23.6517 159.363 24.9924 160.246 26.6928C161.129 28.3933 161.57 30.339 161.57 32.5299C161.57 34.7209 161.112 36.6665 160.197 38.367C159.314 40.0674 158.071 41.4081 156.469 42.3892C154.866 43.3702 153.003 43.8607 150.877 43.8607C148.751 43.8607 146.887 43.3702 145.285 42.3892C143.683 41.4081 142.424 40.0674 141.508 38.367C140.593 36.6665 140.135 34.7209 140.135 32.5299ZM132.728 32.5299C132.728 35.1133 133.17 37.5168 134.052 39.7404C134.935 41.9313 136.194 43.8443 137.829 45.4794C139.464 47.1144 141.377 48.3897 143.568 49.3053C145.792 50.1883 148.228 50.6297 150.877 50.6297C153.526 50.6297 155.946 50.1883 158.137 49.3053C160.36 48.3897 162.273 47.1144 163.875 45.4794C165.511 43.8443 166.769 41.9313 167.652 39.7404C168.568 37.5168 169.026 35.1133 169.026 32.5299C169.026 29.9139 168.568 27.5267 167.652 25.3685C166.769 23.1775 165.494 21.2809 163.826 19.6786C162.191 18.0762 160.278 16.85 158.087 15.9997C155.897 15.1168 153.493 14.6754 150.877 14.6754C148.294 14.6754 145.89 15.1168 143.666 15.9997C141.476 16.85 139.563 18.0762 137.928 19.6786C136.292 21.2809 135.017 23.1775 134.102 25.3685C133.186 27.5267 132.728 29.9139 132.728 32.5299Z" fill="#05C2FC"/>
</g>
<path d="M28.1553 15.3621V13.8905H26.6837V15.3621H28.1553ZM28.1553 36.6502L27.1464 37.7214L29.6268 40.0574V36.6502H28.1553ZM3.72787 13.6453L4.73674 12.574L2.25634 10.2381V13.6453H3.72787ZM3.72787 49.6978H2.25634V51.1693H3.72787V49.6978ZM10.4969 49.6978V51.1693H11.9684V49.6978H10.4969ZM10.4969 28.4096L11.5058 27.3384L9.02538 25.0024V28.4096H10.4969ZM34.9243 51.4145L33.9154 52.4858L36.3958 54.8217V51.4145H34.9243ZM34.9243 15.3621H36.3958V13.8905H34.9243V15.3621ZM26.6837 15.3621V36.6502H29.6268V15.3621H26.6837ZM29.1641 35.5789L4.73674 12.574L2.719 14.7165L27.1464 37.7214L29.1641 35.5789ZM2.25634 13.6453V49.6978H5.1994V13.6453H2.25634ZM3.72787 51.1693H10.4969V48.2262H3.72787V51.1693ZM11.9684 49.6978V28.4096H9.02538V49.6978H11.9684ZM9.48804 29.4809L33.9154 52.4858L35.9332 50.3433L11.5058 27.3384L9.48804 29.4809ZM36.3958 51.4145V15.3621H33.4528V51.4145H36.3958ZM34.9243 13.8905H28.1553V16.8336H34.9243V13.8905ZM46.8969 49.6978H45.4254V51.1693H46.8969V49.6978ZM64.2119 49.6978V51.1693H65.6835V49.6978H64.2119ZM64.2119 43.7626H65.6835V42.2911H64.2119V43.7626ZM46.8969 43.7626V42.2911H45.4254V43.7626H46.8969ZM46.8969 21.2972H45.4254V22.7688H46.8969V21.2972ZM64.2119 21.2972V22.7688H65.6835V21.2972H64.2119ZM64.2119 15.3621H65.6835V13.8905H64.2119V15.3621ZM46.8969 15.3621V13.8905H45.4254V15.3621H46.8969ZM46.8969 34.3939H45.4254V35.8654H46.8969V34.3939ZM63.2309 34.3939V35.8654H64.7024V34.3939H63.2309ZM63.2309 28.5568H64.7024V27.0853H63.2309V28.5568ZM46.8969 28.5568V27.0853H45.4254V28.5568H46.8969ZM42.3843 15.3621V13.8905H40.9127V15.3621H42.3843ZM42.3843 49.6978H40.9127V51.1693H42.3843V49.6978ZM49.1533 49.6978V51.1693H50.6248V49.6978H49.1533ZM49.1533 15.3621H50.6248V13.8905H49.1533V15.3621ZM46.8969 51.1693H64.2119V48.2262H46.8969V51.1693ZM65.6835 49.6978V43.7626H62.7404V49.6978H65.6835ZM64.2119 42.2911H46.8969V45.2341H64.2119V42.2911ZM45.4254 43.7626V49.6978H48.3685V43.7626H45.4254ZM46.8969 22.7688H64.2119V19.8257H46.8969V22.7688ZM65.6835 21.2972V15.3621H62.7404V21.2972H65.6835ZM64.2119 13.8905H46.8969V16.8336H64.2119V13.8905ZM45.4254 15.3621V21.2972H48.3685V15.3621H45.4254ZM46.8969 35.8654H63.2309V32.9223H46.8969V35.8654ZM64.7024 34.3939V28.5568H61.7594V34.3939H64.7024ZM63.2309 27.0853H46.8969V30.0283H63.2309V27.0853ZM45.4254 28.5568V34.3939H48.3685V28.5568H45.4254ZM40.9127 15.3621V49.6978H43.8558V15.3621H40.9127ZM42.3843 51.1693H49.1533V48.2262H42.3843V51.1693ZM50.6248 49.6978V15.3621H47.6818V49.6978H50.6248ZM49.1533 13.8905H42.3843V16.8336H49.1533V13.8905ZM107.698 26.5947L106.451 25.8126L106.446 25.8215L106.44 25.8304L107.698 26.5947ZM111.769 22.7688L112.458 24.0693L112.468 24.0641L112.477 24.0587L111.769 22.7688ZM121.579 22.033L121.114 23.429L121.114 23.429L121.579 22.033ZM125.013 23.7498L124.161 24.9498L124.17 24.9562L124.179 24.9624L125.013 23.7498ZM127.711 26.1042L126.609 27.0792L129.182 29.9886V26.1042H127.711ZM127.711 18.207H129.182V17.4946L128.623 17.0527L127.711 18.207ZM123.1 15.6073L122.577 16.9829L122.586 16.9863L123.1 15.6073ZM109.562 15.9507L109.043 14.5737L109.036 14.5762L109.562 15.9507ZM103.725 19.6295L102.705 18.5684L102.7 18.5734L102.695 18.5785L103.725 19.6295ZM99.8988 25.3194L98.541 24.752L98.5369 24.7623L99.8988 25.3194ZM99.8988 39.7895L98.5339 40.3395L98.5389 40.3519L98.5442 40.3642L99.8988 39.7895ZM103.725 45.4303L102.695 46.4813L102.7 46.4864L102.705 46.4914L103.725 45.4303ZM109.562 49.1091L109.036 50.4836L109.043 50.4862L109.562 49.1091ZM123.1 49.4525L122.586 48.0735L122.577 48.0769L123.1 49.4525ZM127.711 46.8528L128.623 48.0071L129.182 47.5652V46.8528H127.711ZM127.711 38.9556H129.182V35.0712L126.609 37.9806L127.711 38.9556ZM125.013 41.31L124.179 40.0974L124.17 40.1036L124.161 40.11L125.013 41.31ZM121.579 43.0268L121.114 41.6308L121.114 41.6308L121.579 43.0268ZM111.769 42.3401L111.061 43.63L111.071 43.6354L111.081 43.6406L111.769 42.3401ZM107.698 38.4651L106.434 39.2186L106.443 39.233L106.451 39.2472L107.698 38.4651ZM107.649 32.5299C107.649 30.4632 108.104 28.7592 108.955 27.3591L106.44 25.8304C105.264 27.7657 104.706 30.0185 104.706 32.5299H107.649ZM108.944 27.3768C109.86 25.918 111.028 24.826 112.458 24.0693L111.081 21.4682C109.175 22.4774 107.629 23.936 106.451 25.8126L108.944 27.3768ZM112.477 24.0587C113.921 23.266 115.491 22.8669 117.214 22.8669V19.9238C115.012 19.9238 112.953 20.4403 111.061 21.4789L112.477 24.0587ZM117.214 22.8669C118.724 22.8669 120.017 23.0634 121.114 23.429L122.045 20.637C120.591 20.1524 118.974 19.9238 117.214 19.9238V22.8669ZM121.114 23.429C122.263 23.8119 123.275 24.321 124.161 24.9498L125.865 22.5497C124.723 21.7398 123.447 21.1043 122.045 20.637L121.114 23.429ZM124.179 24.9624C125.138 25.6218 125.945 26.3288 126.609 27.0792L128.813 25.1292C127.973 24.1793 126.98 23.3166 125.847 22.5372L124.179 24.9624ZM129.182 26.1042V18.207H126.239V26.1042H129.182ZM128.623 17.0527C127.098 15.8464 125.426 14.9037 123.614 14.2284L122.586 16.9863C124.109 17.5536 125.511 18.344 126.798 19.3613L128.623 17.0527ZM123.623 14.2318C121.765 13.5257 119.495 13.2038 116.87 13.2038V16.1469C119.282 16.1469 121.165 16.4463 122.577 16.9829L123.623 14.2318ZM116.87 13.2038C114.092 13.2038 111.479 13.6558 109.043 14.5737L110.081 17.3277C112.158 16.5451 114.417 16.1469 116.87 16.1469V13.2038ZM109.036 14.5762C106.634 15.4946 104.519 16.8255 102.705 18.5684L104.744 20.6906C106.266 19.2288 108.042 18.1072 110.087 17.3252L109.036 14.5762ZM102.695 18.5785C100.914 20.3237 99.5297 22.3865 98.5411 24.752L101.257 25.8868C102.099 23.8705 103.265 22.14 104.755 20.6805L102.695 18.5785ZM98.5369 24.7623C97.5724 27.1198 97.1029 29.7159 97.1029 32.5299H100.046C100.046 30.0464 100.459 27.8356 101.261 25.8766L98.5369 24.7623ZM97.1029 32.5299C97.1029 35.3443 97.5725 37.9537 98.5339 40.3395L101.264 39.2394C100.459 37.2433 100.046 35.013 100.046 32.5299H97.1029ZM98.5442 40.3642C99.5337 42.6966 100.918 44.7399 102.695 46.4813L104.755 44.3793C103.262 42.9161 102.095 41.1988 101.253 39.2148L98.5442 40.3642ZM102.705 46.4914C104.519 48.2343 106.634 49.5652 109.036 50.4836L110.087 47.7347C108.042 46.9527 106.266 45.831 104.744 44.3692L102.705 46.4914ZM109.043 50.4862C111.479 51.404 114.092 51.856 116.87 51.856V48.9129C114.417 48.9129 112.158 48.5147 110.081 47.7321L109.043 50.4862ZM116.87 51.856C119.495 51.856 121.765 51.5341 123.623 50.8281L122.577 48.0769C121.165 48.6135 119.282 48.9129 116.87 48.9129V51.856ZM123.614 50.8314C125.426 50.1561 127.098 49.2135 128.623 48.0071L126.798 45.6985C125.511 46.7158 124.109 47.5062 122.586 48.0736L123.614 50.8314ZM129.182 46.8528V38.9556H126.239V46.8528H129.182ZM126.609 37.9806C125.945 38.7311 125.138 39.4381 124.179 40.0974L125.847 42.5226C126.98 41.7432 127.973 40.8805 128.813 39.9306L126.609 37.9806ZM124.161 40.11C123.275 40.7388 122.263 41.2479 121.114 41.6308L122.045 44.4228C123.447 43.9555 124.723 43.3201 125.865 42.5101L124.161 40.11ZM121.114 41.6308C120.017 41.9964 118.724 42.193 117.214 42.193V45.136C118.974 45.136 120.591 44.9074 122.045 44.4228L121.114 41.6308ZM117.214 42.193C115.482 42.193 113.905 41.8057 112.458 41.0396L111.081 43.6406C112.969 44.6404 115.022 45.136 117.214 45.136V42.193ZM112.477 41.0502C111.037 40.2595 109.862 39.1461 108.944 37.683L106.451 39.2472C107.626 41.1196 109.166 42.5894 111.061 43.63L112.477 41.0502ZM108.962 37.7116C108.102 36.2694 107.649 34.5588 107.649 32.5299H104.706C104.706 35.0137 105.266 37.2599 106.434 39.2186L108.962 37.7116ZM141.508 26.6928L142.804 27.3905L142.804 27.3905L141.508 26.6928ZM145.285 22.6707L146.054 23.9257L146.054 23.9257L145.285 22.6707ZM156.518 22.6707L155.749 23.9257L155.749 23.9257L156.518 22.6707ZM160.246 26.6928L158.94 27.3709L158.94 27.371L160.246 26.6928ZM160.197 38.367L158.901 37.6693L158.896 37.6791L158.891 37.6889L160.197 38.367ZM156.469 42.3892L157.237 43.6442L157.237 43.6442L156.469 42.3892ZM145.285 42.3892L146.054 41.1342L146.054 41.1342L145.285 42.3892ZM141.508 38.367L140.213 39.0646L140.213 39.0646L141.508 38.367ZM134.052 39.7404L132.685 40.2835L132.688 40.2904L134.052 39.7404ZM137.829 45.4794L136.789 46.5199L136.789 46.5199L137.829 45.4794ZM143.568 49.3053L143.001 50.6631L143.013 50.6682L143.025 50.673L143.568 49.3053ZM158.137 49.3053L158.687 50.6703L158.697 50.666L158.137 49.3053ZM163.875 45.4794L162.835 44.4388L162.83 44.4441L162.824 44.4494L163.875 45.4794ZM167.652 39.7404L166.292 39.1801L166.288 39.1904L167.652 39.7404ZM167.652 25.3685L166.288 25.9185L166.293 25.9309L166.298 25.9432L167.652 25.3685ZM163.826 19.6786L162.796 20.7295L162.802 20.7346L162.807 20.7397L163.826 19.6786ZM158.087 15.9997L157.537 17.3646L157.546 17.3682L157.555 17.3716L158.087 15.9997ZM143.666 15.9997L144.199 17.3716L144.21 17.3674L143.666 15.9997ZM137.928 19.6786L136.898 18.6276L136.898 18.6276L137.928 19.6786ZM134.102 25.3685L135.456 25.9432L135.459 25.9359L134.102 25.3685ZM141.606 32.5299C141.606 30.5493 142.018 28.8491 142.804 27.3905L140.213 25.9952C139.167 27.9374 138.663 30.1286 138.663 32.5299H141.606ZM142.804 27.3905C143.6 25.9125 144.68 24.7669 146.054 23.9257L144.517 21.4157C142.686 22.5365 141.248 24.0723 140.213 25.9952L142.804 27.3905ZM146.054 23.9257C147.395 23.1042 148.986 22.6707 150.877 22.6707V19.7276C148.517 19.7276 146.38 20.2751 144.517 21.4157L146.054 23.9257ZM150.877 22.6707C152.805 22.6707 154.411 23.1063 155.749 23.9257L157.286 21.4157C155.42 20.273 153.265 19.7276 150.877 19.7276V22.6707ZM155.749 23.9257C157.119 24.764 158.178 25.9032 158.94 27.3709L161.552 26.0147C160.548 24.0816 159.122 22.5394 157.286 21.4157L155.749 23.9257ZM158.94 27.371C159.699 28.8336 160.099 30.5409 160.099 32.5299H163.042C163.042 30.137 162.558 27.953 161.552 26.0147L158.94 27.371ZM160.099 32.5299C160.099 34.5105 159.686 36.2107 158.901 37.6693L161.492 39.0646C162.538 37.1224 163.042 34.9312 163.042 32.5299H160.099ZM158.891 37.6889C158.129 39.1566 157.07 40.2958 155.7 41.1342L157.237 43.6442C159.073 42.5204 160.499 40.9782 161.503 39.0451L158.891 37.6889ZM155.7 41.1342C154.359 41.9557 152.768 42.3892 150.877 42.3892V45.3322C153.237 45.3322 155.374 44.7847 157.237 43.6442L155.7 41.1342ZM150.877 42.3892C148.986 42.3892 147.395 41.9557 146.054 41.1342L144.517 43.6442C146.38 44.7847 148.517 45.3322 150.877 45.3322V42.3892ZM146.054 41.1342C144.68 40.293 143.6 39.1473 142.804 37.6693L140.213 39.0646C141.248 40.9875 142.686 42.5233 144.517 43.6442L146.054 41.1342ZM142.804 37.6693C142.018 36.2107 141.606 34.5105 141.606 32.5299H138.663C138.663 34.9312 139.167 37.1224 140.213 39.0646L142.804 37.6693ZM131.257 32.5299C131.257 35.2843 131.728 37.8736 132.685 40.2834L135.42 39.1974C134.611 37.1599 134.2 34.9422 134.2 32.5299H131.257ZM132.688 40.2904C133.643 42.661 135.011 44.7418 136.789 46.5199L138.87 44.4388C137.378 42.9469 136.228 41.2017 135.417 39.1904L132.688 40.2904ZM136.789 46.5199C138.563 48.2942 140.638 49.6756 143.001 50.6631L144.136 47.9476C142.117 47.1039 140.366 45.9347 138.87 44.4388L136.789 46.5199ZM143.025 50.673C145.439 51.6315 148.062 52.1013 150.877 52.1013V49.1582C148.394 49.1582 146.145 48.745 144.111 47.9377L143.025 50.673ZM150.877 52.1013C153.691 52.1013 156.301 51.6316 158.687 50.6702L157.586 47.9405C155.59 48.7449 153.36 49.1582 150.877 49.1582V52.1013ZM158.697 50.666C161.095 49.6784 163.178 48.2938 164.926 46.5093L162.824 44.4494C161.369 45.935 159.625 47.101 157.576 47.9447L158.697 50.666ZM164.916 46.5199C166.694 44.7418 168.062 42.661 169.017 40.2904L166.288 39.1904C165.477 41.2017 164.327 42.9469 162.835 44.4388L164.916 46.5199ZM169.013 40.3007C170.007 37.8865 170.497 35.2911 170.497 32.5299H167.554C167.554 34.9355 167.129 37.1471 166.292 39.1801L169.013 40.3007ZM170.497 32.5299C170.497 29.7393 170.008 27.1538 169.007 24.7938L166.298 25.9432C167.128 27.8997 167.554 30.0884 167.554 32.5299H170.497ZM169.017 24.8184C168.058 22.4389 166.667 20.367 164.846 18.6174L162.807 20.7397C164.321 22.1948 165.481 23.9162 166.288 25.9185L169.017 24.8184ZM164.856 18.6276C163.075 16.8819 160.992 15.5483 158.62 14.6279L157.555 17.3716C159.565 18.1516 161.308 19.2705 162.796 20.7295L164.856 18.6276ZM158.637 14.6349C156.254 13.6743 153.661 13.2038 150.877 13.2038V16.1469C153.325 16.1469 155.539 16.5593 157.537 17.3646L158.637 14.6349ZM150.877 13.2038C148.123 13.2038 145.533 13.6752 143.123 14.6321L144.21 17.3674C146.247 16.5584 148.465 16.1469 150.877 16.1469V13.2038ZM143.134 14.6279C140.762 15.5483 138.679 16.8819 136.898 18.6276L138.957 20.7295C140.446 19.2705 142.189 18.1516 144.199 17.3716L143.134 14.6279ZM136.898 18.6276C135.117 20.3727 133.732 22.4355 132.744 24.8011L135.459 25.9359C136.302 23.9195 137.468 22.1891 138.957 20.7295L136.898 18.6276ZM132.747 24.7938C131.746 27.1538 131.257 29.7393 131.257 32.5299H134.2C134.2 30.0884 134.626 27.8997 135.456 25.9432L132.747 24.7938Z" fill="url(#paint0_linear_2383_378)"/>
<g filter="url(#filter1_i_2383_378)">
<path d="M69.0366 33.1253C69.5893 32.031 78.8301 15.3292 78.8301 15.3292C79.0939 14.5396 79.8046 14.2246 80.4624 14.2246H87.7531C88.9501 14.2246 87.862 15.5746 87.862 15.5746L80.136 27.2093H91.7794C92.9883 27.2093 94.2822 27.1114 93.8469 27.9705C93.4116 28.8297 76.4441 49.6269 74.4692 51.5748C72.5187 53.4987 72.7363 51.9032 72.9855 51.0505L81.9858 34.6115H71.1041C68.166 34.6115 68.4839 34.2196 69.0366 33.1253Z" fill="#D8DDDF"/>
</g>
<path d="M4.99536 2.87972V5.19885L2.15237 2.6737V7H3.10592V4.68087L5.9548 7.20601V2.87972H4.99536ZM33.7052 7H35.783V6.18183H33.7052V7ZM33.7052 3.69789H35.783V2.87972H33.7052V3.69789ZM33.7052 5.23416H35.6653V4.43365H33.7052V5.23416ZM33.046 2.87972V7H33.9995V2.87972H33.046ZM90.6058 5.55202L89.9112 6.05234C90.0054 6.24854 90.1369 6.42905 90.3056 6.59386C90.4743 6.75867 90.6725 6.89013 90.9001 6.98823C91.1316 7.08241 91.3808 7.12949 91.6476 7.12949C91.8399 7.12949 92.0263 7.10006 92.2068 7.0412C92.3913 6.98627 92.5541 6.90386 92.6954 6.79399C92.8406 6.68411 92.9544 6.54873 93.0368 6.38784C93.1231 6.22303 93.1663 6.03664 93.1663 5.82866C93.1663 5.656 93.1388 5.50296 93.0839 5.36955C93.0289 5.23613 92.9524 5.1184 92.8543 5.01638C92.7601 4.91435 92.6502 4.82802 92.5247 4.75739C92.3991 4.68283 92.2637 4.61808 92.1185 4.56315C91.9263 4.49644 91.7614 4.43365 91.6241 4.37479C91.4907 4.31593 91.3867 4.25118 91.3121 4.18055C91.2415 4.10992 91.2062 4.02751 91.2062 3.93333C91.2062 3.84308 91.2435 3.76852 91.318 3.70966C91.3926 3.64688 91.5005 3.61548 91.6418 3.61548C91.7477 3.61548 91.8458 3.63707 91.9361 3.68023C92.0302 3.71947 92.1146 3.77637 92.1892 3.85093C92.2676 3.92156 92.3363 4.00593 92.3952 4.10403L93.1545 3.68023C93.0839 3.53896 92.9818 3.39966 92.8484 3.26232C92.715 3.12497 92.5463 3.01117 92.3422 2.92092C92.1421 2.83067 91.9047 2.78554 91.63 2.78554C91.3631 2.78554 91.1199 2.83263 90.9001 2.92681C90.6843 3.01706 90.5116 3.15048 90.3821 3.32706C90.2566 3.50365 90.1938 3.71358 90.1938 3.95688C90.1938 4.16093 90.231 4.33555 90.3056 4.48074C90.3802 4.62201 90.4743 4.74366 90.5881 4.84568C90.7019 4.94378 90.8216 5.02423 90.9472 5.08701C91.0767 5.1498 91.1905 5.19885 91.2886 5.23416C91.4887 5.30872 91.6496 5.37543 91.7712 5.43429C91.8929 5.49315 91.9812 5.55594 92.0361 5.62265C92.0911 5.68543 92.1185 5.7698 92.1185 5.87575C92.1185 6.00132 92.0714 6.10139 91.9773 6.17594C91.8831 6.24658 91.7634 6.28189 91.6182 6.28189C91.4809 6.28189 91.3494 6.25246 91.2238 6.1936C91.1022 6.13474 90.9884 6.05037 90.8824 5.9405C90.7804 5.83062 90.6882 5.70113 90.6058 5.55202ZM114.861 4.93986C114.861 4.68479 114.917 4.46701 115.031 4.2865C115.145 4.10599 115.294 3.96865 115.479 3.87447C115.667 3.78029 115.873 3.73321 116.097 3.73321C116.293 3.73321 116.466 3.75871 116.615 3.80972C116.764 3.85681 116.897 3.92352 117.015 4.00985C117.133 4.09226 117.237 4.18055 117.327 4.27473V3.20345C117.162 3.07396 116.982 2.97193 116.785 2.89738C116.589 2.82282 116.34 2.78554 116.038 2.78554C115.708 2.78554 115.404 2.83655 115.125 2.93858C114.847 3.04061 114.607 3.18776 114.407 3.38004C114.207 3.57232 114.052 3.79991 113.942 4.06283C113.832 4.32574 113.778 4.61808 113.778 4.93986C113.778 5.26163 113.832 5.55398 113.942 5.81689C114.052 6.0798 114.207 6.3074 114.407 6.49968C114.607 6.69196 114.847 6.83911 115.125 6.94114C115.404 7.04316 115.708 7.09418 116.038 7.09418C116.34 7.09418 116.589 7.0569 116.785 6.98234C116.982 6.90778 117.162 6.80576 117.327 6.67626V5.60499C117.237 5.69917 117.133 5.78746 117.015 5.86987C116.897 5.95227 116.764 6.01898 116.615 6.06999C116.466 6.12101 116.293 6.14651 116.097 6.14651C115.873 6.14651 115.667 6.09942 115.479 6.00525C115.294 5.91107 115.145 5.77373 115.031 5.59322C114.917 5.40879 114.861 5.191 114.861 4.93986ZM118.782 4.93986C118.782 4.69657 118.829 4.4827 118.923 4.29827C119.021 4.10992 119.156 3.96276 119.329 3.85681C119.506 3.75086 119.712 3.69789 119.947 3.69789C120.187 3.69789 120.393 3.75086 120.565 3.85681C120.738 3.96276 120.871 4.10992 120.965 4.29827C121.06 4.4827 121.107 4.69657 121.107 4.93986C121.107 5.18315 121.058 5.39898 120.96 5.58733C120.865 5.77176 120.73 5.91695 120.553 6.0229C120.381 6.12885 120.179 6.18183 119.947 6.18183C119.712 6.18183 119.506 6.12885 119.329 6.0229C119.156 5.91695 119.021 5.77176 118.923 5.58733C118.829 5.39898 118.782 5.18315 118.782 4.93986ZM117.728 4.93986C117.728 5.25771 117.781 5.55005 117.887 5.81689C117.997 6.08373 118.15 6.31525 118.346 6.51145C118.546 6.70766 118.782 6.8607 119.052 6.97057C119.323 7.07652 119.621 7.12949 119.947 7.12949C120.269 7.12949 120.565 7.07652 120.836 6.97057C121.107 6.8607 121.34 6.70766 121.536 6.51145C121.737 6.31525 121.89 6.08373 121.996 5.81689C122.105 5.55005 122.16 5.25771 122.16 4.93986C122.16 4.62201 122.105 4.33163 121.996 4.06871C121.886 3.8058 121.731 3.5782 121.531 3.38592C121.33 3.19364 121.095 3.04649 120.824 2.94447C120.557 2.83852 120.265 2.78554 119.947 2.78554C119.633 2.78554 119.341 2.83852 119.07 2.94447C118.799 3.04649 118.564 3.19364 118.364 3.38592C118.164 3.5782 118.007 3.8058 117.893 4.06871C117.783 4.33163 117.728 4.62201 117.728 4.93986Z" fill="url(#paint1_linear_2383_378)"/>
<path d="M7.29651 6.20537H9.47438L9.40963 5.44607H7.36715L7.29651 6.20537ZM8.37367 4.39245L8.9564 5.7286L8.92108 5.9817L9.41552 7H10.5457L8.37367 2.62073L6.20758 7H7.33183L7.84392 5.9405L7.79683 5.72271L8.37367 4.39245ZM9.97493 3.76852H11.1051V7H12.0998V3.76852H13.2358V2.87972H9.97493V3.76852ZM13.5098 2.87972V7H14.5222V2.87972H13.5098ZM16.0368 4.93986C16.0368 4.69657 16.0839 4.4827 16.1781 4.29827C16.2762 4.10992 16.4115 3.96276 16.5842 3.85681C16.7608 3.75086 16.9668 3.69789 17.2022 3.69789C17.4416 3.69789 17.6476 3.75086 17.8203 3.85681C17.993 3.96276 18.1264 4.10992 18.2205 4.29827C18.3147 4.4827 18.3618 4.69657 18.3618 4.93986C18.3618 5.18315 18.3128 5.39898 18.2147 5.58733C18.1205 5.77176 17.9851 5.91695 17.8085 6.0229C17.6359 6.12885 17.4338 6.18183 17.2022 6.18183C16.9668 6.18183 16.7608 6.12885 16.5842 6.0229C16.4115 5.91695 16.2762 5.77176 16.1781 5.58733C16.0839 5.39898 16.0368 5.18315 16.0368 4.93986ZM14.9832 4.93986C14.9832 5.25771 15.0362 5.55005 15.1421 5.81689C15.252 6.08373 15.405 6.31525 15.6012 6.51145C15.8014 6.70766 16.0368 6.8607 16.3076 6.97057C16.5783 7.07652 16.8766 7.12949 17.2022 7.12949C17.524 7.12949 17.8203 7.07652 18.0911 6.97057C18.3618 6.8607 18.5953 6.70766 18.7915 6.51145C18.9916 6.31525 19.1447 6.08373 19.2506 5.81689C19.3605 5.55005 19.4154 5.25771 19.4154 4.93986C19.4154 4.62201 19.3605 4.33163 19.2506 4.06871C19.1407 3.8058 18.9857 3.5782 18.7856 3.38592C18.5855 3.19364 18.35 3.04649 18.0793 2.94447C17.8124 2.83852 17.5201 2.78554 17.2022 2.78554C16.8883 2.78554 16.596 2.83852 16.3252 2.94447C16.0545 3.04649 15.819 3.19364 15.6189 3.38592C15.4188 3.5782 15.2618 3.8058 15.148 4.06871C15.0381 4.33163 14.9832 4.62201 14.9832 4.93986ZM22.7192 2.87972V5.19885L19.8762 2.6737V7H20.8298V4.68087L23.6787 7.20601V2.87972H22.7192ZM25.0204 6.20537H27.1983L27.1335 5.44607H25.091L25.0204 6.20537ZM26.0976 4.39245L26.6803 5.7286L26.645 5.9817L27.1394 7H28.2695L26.0976 2.62073L23.9315 7H25.0557L25.5678 5.9405L25.5207 5.72271L26.0976 4.39245ZM28.5247 2.87972V7H31.1735V6.14651H29.5195V2.87972H28.5247ZM36.416 2.87972V7H39.0648V6.14651H37.4108V2.87972H36.416ZM40.0084 7H42.0862V6.18183H40.0084V7ZM40.0084 3.69789H42.0862V2.87972H40.0084V3.69789ZM40.0084 5.23416H41.9685V4.43365H40.0084V5.23416ZM39.3492 2.87972V7H40.3027V2.87972H39.3492ZM43.5668 4.93986C43.5668 4.68479 43.6237 4.46701 43.7375 4.2865C43.8513 4.10599 44.0004 3.96865 44.1848 3.87447C44.3732 3.78029 44.5792 3.73321 44.8029 3.73321C44.9991 3.73321 45.1718 3.75871 45.3209 3.80972C45.47 3.85681 45.6034 3.92352 45.7211 4.00985C45.8388 4.09226 45.9428 4.18055 46.0331 4.27473V3.20345C45.8683 3.07396 45.6878 2.97193 45.4916 2.89738C45.2954 2.82282 45.0462 2.78554 44.744 2.78554C44.4144 2.78554 44.1103 2.83655 43.8317 2.93858C43.5531 3.04061 43.3137 3.18776 43.1136 3.38004C42.9134 3.57232 42.7584 3.79991 42.6486 4.06283C42.5387 4.32574 42.4838 4.61808 42.4838 4.93986C42.4838 5.26163 42.5387 5.55398 42.6486 5.81689C42.7584 6.0798 42.9134 6.3074 43.1136 6.49968C43.3137 6.69196 43.5531 6.83911 43.8317 6.94114C44.1103 7.04316 44.4144 7.09418 44.744 7.09418C45.0462 7.09418 45.2954 7.0569 45.4916 6.98234C45.6878 6.90778 45.8683 6.80576 46.0331 6.67626V5.60499C45.9428 5.69917 45.8388 5.78746 45.7211 5.86987C45.6034 5.95227 45.47 6.01898 45.3209 6.06999C45.1718 6.12101 44.9991 6.14651 44.8029 6.14651C44.5792 6.14651 44.3732 6.09942 44.1848 6.00525C44.0004 5.91107 43.8513 5.77373 43.7375 5.59322C43.6237 5.40879 43.5668 5.191 43.5668 4.93986ZM46.0796 3.76852H47.2097V7H48.2045V3.76852H49.3405V2.87972H46.0796V3.76852ZM50.6445 5.1341L51.7982 7H52.9637L51.6746 5.1341H50.6445ZM49.6145 2.87972V7H50.6092V2.87972H49.6145ZM50.2384 3.72143H51.0448C51.1782 3.72143 51.292 3.74302 51.3862 3.78618C51.4843 3.82935 51.5589 3.89213 51.6099 3.97454C51.6609 4.05302 51.6864 4.14916 51.6864 4.26296C51.6864 4.37675 51.6609 4.47486 51.6099 4.55726C51.5589 4.63574 51.4843 4.69657 51.3862 4.73973C51.292 4.77897 51.1782 4.79859 51.0448 4.79859H50.2384V5.56967H51.1154C51.4686 5.56967 51.7629 5.51277 51.9983 5.39898C52.2338 5.28518 52.4123 5.12821 52.534 4.92809C52.6556 4.72403 52.7165 4.49055 52.7165 4.22764C52.7165 3.9608 52.6556 3.72732 52.534 3.52719C52.4123 3.32314 52.2338 3.16421 51.9983 3.05042C51.7629 2.93662 51.4686 2.87972 51.1154 2.87972H50.2384V3.72143ZM53.2489 2.87972V7H54.2613V2.87972H53.2489ZM55.8053 4.93986C55.8053 4.68479 55.8622 4.46701 55.976 4.2865C56.0898 4.10599 56.2389 3.96865 56.4234 3.87447C56.6117 3.78029 56.8177 3.73321 57.0414 3.73321C57.2376 3.73321 57.4103 3.75871 57.5594 3.80972C57.7085 3.85681 57.8419 3.92352 57.9597 4.00985C58.0774 4.09226 58.1814 4.18055 58.2716 4.27473V3.20345C58.1068 3.07396 57.9263 2.97193 57.7301 2.89738C57.5339 2.82282 57.2847 2.78554 56.9826 2.78554C56.6529 2.78554 56.3488 2.83655 56.0702 2.93858C55.7916 3.04061 55.5522 3.18776 55.3521 3.38004C55.152 3.57232 54.997 3.79991 54.8871 4.06283C54.7772 4.32574 54.7223 4.61808 54.7223 4.93986C54.7223 5.26163 54.7772 5.55398 54.8871 5.81689C54.997 6.0798 55.152 6.3074 55.3521 6.49968C55.5522 6.69196 55.7916 6.83911 56.0702 6.94114C56.3488 7.04316 56.6529 7.09418 56.9826 7.09418C57.2847 7.09418 57.5339 7.0569 57.7301 6.98234C57.9263 6.90778 58.1068 6.80576 58.2716 6.67626V5.60499C58.1814 5.69917 58.0774 5.78746 57.9597 5.86987C57.8419 5.95227 57.7085 6.01898 57.5594 6.06999C57.4103 6.12101 57.2376 6.14651 57.0414 6.14651C56.8177 6.14651 56.6117 6.09942 56.4234 6.00525C56.2389 5.91107 56.0898 5.77373 55.976 5.59322C55.8622 5.40879 55.8053 5.191 55.8053 4.93986ZM59.4696 6.20537H61.6474L61.5827 5.44607H59.5402L59.4696 6.20537ZM60.5467 4.39245L61.1295 5.7286L61.0941 5.9817L61.5886 7H62.7187L60.5467 2.62073L58.3806 7H59.5049L60.017 5.9405L59.9699 5.72271L60.5467 4.39245ZM62.9739 2.87972V7H65.6226V6.14651H63.9686V2.87972H62.9739ZM67.4952 2.87972V7H68.4899V2.87972H67.4952ZM68.1191 3.69789H68.9255C69.1256 3.69789 69.2826 3.74302 69.3964 3.83327C69.5102 3.92352 69.5671 4.05498 69.5671 4.22764C69.5671 4.39637 69.5102 4.52587 69.3964 4.61612C69.2826 4.70638 69.1256 4.7515 68.9255 4.7515H68.1191V5.56967H68.9255C69.2747 5.56967 69.5671 5.5167 69.8025 5.41075C70.0419 5.30087 70.2224 5.14587 70.344 4.94575C70.4657 4.74169 70.5265 4.50232 70.5265 4.22764C70.5265 3.94511 70.4657 3.70377 70.344 3.50365C70.2224 3.30352 70.0419 3.15048 69.8025 3.04453C69.5671 2.93466 69.2747 2.87972 68.9255 2.87972H68.1191V3.69789ZM71.8041 4.93986C71.8041 4.69657 71.8512 4.4827 71.9453 4.29827C72.0434 4.10992 72.1788 3.96276 72.3515 3.85681C72.5281 3.75086 72.7341 3.69789 72.9695 3.69789C73.2089 3.69789 73.4149 3.75086 73.5876 3.85681C73.7602 3.96276 73.8936 4.10992 73.9878 4.29827C74.082 4.4827 74.1291 4.69657 74.1291 4.93986C74.1291 5.18315 74.08 5.39898 73.9819 5.58733C73.8878 5.77176 73.7524 5.91695 73.5758 6.0229C73.4031 6.12885 73.201 6.18183 72.9695 6.18183C72.7341 6.18183 72.5281 6.12885 72.3515 6.0229C72.1788 5.91695 72.0434 5.77176 71.9453 5.58733C71.8512 5.39898 71.8041 5.18315 71.8041 4.93986ZM70.7505 4.93986C70.7505 5.25771 70.8034 5.55005 70.9094 5.81689C71.0193 6.08373 71.1723 6.31525 71.3685 6.51145C71.5686 6.70766 71.8041 6.8607 72.0748 6.97057C72.3456 7.07652 72.6438 7.12949 72.9695 7.12949C73.2913 7.12949 73.5876 7.07652 73.8583 6.97057C74.1291 6.8607 74.3626 6.70766 74.5588 6.51145C74.7589 6.31525 74.9119 6.08373 75.0179 5.81689C75.1278 5.55005 75.1827 5.25771 75.1827 4.93986C75.1827 4.62201 75.1278 4.33163 75.0179 4.06871C74.908 3.8058 74.753 3.5782 74.5529 3.38592C74.3528 3.19364 74.1173 3.04649 73.8466 2.94447C73.5797 2.83852 73.2874 2.78554 72.9695 2.78554C72.6556 2.78554 72.3633 2.83852 72.0925 2.94447C71.8217 3.04649 71.5863 3.19364 71.3862 3.38592C71.186 3.5782 71.0291 3.8058 70.9153 4.06871C70.8054 4.33163 70.7505 4.62201 70.7505 4.93986ZM79.2913 5.22828L78.1612 2.6737L77.0428 5.22828L76.2305 2.87972H75.0533L76.8368 7.24133L78.1612 4.75739L79.4914 7.24133L81.2749 2.87972H80.0918L79.2913 5.22828ZM82.2192 7H84.297V6.18183H82.2192V7ZM82.2192 3.69789H84.297V2.87972H82.2192V3.69789ZM82.2192 5.23416H84.1793V4.43365H82.2192V5.23416ZM81.56 2.87972V7H82.5135V2.87972H81.56ZM85.9601 5.1341L87.1138 7H88.2792L86.9902 5.1341H85.9601ZM84.93 2.87972V7H85.9248V2.87972H84.93ZM85.5539 3.72143H86.3603C86.4938 3.72143 86.6076 3.74302 86.7017 3.78618C86.7998 3.82935 86.8744 3.89213 86.9254 3.97454C86.9764 4.05302 87.0019 4.14916 87.0019 4.26296C87.0019 4.37675 86.9764 4.47486 86.9254 4.55726C86.8744 4.63574 86.7998 4.69657 86.7017 4.73973C86.6076 4.77897 86.4938 4.79859 86.3603 4.79859H85.5539V5.56967H86.431C86.7841 5.56967 87.0785 5.51277 87.3139 5.39898C87.5493 5.28518 87.7279 5.12821 87.8495 4.92809C87.9712 4.72403 88.032 4.49055 88.032 4.22764C88.032 3.9608 87.9712 3.72732 87.8495 3.52719C87.7279 3.32314 87.5493 3.16421 87.3139 3.05042C87.0785 2.93662 86.7841 2.87972 86.431 2.87972H85.5539V3.72143ZM95.9681 2.87972L95.1617 4.42777L94.3553 2.87972H93.2134L94.6555 5.32834V7H95.6679V5.32246L97.11 2.87972H95.9681ZM97.8172 5.55202L97.1226 6.05234C97.2168 6.24854 97.3483 6.42905 97.517 6.59386C97.6858 6.75867 97.8839 6.89013 98.1115 6.98823C98.343 7.08241 98.5922 7.12949 98.8591 7.12949C99.0513 7.12949 99.2377 7.10006 99.4182 7.0412C99.6027 6.98627 99.7655 6.90386 99.9068 6.79399C100.052 6.68411 100.166 6.54873 100.248 6.38784C100.335 6.22303 100.378 6.03664 100.378 5.82866C100.378 5.656 100.35 5.50296 100.295 5.36955C100.24 5.23613 100.164 5.1184 100.066 5.01638C99.9715 4.91435 99.8617 4.82802 99.7361 4.75739C99.6105 4.68283 99.4751 4.61808 99.3299 4.56315C99.1377 4.49644 98.9729 4.43365 98.8355 4.37479C98.7021 4.31593 98.5981 4.25118 98.5235 4.18055C98.4529 4.10992 98.4176 4.02751 98.4176 3.93333C98.4176 3.84308 98.4549 3.76852 98.5294 3.70966C98.604 3.64688 98.7119 3.61548 98.8532 3.61548C98.9591 3.61548 99.0572 3.63707 99.1475 3.68023C99.2416 3.71947 99.326 3.77637 99.4006 3.85093C99.4791 3.92156 99.5477 4.00593 99.6066 4.10403L100.366 3.68023C100.295 3.53896 100.193 3.39966 100.06 3.26232C99.9264 3.12497 99.7577 3.01117 99.5536 2.92092C99.3535 2.83067 99.1161 2.78554 98.8414 2.78554C98.5746 2.78554 98.3313 2.83263 98.1115 2.92681C97.8957 3.01706 97.723 3.15048 97.5935 3.32706C97.468 3.50365 97.4052 3.71358 97.4052 3.95688C97.4052 4.16093 97.4425 4.33555 97.517 4.48074C97.5916 4.62201 97.6858 4.74366 97.7996 4.84568C97.9133 4.94378 98.033 5.02423 98.1586 5.08701C98.2881 5.1498 98.4019 5.19885 98.5 5.23416C98.7001 5.30872 98.861 5.37543 98.9827 5.43429C99.1043 5.49315 99.1926 5.55594 99.2475 5.62265C99.3025 5.68543 99.3299 5.7698 99.3299 5.87575C99.3299 6.00132 99.2829 6.10139 99.1887 6.17594C99.0945 6.24658 98.9748 6.28189 98.8296 6.28189C98.6923 6.28189 98.5608 6.25246 98.4353 6.1936C98.3136 6.13474 98.1998 6.05037 98.0939 5.9405C97.9918 5.83062 97.8996 5.70113 97.8172 5.55202ZM100.454 3.76852H101.584V7H102.579V3.76852H103.715V2.87972H100.454V3.76852ZM104.648 7H106.726V6.18183H104.648V7ZM104.648 3.69789H106.726V2.87972H104.648V3.69789ZM104.648 5.23416H106.608V4.43365H104.648V5.23416ZM103.989 2.87972V7H104.943V2.87972H103.989ZM108.419 4.89866L109.543 6.6174L110.673 4.89866L110.92 7H111.968L111.303 2.6737L109.543 5.18708L107.789 2.6737L107.124 7H108.171L108.419 4.89866ZM123.681 4.89866L124.805 6.6174L125.935 4.89866L126.182 7H127.23L126.565 2.6737L124.805 5.18708L123.051 2.6737L122.386 7H123.433L123.681 4.89866ZM127.687 2.87972V7H128.682V2.87972H127.687ZM128.311 3.69789H129.117C129.317 3.69789 129.474 3.74302 129.588 3.83327C129.702 3.92352 129.759 4.05498 129.759 4.22764C129.759 4.39637 129.702 4.52587 129.588 4.61612C129.474 4.70638 129.317 4.7515 129.117 4.7515H128.311V5.56967H129.117C129.466 5.56967 129.759 5.5167 129.994 5.41075C130.234 5.30087 130.414 5.14587 130.536 4.94575C130.657 4.74169 130.718 4.50232 130.718 4.22764C130.718 3.94511 130.657 3.70377 130.536 3.50365C130.414 3.30352 130.234 3.15048 129.994 3.04453C129.759 2.93466 129.466 2.87972 129.117 2.87972H128.311V3.69789ZM131.837 7H133.915V6.18183H131.837V7ZM131.837 3.69789H133.915V2.87972H131.837V3.69789ZM131.837 5.23416H133.797V4.43365H131.837V5.23416ZM131.178 2.87972V7H132.131V2.87972H131.178ZM134.136 3.76852H135.266V7H136.261V3.76852H137.397V2.87972H134.136V3.76852ZM137.671 2.87972V7H138.683V2.87972H137.671ZM138.967 3.76852H140.097V7H141.092V3.76852H142.228V2.87972H138.967V3.76852ZM142.502 2.87972V7H143.515V2.87972H142.502ZM145.029 4.93986C145.029 4.69657 145.076 4.4827 145.17 4.29827C145.269 4.10992 145.404 3.96276 145.577 3.85681C145.753 3.75086 145.959 3.69789 146.195 3.69789C146.434 3.69789 146.64 3.75086 146.813 3.85681C146.985 3.96276 147.119 4.10992 147.213 4.29827C147.307 4.4827 147.354 4.69657 147.354 4.93986C147.354 5.18315 147.305 5.39898 147.207 5.58733C147.113 5.77176 146.977 5.91695 146.801 6.0229C146.628 6.12885 146.426 6.18183 146.195 6.18183C145.959 6.18183 145.753 6.12885 145.577 6.0229C145.404 5.91695 145.269 5.77176 145.17 5.58733C145.076 5.39898 145.029 5.18315 145.029 4.93986ZM143.976 4.93986C143.976 5.25771 144.029 5.55005 144.135 5.81689C144.244 6.08373 144.397 6.31525 144.594 6.51145C144.794 6.70766 145.029 6.8607 145.3 6.97057C145.571 7.07652 145.869 7.12949 146.195 7.12949C146.516 7.12949 146.813 7.07652 147.083 6.97057C147.354 6.8607 147.588 6.70766 147.784 6.51145C147.984 6.31525 148.137 6.08373 148.243 5.81689C148.353 5.55005 148.408 5.25771 148.408 4.93986C148.408 4.62201 148.353 4.33163 148.243 4.06871C148.133 3.8058 147.978 3.5782 147.778 3.38592C147.578 3.19364 147.342 3.04649 147.072 2.94447C146.805 2.83852 146.512 2.78554 146.195 2.78554C145.881 2.78554 145.588 2.83852 145.318 2.94447C145.047 3.04649 144.811 3.19364 144.611 3.38592C144.411 3.5782 144.254 3.8058 144.14 4.06871C144.031 4.33163 143.976 4.62201 143.976 4.93986ZM151.712 2.87972V5.19885L148.869 2.6737V7H149.822V4.68087L152.671 7.20601V2.87972H151.712ZM154.636 7H158.126V6.08765H156.478L157.437 5.22828C157.614 5.07524 157.757 4.9065 157.867 4.72207C157.977 4.53372 158.032 4.3277 158.032 4.10403C158.032 3.94707 157.999 3.79207 157.932 3.63903C157.865 3.48599 157.765 3.34668 157.632 3.22111C157.502 3.09162 157.339 2.98959 157.143 2.91504C156.947 2.83655 156.721 2.79731 156.466 2.79731C156.113 2.79731 155.813 2.86991 155.566 3.0151C155.322 3.16029 155.14 3.35453 155.018 3.59782C154.897 3.84112 154.836 4.10992 154.836 4.40422H155.813C155.813 4.25511 155.836 4.12365 155.883 4.00985C155.934 3.89605 156.007 3.80776 156.101 3.74498C156.199 3.68219 156.311 3.6508 156.437 3.6508C156.531 3.6508 156.613 3.6665 156.684 3.69789C156.755 3.72536 156.813 3.7646 156.861 3.81561C156.908 3.8627 156.943 3.91764 156.966 3.98042C156.99 4.04321 157.002 4.10599 157.002 4.16878C157.002 4.27865 156.98 4.38264 156.937 4.48074C156.898 4.57492 156.837 4.67106 156.755 4.76916C156.676 4.86726 156.582 4.97714 156.472 5.09878L154.636 7ZM159.399 4.93986C159.399 4.74758 159.417 4.57296 159.452 4.41599C159.487 4.25511 159.538 4.11973 159.605 4.00985C159.672 3.89605 159.75 3.80972 159.84 3.75086C159.935 3.68808 160.039 3.65669 160.152 3.65669C160.266 3.65669 160.368 3.68808 160.458 3.75086C160.553 3.80972 160.633 3.89605 160.7 4.00985C160.766 4.11973 160.817 4.25511 160.853 4.41599C160.888 4.57296 160.906 4.74758 160.906 4.93986C160.906 5.13214 160.888 5.30872 160.853 5.46961C160.817 5.62657 160.766 5.76195 160.7 5.87575C160.633 5.98563 160.553 6.07196 160.458 6.13474C160.368 6.1936 160.266 6.22303 160.152 6.22303C160.039 6.22303 159.935 6.1936 159.84 6.13474C159.75 6.07196 159.672 5.98563 159.605 5.87575C159.538 5.76195 159.487 5.62657 159.452 5.46961C159.417 5.30872 159.399 5.13214 159.399 4.93986ZM158.439 4.93986C158.439 5.3872 158.51 5.7698 158.651 6.08765C158.797 6.4055 158.999 6.65076 159.258 6.82342C159.517 6.99215 159.815 7.07652 160.152 7.07652C160.505 7.07652 160.81 6.99215 161.065 6.82342C161.32 6.65076 161.516 6.4055 161.653 6.08765C161.795 5.7698 161.865 5.3872 161.865 4.93986C161.865 4.49251 161.795 4.10992 161.653 3.79207C161.516 3.47422 161.32 3.23092 161.065 3.06219C160.81 2.88953 160.505 2.8032 160.152 2.8032C159.815 2.8032 159.517 2.88953 159.258 3.06219C158.999 3.23092 158.797 3.47422 158.651 3.79207C158.51 4.10992 158.439 4.49251 158.439 4.93986ZM162.042 7H165.533V6.08765H163.885L164.844 5.22828C165.021 5.07524 165.164 4.9065 165.274 4.72207C165.384 4.53372 165.439 4.3277 165.439 4.10403C165.439 3.94707 165.405 3.79207 165.339 3.63903C165.272 3.48599 165.172 3.34668 165.038 3.22111C164.909 3.09162 164.746 2.98959 164.55 2.91504C164.354 2.83655 164.128 2.79731 163.873 2.79731C163.52 2.79731 163.22 2.86991 162.972 3.0151C162.729 3.16029 162.547 3.35453 162.425 3.59782C162.303 3.84112 162.243 4.10992 162.243 4.40422H163.22C163.22 4.25511 163.243 4.12365 163.29 4.00985C163.341 3.89605 163.414 3.80776 163.508 3.74498C163.606 3.68219 163.718 3.6508 163.844 3.6508C163.938 3.6508 164.02 3.6665 164.091 3.69789C164.161 3.72536 164.22 3.7646 164.267 3.81561C164.314 3.8627 164.35 3.91764 164.373 3.98042C164.397 4.04321 164.409 4.10599 164.409 4.16878C164.409 4.27865 164.387 4.38264 164.344 4.48074C164.305 4.57492 164.244 4.67106 164.161 4.76916C164.083 4.86726 163.989 4.97714 163.879 5.09878L162.042 7ZM167.23 5.00461C167.555 5.00461 167.85 4.96537 168.112 4.88688C168.375 4.8084 168.583 4.69068 168.736 4.53372C168.893 4.37675 168.972 4.18055 168.972 3.94511C168.972 3.73321 168.915 3.54093 168.801 3.36827C168.691 3.19561 168.528 3.05826 168.313 2.95624C168.097 2.85421 167.834 2.8032 167.524 2.8032C167.233 2.8032 166.978 2.8601 166.759 2.9739C166.539 3.08377 166.368 3.23681 166.247 3.43301C166.129 3.62529 166.07 3.84308 166.07 4.08637H166.982C166.982 3.94118 167.033 3.82346 167.135 3.73321C167.237 3.64295 167.367 3.59782 167.524 3.59782C167.63 3.59782 167.716 3.61548 167.783 3.6508C167.85 3.68219 167.901 3.72928 167.936 3.79207C167.971 3.85485 167.989 3.92548 167.989 4.00397C167.989 4.07852 167.971 4.14916 167.936 4.21587C167.901 4.28258 167.848 4.34144 167.777 4.39245C167.71 4.44346 167.63 4.48467 167.536 4.51606C167.445 4.54353 167.343 4.55726 167.23 4.55726V5.00461ZM167.477 7.09418C167.814 7.09418 168.103 7.04316 168.342 6.94114C168.581 6.83519 168.766 6.69196 168.895 6.51145C169.025 6.32702 169.09 6.11512 169.09 5.87575C169.09 5.66778 169.044 5.48923 168.954 5.34012C168.864 5.191 168.734 5.06935 168.566 4.97518C168.397 4.87707 168.199 4.80644 167.971 4.76328C167.748 4.71619 167.5 4.69264 167.23 4.69264V5.19885C167.379 5.19885 167.508 5.21258 167.618 5.24005C167.728 5.26752 167.818 5.30872 167.889 5.36366C167.963 5.41467 168.018 5.4755 168.054 5.54613C168.089 5.61676 168.107 5.69524 168.107 5.78157C168.107 5.89537 168.081 5.99151 168.03 6.06999C167.979 6.14848 167.908 6.20537 167.818 6.24069C167.732 6.27601 167.63 6.29367 167.512 6.29367C167.402 6.29367 167.296 6.27208 167.194 6.22892C167.096 6.18575 167.018 6.11904 166.959 6.02879C166.9 5.93854 166.871 5.8267 166.871 5.69328H165.893C165.893 5.87379 165.929 6.04841 165.999 6.21715C166.074 6.38588 166.178 6.53696 166.311 6.67038C166.449 6.8038 166.615 6.90778 166.812 6.98234C167.008 7.0569 167.23 7.09418 167.477 7.09418Z" fill="#D8DDDF"/>
<mask id="mask0_2383_378" style="mask-type:alpha" maskUnits="userSpaceOnUse" x="3" y="13" width="167" height="39">
<path d="M28.1553 15.3621V36.6502L3.72787 13.6453V49.6978H10.4969V28.4096L34.9243 51.4145V15.3621H28.1553ZM46.8969 49.6978H64.2119V43.7626H46.8969V49.6978ZM46.8969 21.2972H64.2119V15.3621H46.8969V21.2972ZM46.8969 34.3939H63.2309V28.5568H46.8969V34.3939ZM42.3843 15.3621V49.6978H49.1533V15.3621H42.3843ZM106.177 32.5299C106.177 30.2409 106.684 28.2625 107.698 26.5947C108.744 24.927 110.101 23.6517 111.769 22.7688C113.437 21.8532 115.252 21.3953 117.214 21.3953C118.849 21.3953 120.304 21.6079 121.579 22.033C122.855 22.4581 123.999 23.0304 125.013 23.7498C126.059 24.4692 126.959 25.254 127.711 26.1042V18.207C126.305 17.0952 124.768 16.2286 123.1 15.6073C121.465 14.986 119.388 14.6754 116.87 14.6754C114.254 14.6754 111.818 15.1005 109.562 15.9507C107.338 16.8009 105.393 18.0272 103.725 19.6295C102.09 21.2318 100.814 23.1285 99.8988 25.3194C99.0159 27.4777 98.5744 29.8812 98.5744 32.5299C98.5744 35.1787 99.0159 37.5985 99.8988 39.7895C100.814 41.9477 102.09 43.828 103.725 45.4303C105.393 47.0327 107.338 48.2589 109.562 49.1091C111.818 49.9594 114.254 50.3845 116.87 50.3845C119.388 50.3845 121.465 50.0738 123.1 49.4525C124.768 48.8312 126.305 47.9646 127.711 46.8528V38.9556C126.959 39.8058 126.059 40.5906 125.013 41.31C123.999 42.0295 122.855 42.6017 121.579 43.0268C120.304 43.4519 118.849 43.6645 117.214 43.6645C115.252 43.6645 113.437 43.223 111.769 42.3401C110.101 41.4245 108.744 40.1328 107.698 38.4651C106.684 36.7646 106.177 34.7863 106.177 32.5299ZM140.135 32.5299C140.135 30.339 140.593 28.3933 141.508 26.6928C142.424 24.9924 143.683 23.6517 145.285 22.6707C146.887 21.6896 148.751 21.1991 150.877 21.1991C153.035 21.1991 154.915 21.6896 156.518 22.6707C158.12 23.6517 159.363 24.9924 160.246 26.6928C161.129 28.3933 161.57 30.339 161.57 32.5299C161.57 34.7209 161.112 36.6665 160.197 38.367C159.314 40.0674 158.071 41.4081 156.469 42.3892C154.866 43.3702 153.003 43.8607 150.877 43.8607C148.751 43.8607 146.887 43.3702 145.285 42.3892C143.683 41.4081 142.424 40.0674 141.508 38.367C140.593 36.6665 140.135 34.7209 140.135 32.5299ZM132.728 32.5299C132.728 35.1133 133.17 37.5168 134.052 39.7404C134.935 41.9313 136.194 43.8443 137.829 45.4794C139.464 47.1144 141.377 48.3897 143.568 49.3053C145.792 50.1883 148.228 50.6297 150.877 50.6297C153.526 50.6297 155.946 50.1883 158.137 49.3053C160.36 48.3897 162.273 47.1144 163.875 45.4794C165.511 43.8443 166.769 41.9313 167.652 39.7404C168.568 37.5168 169.026 35.1133 169.026 32.5299C169.026 29.9139 168.568 27.5267 167.652 25.3685C166.769 23.1775 165.494 21.2809 163.826 19.6786C162.191 18.0762 160.278 16.85 158.087 15.9997C155.897 15.1168 153.493 14.6754 150.877 14.6754C148.294 14.6754 145.89 15.1168 143.666 15.9997C141.476 16.85 139.563 18.0762 137.928 19.6786C136.292 21.2809 135.017 23.1775 134.102 25.3685C133.186 27.5267 132.728 29.9139 132.728 32.5299Z" fill="#05C2FC"/>
<path d="M28.1553 15.3621V13.8905H26.6837V15.3621H28.1553ZM28.1553 36.6502L27.1464 37.7214L29.6268 40.0574V36.6502H28.1553ZM3.72787 13.6453L4.73674 12.574L2.25634 10.2381V13.6453H3.72787ZM3.72787 49.6978H2.25634V51.1693H3.72787V49.6978ZM10.4969 49.6978V51.1693H11.9684V49.6978H10.4969ZM10.4969 28.4096L11.5058 27.3384L9.02538 25.0024V28.4096H10.4969ZM34.9243 51.4145L33.9154 52.4858L36.3958 54.8217V51.4145H34.9243ZM34.9243 15.3621H36.3958V13.8905H34.9243V15.3621ZM26.6837 15.3621V36.6502H29.6268V15.3621H26.6837ZM29.1641 35.5789L4.73674 12.574L2.719 14.7165L27.1464 37.7214L29.1641 35.5789ZM2.25634 13.6453V49.6978H5.1994V13.6453H2.25634ZM3.72787 51.1693H10.4969V48.2262H3.72787V51.1693ZM11.9684 49.6978V28.4096H9.02538V49.6978H11.9684ZM9.48804 29.4809L33.9154 52.4858L35.9332 50.3433L11.5058 27.3384L9.48804 29.4809ZM36.3958 51.4145V15.3621H33.4528V51.4145H36.3958ZM34.9243 13.8905H28.1553V16.8336H34.9243V13.8905ZM46.8969 49.6978H45.4254V51.1693H46.8969V49.6978ZM64.2119 49.6978V51.1693H65.6835V49.6978H64.2119ZM64.2119 43.7626H65.6835V42.2911H64.2119V43.7626ZM46.8969 43.7626V42.2911H45.4254V43.7626H46.8969ZM46.8969 21.2972H45.4254V22.7688H46.8969V21.2972ZM64.2119 21.2972V22.7688H65.6835V21.2972H64.2119ZM64.2119 15.3621H65.6835V13.8905H64.2119V15.3621ZM46.8969 15.3621V13.8905H45.4254V15.3621H46.8969ZM46.8969 34.3939H45.4254V35.8654H46.8969V34.3939ZM63.2309 34.3939V35.8654H64.7024V34.3939H63.2309ZM63.2309 28.5568H64.7024V27.0853H63.2309V28.5568ZM46.8969 28.5568V27.0853H45.4254V28.5568H46.8969ZM42.3843 15.3621V13.8905H40.9127V15.3621H42.3843ZM42.3843 49.6978H40.9127V51.1693H42.3843V49.6978ZM49.1533 49.6978V51.1693H50.6248V49.6978H49.1533ZM49.1533 15.3621H50.6248V13.8905H49.1533V15.3621ZM46.8969 51.1693H64.2119V48.2262H46.8969V51.1693ZM65.6835 49.6978V43.7626H62.7404V49.6978H65.6835ZM64.2119 42.2911H46.8969V45.2341H64.2119V42.2911ZM45.4254 43.7626V49.6978H48.3685V43.7626H45.4254ZM46.8969 22.7688H64.2119V19.8257H46.8969V22.7688ZM65.6835 21.2972V15.3621H62.7404V21.2972H65.6835ZM64.2119 13.8905H46.8969V16.8336H64.2119V13.8905ZM45.4254 15.3621V21.2972H48.3685V15.3621H45.4254ZM46.8969 35.8654H63.2309V32.9223H46.8969V35.8654ZM64.7024 34.3939V28.5568H61.7594V34.3939H64.7024ZM63.2309 27.0853H46.8969V30.0283H63.2309V27.0853ZM45.4254 28.5568V34.3939H48.3685V28.5568H45.4254ZM40.9127 15.3621V49.6978H43.8558V15.3621H40.9127ZM42.3843 51.1693H49.1533V48.2262H42.3843V51.1693ZM50.6248 49.6978V15.3621H47.6818V49.6978H50.6248ZM49.1533 13.8905H42.3843V16.8336H49.1533V13.8905ZM107.698 26.5947L106.451 25.8126L106.446 25.8215L106.44 25.8304L107.698 26.5947ZM111.769 22.7688L112.458 24.0693L112.468 24.0641L112.477 24.0587L111.769 22.7688ZM121.579 22.033L121.114 23.429L121.114 23.429L121.579 22.033ZM125.013 23.7498L124.161 24.9498L124.17 24.9562L124.179 24.9624L125.013 23.7498ZM127.711 26.1042L126.609 27.0792L129.182 29.9886V26.1042H127.711ZM127.711 18.207H129.182V17.4946L128.623 17.0527L127.711 18.207ZM123.1 15.6073L122.577 16.9829L122.586 16.9863L123.1 15.6073ZM109.562 15.9507L109.043 14.5737L109.036 14.5762L109.562 15.9507ZM103.725 19.6295L102.705 18.5684L102.7 18.5734L102.695 18.5785L103.725 19.6295ZM99.8988 25.3194L98.541 24.752L98.5369 24.7623L99.8988 25.3194ZM99.8988 39.7895L98.5339 40.3395L98.5389 40.3519L98.5442 40.3642L99.8988 39.7895ZM103.725 45.4303L102.695 46.4813L102.7 46.4864L102.705 46.4914L103.725 45.4303ZM109.562 49.1091L109.036 50.4836L109.043 50.4862L109.562 49.1091ZM123.1 49.4525L122.586 48.0735L122.577 48.0769L123.1 49.4525ZM127.711 46.8528L128.623 48.0071L129.182 47.5652V46.8528H127.711ZM127.711 38.9556H129.182V35.0712L126.609 37.9806L127.711 38.9556ZM125.013 41.31L124.179 40.0974L124.17 40.1036L124.161 40.11L125.013 41.31ZM121.579 43.0268L121.114 41.6308L121.114 41.6308L121.579 43.0268ZM111.769 42.3401L111.061 43.63L111.071 43.6354L111.081 43.6406L111.769 42.3401ZM107.698 38.4651L106.434 39.2186L106.443 39.233L106.451 39.2472L107.698 38.4651ZM107.649 32.5299C107.649 30.4632 108.104 28.7592 108.955 27.3591L106.44 25.8304C105.264 27.7657 104.706 30.0185 104.706 32.5299H107.649ZM108.944 27.3768C109.86 25.918 111.028 24.826 112.458 24.0693L111.081 21.4682C109.175 22.4774 107.629 23.936 106.451 25.8126L108.944 27.3768ZM112.477 24.0587C113.921 23.266 115.491 22.8669 117.214 22.8669V19.9238C115.012 19.9238 112.953 20.4403 111.061 21.4789L112.477 24.0587ZM117.214 22.8669C118.724 22.8669 120.017 23.0634 121.114 23.429L122.045 20.637C120.591 20.1524 118.974 19.9238 117.214 19.9238V22.8669ZM121.114 23.429C122.263 23.8119 123.275 24.321 124.161 24.9498L125.865 22.5497C124.723 21.7398 123.447 21.1043 122.045 20.637L121.114 23.429ZM124.179 24.9624C125.138 25.6218 125.945 26.3288 126.609 27.0792L128.813 25.1292C127.973 24.1793 126.98 23.3166 125.847 22.5372L124.179 24.9624ZM129.182 26.1042V18.207H126.239V26.1042H129.182ZM128.623 17.0527C127.098 15.8464 125.426 14.9037 123.614 14.2284L122.586 16.9863C124.109 17.5536 125.511 18.344 126.798 19.3613L128.623 17.0527ZM123.623 14.2318C121.765 13.5257 119.495 13.2038 116.87 13.2038V16.1469C119.282 16.1469 121.165 16.4463 122.577 16.9829L123.623 14.2318ZM116.87 13.2038C114.092 13.2038 111.479 13.6558 109.043 14.5737L110.081 17.3277C112.158 16.5451 114.417 16.1469 116.87 16.1469V13.2038ZM109.036 14.5762C106.634 15.4946 104.519 16.8255 102.705 18.5684L104.744 20.6906C106.266 19.2288 108.042 18.1072 110.087 17.3252L109.036 14.5762ZM102.695 18.5785C100.914 20.3237 99.5297 22.3865 98.5411 24.752L101.257 25.8868C102.099 23.8705 103.265 22.14 104.755 20.6805L102.695 18.5785ZM98.5369 24.7623C97.5724 27.1198 97.1029 29.7159 97.1029 32.5299H100.046C100.046 30.0464 100.459 27.8356 101.261 25.8766L98.5369 24.7623ZM97.1029 32.5299C97.1029 35.3443 97.5725 37.9537 98.5339 40.3395L101.264 39.2394C100.459 37.2433 100.046 35.013 100.046 32.5299H97.1029ZM98.5442 40.3642C99.5337 42.6966 100.918 44.7399 102.695 46.4813L104.755 44.3793C103.262 42.9161 102.095 41.1988 101.253 39.2148L98.5442 40.3642ZM102.705 46.4914C104.519 48.2343 106.634 49.5652 109.036 50.4836L110.087 47.7347C108.042 46.9527 106.266 45.831 104.744 44.3692L102.705 46.4914ZM109.043 50.4862C111.479 51.404 114.092 51.856 116.87 51.856V48.9129C114.417 48.9129 112.158 48.5147 110.081 47.7321L109.043 50.4862ZM116.87 51.856C119.495 51.856 121.765 51.5341 123.623 50.8281L122.577 48.0769C121.165 48.6135 119.282 48.9129 116.87 48.9129V51.856ZM123.614 50.8314C125.426 50.1561 127.098 49.2135 128.623 48.0071L126.798 45.6985C125.511 46.7158 124.109 47.5062 122.586 48.0736L123.614 50.8314ZM129.182 46.8528V38.9556H126.239V46.8528H129.182ZM126.609 37.9806C125.945 38.7311 125.138 39.4381 124.179 40.0974L125.847 42.5226C126.98 41.7432 127.973 40.8805 128.813 39.9306L126.609 37.9806ZM124.161 40.11C123.275 40.7388 122.263 41.2479 121.114 41.6308L122.045 44.4228C123.447 43.9555 124.723 43.3201 125.865 42.5101L124.161 40.11ZM121.114 41.6308C120.017 41.9964 118.724 42.193 117.214 42.193V45.136C118.974 45.136 120.591 44.9074 122.045 44.4228L121.114 41.6308ZM117.214 42.193C115.482 42.193 113.905 41.8057 112.458 41.0396L111.081 43.6406C112.969 44.6404 115.022 45.136 117.214 45.136V42.193ZM112.477 41.0502C111.037 40.2595 109.862 39.1461 108.944 37.683L106.451 39.2472C107.626 41.1196 109.166 42.5894 111.061 43.63L112.477 41.0502ZM108.962 37.7116C108.102 36.2694 107.649 34.5588 107.649 32.5299H104.706C104.706 35.0137 105.266 37.2599 106.434 39.2186L108.962 37.7116ZM141.508 26.6928L142.804 27.3905L142.804 27.3905L141.508 26.6928ZM145.285 22.6707L146.054 23.9257L146.054 23.9257L145.285 22.6707ZM156.518 22.6707L155.749 23.9257L155.749 23.9257L156.518 22.6707ZM160.246 26.6928L158.94 27.3709L158.94 27.371L160.246 26.6928ZM160.197 38.367L158.901 37.6693L158.896 37.6791L158.891 37.6889L160.197 38.367ZM156.469 42.3892L157.237 43.6442L157.237 43.6442L156.469 42.3892ZM145.285 42.3892L146.054 41.1342L146.054 41.1342L145.285 42.3892ZM141.508 38.367L140.213 39.0646L140.213 39.0646L141.508 38.367ZM134.052 39.7404L132.685 40.2835L132.688 40.2904L134.052 39.7404ZM137.829 45.4794L136.789 46.5199L136.789 46.5199L137.829 45.4794ZM143.568 49.3053L143.001 50.6631L143.013 50.6682L143.025 50.673L143.568 49.3053ZM158.137 49.3053L158.687 50.6703L158.697 50.666L158.137 49.3053ZM163.875 45.4794L162.835 44.4388L162.83 44.4441L162.824 44.4494L163.875 45.4794ZM167.652 39.7404L166.292 39.1801L166.288 39.1904L167.652 39.7404ZM167.652 25.3685L166.288 25.9185L166.293 25.9309L166.298 25.9432L167.652 25.3685ZM163.826 19.6786L162.796 20.7295L162.802 20.7346L162.807 20.7397L163.826 19.6786ZM158.087 15.9997L157.537 17.3646L157.546 17.3682L157.555 17.3716L158.087 15.9997ZM143.666 15.9997L144.199 17.3716L144.21 17.3674L143.666 15.9997ZM137.928 19.6786L136.898 18.6276L136.898 18.6276L137.928 19.6786ZM134.102 25.3685L135.456 25.9432L135.459 25.9359L134.102 25.3685ZM141.606 32.5299C141.606 30.5493 142.018 28.8491 142.804 27.3905L140.213 25.9952C139.167 27.9374 138.663 30.1286 138.663 32.5299H141.606ZM142.804 27.3905C143.6 25.9125 144.68 24.7669 146.054 23.9257L144.517 21.4157C142.686 22.5365 141.248 24.0723 140.213 25.9952L142.804 27.3905ZM146.054 23.9257C147.395 23.1042 148.986 22.6707 150.877 22.6707V19.7276C148.517 19.7276 146.38 20.2751 144.517 21.4157L146.054 23.9257ZM150.877 22.6707C152.805 22.6707 154.411 23.1063 155.749 23.9257L157.286 21.4157C155.42 20.273 153.265 19.7276 150.877 19.7276V22.6707ZM155.749 23.9257C157.119 24.764 158.178 25.9032 158.94 27.3709L161.552 26.0147C160.548 24.0816 159.122 22.5394 157.286 21.4157L155.749 23.9257ZM158.94 27.371C159.699 28.8336 160.099 30.5409 160.099 32.5299H163.042C163.042 30.137 162.558 27.953 161.552 26.0147L158.94 27.371ZM160.099 32.5299C160.099 34.5105 159.686 36.2107 158.901 37.6693L161.492 39.0646C162.538 37.1224 163.042 34.9312 163.042 32.5299H160.099ZM158.891 37.6889C158.129 39.1566 157.07 40.2958 155.7 41.1342L157.237 43.6442C159.073 42.5204 160.499 40.9782 161.503 39.0451L158.891 37.6889ZM155.7 41.1342C154.359 41.9557 152.768 42.3892 150.877 42.3892V45.3322C153.237 45.3322 155.374 44.7847 157.237 43.6442L155.7 41.1342ZM150.877 42.3892C148.986 42.3892 147.395 41.9557 146.054 41.1342L144.517 43.6442C146.38 44.7847 148.517 45.3322 150.877 45.3322V42.3892ZM146.054 41.1342C144.68 40.293 143.6 39.1473 142.804 37.6693L140.213 39.0646C141.248 40.9875 142.686 42.5233 144.517 43.6442L146.054 41.1342ZM142.804 37.6693C142.018 36.2107 141.606 34.5105 141.606 32.5299H138.663C138.663 34.9312 139.167 37.1224 140.213 39.0646L142.804 37.6693ZM131.257 32.5299C131.257 35.2843 131.728 37.8736 132.685 40.2834L135.42 39.1974C134.611 37.1599 134.2 34.9422 134.2 32.5299H131.257ZM132.688 40.2904C133.643 42.661 135.011 44.7418 136.789 46.5199L138.87 44.4388C137.378 42.9469 136.228 41.2017 135.417 39.1904L132.688 40.2904ZM136.789 46.5199C138.563 48.2942 140.638 49.6756 143.001 50.6631L144.136 47.9476C142.117 47.1039 140.366 45.9347 138.87 44.4388L136.789 46.5199ZM143.025 50.673C145.439 51.6315 148.062 52.1013 150.877 52.1013V49.1582C148.394 49.1582 146.145 48.745 144.111 47.9377L143.025 50.673ZM150.877 52.1013C153.691 52.1013 156.301 51.6316 158.687 50.6702L157.586 47.9405C155.59 48.7449 153.36 49.1582 150.877 49.1582V52.1013ZM158.697 50.666C161.095 49.6784 163.178 48.2938 164.926 46.5093L162.824 44.4494C161.369 45.935 159.625 47.101 157.576 47.9447L158.697 50.666ZM164.916 46.5199C166.694 44.7418 168.062 42.661 169.017 40.2904L166.288 39.1904C165.477 41.2017 164.327 42.9469 162.835 44.4388L164.916 46.5199ZM169.013 40.3007C170.007 37.8865 170.497 35.2911 170.497 32.5299H167.554C167.554 34.9355 167.129 37.1471 166.292 39.1801L169.013 40.3007ZM170.497 32.5299C170.497 29.7393 170.008 27.1538 169.007 24.7938L166.298 25.9432C167.128 27.8997 167.554 30.0884 167.554 32.5299H170.497ZM169.017 24.8184C168.058 22.4389 166.667 20.367 164.846 18.6174L162.807 20.7397C164.321 22.1948 165.481 23.9162 166.288 25.9185L169.017 24.8184ZM164.856 18.6276C163.075 16.8819 160.992 15.5483 158.62 14.6279L157.555 17.3716C159.565 18.1516 161.308 19.2705 162.796 20.7295L164.856 18.6276ZM158.637 14.6349C156.254 13.6743 153.661 13.2038 150.877 13.2038V16.1469C153.325 16.1469 155.539 16.5593 157.537 17.3646L158.637 14.6349ZM150.877 13.2038C148.123 13.2038 145.533 13.6752 143.123 14.6321L144.21 17.3674C146.247 16.5584 148.465 16.1469 150.877 16.1469V13.2038ZM143.134 14.6279C140.762 15.5483 138.679 16.8819 136.898 18.6276L138.957 20.7295C140.446 19.2705 142.189 18.1516 144.199 17.3716L143.134 14.6279ZM136.898 18.6276C135.117 20.3727 133.732 22.4355 132.744 24.8011L135.459 25.9359C136.302 23.9195 137.468 22.1891 138.957 20.7295L136.898 18.6276ZM132.747 24.7938C131.746 27.1538 131.257 29.7393 131.257 32.5299H134.2C134.2 30.0884 134.626 27.8997 135.456 25.9432L132.747 24.7938Z" fill="url(#paint2_linear_2383_378)"/>
</mask>
<g mask="url(#mask0_2383_378)">
<circle cx="59.7192" cy="14.102" r="29.5532" fill="url(#paint3_radial_2383_378)"/>
<circle cx="59.7192" cy="14.102" r="29.5532" fill="url(#paint4_radial_2383_378)"/>
<circle cx="107.053" cy="40.0991" r="29.5532" fill="url(#paint5_radial_2383_378)"/>
<circle cx="136.729" cy="21.2143" r="29.5532" fill="url(#paint6_radial_2383_378)"/>
</g>
<defs>
<filter id="filter0_i_2383_378" x="3.72852" y="13.6455" width="165.297" height="38.7501" filterUnits="userSpaceOnUse" color-interpolation-filters="sRGB">
<feFlood flood-opacity="0" result="BackgroundImageFix"/>
<feBlend mode="normal" in="SourceGraphic" in2="BackgroundImageFix" result="shape"/>
<feColorMatrix in="SourceAlpha" type="matrix" values="0 0 0 0 0 0 0 0 0 0 0 0 0 0 0 0 0 0 127 0" result="hardAlpha"/>
<feOffset dy="0.981019"/>
<feGaussianBlur stdDeviation="1.83941"/>
<feComposite in2="hardAlpha" operator="arithmetic" k2="-1" k3="1"/>
<feColorMatrix type="matrix" values="0 0 0 0 0 0 0 0 0 0 0 0 0 0 0 0 0 0 0.25 0"/>
<feBlend mode="normal" in2="shape" result="effect1_innerShadow_2383_378"/>
</filter>
<filter id="filter1_i_2383_378" x="68.6719" y="14.2246" width="25.7522" height="39.2408" filterUnits="userSpaceOnUse" color-interpolation-filters="sRGB">
<feFlood flood-opacity="0" result="BackgroundImageFix"/>
<feBlend mode="normal" in="SourceGraphic" in2="BackgroundImageFix" result="shape"/>
<feColorMatrix in="SourceAlpha" type="matrix" values="0 0 0 0 0 0 0 0 0 0 0 0 0 0 0 0 0 0 127 0" result="hardAlpha"/>
<feOffset dx="0.49051" dy="0.981019"/>
<feGaussianBlur stdDeviation="0.613137"/>
<feComposite in2="hardAlpha" operator="arithmetic" k2="-1" k3="1"/>
<feColorMatrix type="matrix" values="0 0 0 0 0 0 0 0 0 0 0 0 0 0 0 0 0 0 0.25 0"/>
<feBlend mode="normal" in2="shape" result="effect1_innerShadow_2383_378"/>
</filter>
<linearGradient id="paint0_linear_2383_378" x1="85.5" y1="2.69775" x2="85.5" y2="53.6978" gradientUnits="userSpaceOnUse">
<stop offset="0.458333" stop-color="#05C2FC"/>
<stop offset="1" stop-color="#0DF8CF"/>
</linearGradient>
<linearGradient id="paint1_linear_2383_378" x1="85.7168" y1="0" x2="85.7168" y2="9" gradientUnits="userSpaceOnUse">
<stop stop-color="#05C2FC"/>
<stop offset="1" stop-color="#0DF8CF"/>
</linearGradient>
<linearGradient id="paint2_linear_2383_378" x1="85.5" y1="2.69775" x2="85.5" y2="53.6978" gradientUnits="userSpaceOnUse">
<stop offset="0.458333" stop-color="#05C2FC"/>
<stop offset="1" stop-color="#0DF8CF"/>
</linearGradient>
<radialGradient id="paint3_radial_2383_378" cx="0" cy="0" r="1" gradientUnits="userSpaceOnUse" gradientTransform="translate(59.7192 14.102) rotate(90.2377) scale(29.5535)">
<stop stop-color="#0DF8CF" stop-opacity="0.54"/>
<stop offset="1" stop-color="#0DF8CF" stop-opacity="0"/>
</radialGradient>
<radialGradient id="paint4_radial_2383_378" cx="0" cy="0" r="1" gradientUnits="userSpaceOnUse" gradientTransform="translate(59.7192 14.102) rotate(90.2377) scale(29.5535)">
<stop stop-color="#0DF8CF" stop-opacity="0.54"/>
<stop offset="1" stop-color="#0DF8CF" stop-opacity="0"/>
</radialGradient>
<radialGradient id="paint5_radial_2383_378" cx="0" cy="0" r="1" gradientUnits="userSpaceOnUse" gradientTransform="translate(107.053 40.0991) rotate(90.2377) scale(29.5535)">
<stop stop-color="#0DF8CF" stop-opacity="0.54"/>
<stop offset="1" stop-color="#0DF8CF" stop-opacity="0"/>
</radialGradient>
<radialGradient id="paint6_radial_2383_378" cx="0" cy="0" r="1" gradientUnits="userSpaceOnUse" gradientTransform="translate(136.729 21.2143) rotate(90.2377) scale(29.5535)">
<stop stop-color="#0DF8CF" stop-opacity="0.54"/>
<stop offset="1" stop-color="#0DF8CF" stop-opacity="0"/>
</radialGradient>
</defs>
</svg>
