<svg width="148" height="45" viewBox="0 0 148 45" fill="none" xmlns="http://www.w3.org/2000/svg">
<g filter="url(#filter0_i_1531_1317)">
<path d="M24.3532 12.301V30.7144L3.22446 10.8161V42H9.07941V23.5866L30.2081 43.4849V12.301H24.3532ZM40.564 42H55.5408V36.8663H40.564V42ZM40.564 17.4347H55.5408V12.301H40.564V17.4347ZM40.564 28.7627H54.6922V23.7139H40.564V28.7627ZM36.6607 12.301V42H42.5156V12.301H36.6607ZM91.8392 27.1505C91.8392 25.1706 92.2776 23.4593 93.1544 22.0168C94.0595 20.5743 95.2333 19.4712 96.6759 18.7075C98.1184 17.9155 99.6882 17.5195 101.385 17.5195C102.8 17.5195 104.058 17.7034 105.161 18.0711C106.264 18.4388 107.254 18.9338 108.131 19.556C109.036 20.1783 109.814 20.8571 110.465 21.5925V14.7618C109.248 13.8001 107.919 13.0505 106.477 12.5131C105.062 11.9757 103.266 11.707 101.088 11.707C98.8255 11.707 96.7183 12.0747 94.7666 12.8101C92.8433 13.5455 91.1603 14.6062 89.7178 15.9922C88.3036 17.3781 87.2005 19.0186 86.4085 20.9137C85.6448 22.7805 85.263 24.8594 85.263 27.1505C85.263 29.4416 85.6448 31.5346 86.4085 33.4297C87.2005 35.2965 88.3036 36.9229 89.7178 38.3088C91.1603 39.6948 92.8433 40.7555 94.7666 41.4909C96.7183 42.2263 98.8255 42.594 101.088 42.594C103.266 42.594 105.062 42.3253 106.477 41.7879C107.919 41.2505 109.248 40.5009 110.465 39.5392V32.7085C109.814 33.4439 109.036 34.1227 108.131 34.745C107.254 35.3672 106.264 35.8622 105.161 36.2299C104.058 36.5976 102.8 36.7815 101.385 36.7815C99.6882 36.7815 98.1184 36.3996 96.6759 35.6359C95.2333 34.844 94.0595 33.7267 93.1544 32.2842C92.2776 30.8134 91.8392 29.1021 91.8392 27.1505ZM121.211 27.1505C121.211 25.2554 121.607 23.5725 122.399 22.1017C123.191 20.6309 124.28 19.4712 125.666 18.6226C127.052 17.7741 128.664 17.3498 130.503 17.3498C132.369 17.3498 133.996 17.7741 135.382 18.6226C136.768 19.4712 137.842 20.6309 138.606 22.1017C139.37 23.5725 139.752 25.2554 139.752 27.1505C139.752 29.0456 139.356 30.7285 138.564 32.1993C137.8 33.6701 136.725 34.8298 135.339 35.6784C133.953 36.5269 132.341 36.9512 130.503 36.9512C128.664 36.9512 127.052 36.5269 125.666 35.6784C124.28 34.8298 123.191 33.6701 122.399 32.1993C121.607 30.7285 121.211 29.0456 121.211 27.1505ZM114.805 27.1505C114.805 29.385 115.186 31.4639 115.95 33.3873C116.714 35.2824 117.803 36.937 119.217 38.3513C120.631 39.7655 122.286 40.8686 124.181 41.6606C126.104 42.4243 128.211 42.8061 130.503 42.8061C132.794 42.8061 134.887 42.4243 136.782 41.6606C138.705 40.8686 140.36 39.7655 141.746 38.3513C143.16 36.937 144.249 35.2824 145.013 33.3873C145.805 31.4639 146.201 29.385 146.201 27.1505C146.201 24.8877 145.805 22.8229 145.013 20.9561C144.249 19.0611 143.146 17.4205 141.703 16.0346C140.289 14.6486 138.634 13.588 136.739 12.8526C134.844 12.0889 132.765 11.707 130.503 11.707C128.268 11.707 126.189 12.0889 124.266 12.8526C122.371 13.588 120.716 14.6486 119.302 16.0346C117.888 17.4205 116.784 19.0611 115.992 20.9561C115.201 22.8229 114.805 24.8877 114.805 27.1505Z" fill="#05C2FC"/>
</g>
<path d="M24.3532 12.301V11.0282H23.0804V12.301H24.3532ZM24.3532 30.7144L23.4805 31.641L25.626 33.6615V30.7144H24.3532ZM3.22446 10.8161L4.09709 9.88946L1.95165 7.86895V10.8161H3.22446ZM3.22446 42H1.95165V43.2728H3.22446V42ZM9.07941 42V43.2728H10.3522V42H9.07941ZM9.07941 23.5866L9.95204 22.66L7.80659 20.6395V23.5866H9.07941ZM30.2081 43.485L29.3355 44.4115L31.4809 46.432V43.485H30.2081ZM30.2081 12.301H31.4809V11.0282H30.2081V12.301ZM23.0804 12.301V30.7144H25.626V12.301H23.0804ZM25.2258 29.7878L4.09709 9.88946L2.35183 11.7426L23.4805 31.641L25.2258 29.7878ZM1.95165 10.8161V42H4.49728V10.8161H1.95165ZM3.22446 43.2728H9.07941V40.7272H3.22446V43.2728ZM10.3522 42V23.5866H7.80659V42H10.3522ZM8.20678 24.5132L29.3355 44.4115L31.0808 42.5584L9.95204 22.66L8.20678 24.5132ZM31.4809 43.485V12.301H28.9353V43.485H31.4809ZM30.2081 11.0282H24.3532V13.5738H30.2081V11.0282ZM40.564 42H39.2912V43.2728H40.564V42ZM55.5408 42V43.2728H56.8136V42H55.5408ZM55.5408 36.8663H56.8136V35.5935H55.5408V36.8663ZM40.564 36.8663V35.5935H39.2912V36.8663H40.564ZM40.564 17.4347H39.2912V18.7075H40.564V17.4347ZM55.5408 17.4347V18.7075H56.8136V17.4347H55.5408ZM55.5408 12.301H56.8136V11.0282H55.5408V12.301ZM40.564 12.301V11.0282H39.2912V12.301H40.564ZM40.564 28.7627H39.2912V30.0355H40.564V28.7627ZM54.6922 28.7627V30.0355H55.965V28.7627H54.6922ZM54.6922 23.7139H55.965V22.4411H54.6922V23.7139ZM40.564 23.7139V22.4411H39.2912V23.7139H40.564ZM36.6607 12.301V11.0282H35.3879V12.301H36.6607ZM36.6607 42H35.3879V43.2728H36.6607V42ZM42.5156 42V43.2728H43.7885V42H42.5156ZM42.5156 12.301H43.7885V11.0282H42.5156V12.301ZM40.564 43.2728H55.5408V40.7272H40.564V43.2728ZM56.8136 42V36.8663H54.268V42H56.8136ZM55.5408 35.5935H40.564V38.1391H55.5408V35.5935ZM39.2912 36.8663V42H41.8368V36.8663H39.2912ZM40.564 18.7075H55.5408V16.1619H40.564V18.7075ZM56.8136 17.4347V12.301H54.268V17.4347H56.8136ZM55.5408 11.0282H40.564V13.5738H55.5408V11.0282ZM39.2912 12.301V17.4347H41.8368V12.301H39.2912ZM40.564 30.0355H54.6922V27.4899H40.564V30.0355ZM55.965 28.7627V23.7139H53.4194V28.7627H55.965ZM54.6922 22.4411H40.564V24.9867H54.6922V22.4411ZM39.2912 23.7139V28.7627H41.8368V23.7139H39.2912ZM35.3879 12.301V42H37.9335V12.301H35.3879ZM36.6607 43.2728H42.5156V40.7272H36.6607V43.2728ZM43.7885 42V12.301H41.2428V42H43.7885ZM42.5156 11.0282H36.6607V13.5738H42.5156V11.0282ZM93.1544 22.0168L92.0763 21.3403L92.0715 21.348L92.0668 21.3557L93.1544 22.0168ZM96.6759 18.7075L97.2714 19.8324L97.2799 19.8279L97.2884 19.8232L96.6759 18.7075ZM105.161 18.0711L104.759 19.2786L105.161 18.0711ZM108.131 19.556L107.395 20.594L107.402 20.5995L107.41 20.6049L108.131 19.556ZM110.465 21.5925L109.511 22.4359L111.738 24.9524V21.5925H110.465ZM110.465 14.7618H111.738V14.1456L111.254 13.7634L110.465 14.7618ZM106.477 12.5131L106.024 13.703L106.032 13.7059L106.477 12.5131ZM94.7666 12.8101L94.3178 11.6191L94.3121 11.6213L94.7666 12.8101ZM89.7178 15.9922L88.8359 15.0743L88.8269 15.0831L89.7178 15.9922ZM86.4085 20.9137L85.2341 20.4229L85.2304 20.4318L86.4085 20.9137ZM86.4085 33.4297L85.2279 33.9055L85.2323 33.9162L85.2368 33.9268L86.4085 33.4297ZM89.7178 38.3088L88.8269 39.2179L88.836 39.2267L89.7178 38.3088ZM94.7666 41.4909L94.3121 42.6798L94.3178 42.6819L94.7666 41.4909ZM106.477 41.7879L106.032 40.5951L106.024 40.5981L106.477 41.7879ZM110.465 39.5392L111.254 40.5376L111.738 40.1554V39.5392H110.465ZM110.465 32.7085H111.738V29.3486L109.511 31.8651L110.465 32.7085ZM108.131 34.745L107.41 33.6961L107.402 33.7015L107.395 33.707L108.131 34.745ZM105.161 36.2299L104.759 35.0224L105.161 36.2299ZM96.6759 35.6359L96.0633 36.7517L96.0718 36.7563L96.0803 36.7608L96.6759 35.6359ZM93.1544 32.2842L92.0611 32.9359L92.0686 32.9484L92.0763 32.9607L93.1544 32.2842ZM93.112 27.1505C93.112 25.3629 93.5059 23.889 94.2421 22.6779L92.0668 21.3557C91.0492 23.0297 90.5664 24.9782 90.5664 27.1505H93.112ZM94.2326 22.6933C95.0243 21.4315 96.035 20.4869 97.2714 19.8324L96.0803 17.5826C94.4316 18.4554 93.0947 19.7171 92.0763 21.3403L94.2326 22.6933ZM97.2884 19.8232C98.5372 19.1376 99.8954 18.7924 101.385 18.7924V16.2467C99.481 16.2467 97.6996 16.6934 96.0633 17.5918L97.2884 19.8232ZM101.385 18.7924C102.691 18.7924 103.81 18.9623 104.759 19.2786L105.564 16.8636C104.306 16.4444 102.908 16.2467 101.385 16.2467V18.7924ZM104.759 19.2786C105.752 19.6098 106.628 20.0501 107.395 20.594L108.868 18.5181C107.881 17.8174 106.776 17.2678 105.564 16.8636L104.759 19.2786ZM107.41 20.6049C108.24 21.1752 108.937 21.7868 109.511 22.4359L111.418 20.7492C110.691 19.9275 109.833 19.1814 108.852 18.5072L107.41 20.6049ZM111.738 21.5925V14.7618H109.192V21.5925H111.738ZM111.254 13.7634C109.934 12.7199 108.489 11.9045 106.921 11.3204L106.032 13.7059C107.349 14.1966 108.562 14.8803 109.675 15.7602L111.254 13.7634ZM106.929 11.3233C105.321 10.7126 103.359 10.4342 101.088 10.4342V12.9798C103.174 12.9798 104.803 13.2389 106.024 13.7029L106.929 11.3233ZM101.088 10.4342C98.6853 10.4342 96.4247 10.8252 94.3178 11.6191L95.2155 14.0012C97.0119 13.3243 98.9658 12.9798 101.088 12.9798V10.4342ZM94.3121 11.6213C92.2344 12.4157 90.405 13.5669 88.836 15.0743L90.5997 16.91C91.9157 15.6456 93.4522 14.6754 95.2212 13.999L94.3121 11.6213ZM88.8269 15.0831C87.2867 16.5926 86.0892 18.3768 85.2341 20.4229L87.5829 21.4045C88.3118 19.6604 89.3205 18.1637 90.6087 16.9012L88.8269 15.0831ZM85.2304 20.4318C84.3962 22.4709 83.9902 24.7165 83.9902 27.1505H86.5358C86.5358 25.0024 86.8934 23.0901 87.5865 21.3956L85.2304 20.4318ZM83.9902 27.1505C83.9902 29.5849 84.3964 31.8419 85.2279 33.9055L87.5891 32.954C86.8933 31.2274 86.5358 29.2983 86.5358 27.1505H83.9902ZM85.2368 33.9268C86.0927 35.9443 87.2899 37.7116 88.8269 39.2179L90.6087 37.3998C89.3172 36.1342 88.3083 34.6487 87.5802 32.9326L85.2368 33.9268ZM88.836 39.2267C90.405 40.7341 92.2344 41.8853 94.3121 42.6797L95.2212 40.302C93.4522 39.6256 91.9157 38.6554 90.5997 37.391L88.836 39.2267ZM94.3178 42.6819C96.4247 43.4758 98.6853 43.8668 101.088 43.8668V41.3212C98.9658 41.3212 97.0119 40.9767 95.2154 40.2998L94.3178 42.6819ZM101.088 43.8668C103.359 43.8668 105.321 43.5884 106.929 42.9777L106.024 40.5981C104.803 41.0621 103.174 41.3212 101.088 41.3212V43.8668ZM106.921 42.9806C108.489 42.3965 109.934 41.5811 111.254 40.5376L109.675 38.5408C108.562 39.4207 107.349 40.1044 106.032 40.5951L106.921 42.9806ZM111.738 39.5392V32.7085H109.192V39.5392H111.738ZM109.511 31.8651C108.937 32.5143 108.24 33.1258 107.41 33.6961L108.852 35.7938C109.833 35.1196 110.691 34.3735 111.418 33.5518L109.511 31.8651ZM107.395 33.707C106.628 34.2509 105.752 34.6912 104.759 35.0224L105.564 37.4374C106.776 37.0332 107.881 36.4836 108.868 35.7829L107.395 33.707ZM104.759 35.0224C103.81 35.3387 102.691 35.5086 101.385 35.5086V38.0543C102.908 38.0543 104.306 37.8566 105.564 37.4374L104.759 35.0224ZM101.385 35.5086C99.8872 35.5086 98.523 35.1737 97.2714 34.511L96.0803 36.7608C97.7137 37.6256 99.4891 38.0543 101.385 38.0543V35.5086ZM97.2884 34.5202C96.0428 33.8363 95.0266 32.8732 94.2326 31.6077L92.0763 32.9607C93.0924 34.5802 94.4239 35.8516 96.0633 36.7517L97.2884 34.5202ZM94.2477 31.6324C93.5041 30.385 93.112 28.9054 93.112 27.1505H90.5664C90.5664 29.2989 91.0511 31.2417 92.0611 32.9359L94.2477 31.6324ZM122.399 22.1017L123.52 22.7051L122.399 22.1017ZM125.666 18.6226L126.33 19.7082L125.666 18.6226ZM135.382 18.6226L134.717 19.7082L135.382 18.6226ZM138.606 22.1017L137.477 22.6882V22.6882L138.606 22.1017ZM138.564 32.1993L137.443 31.5959L137.439 31.6043L137.434 31.6128L138.564 32.1993ZM135.339 35.6784L136.004 36.7639L135.339 35.6784ZM125.666 35.6784L126.33 34.5928L125.666 35.6784ZM122.399 32.1993L121.278 32.8028L122.399 32.1993ZM115.95 33.3873L114.767 33.857L114.769 33.863L115.95 33.3873ZM119.217 38.3513L118.317 39.2513H118.317L119.217 38.3513ZM124.181 41.6606L123.69 42.835L123.701 42.8394L123.711 42.8436L124.181 41.6606ZM136.782 41.6606L137.258 42.8412L137.266 42.8375L136.782 41.6606ZM141.746 38.3513L140.846 37.4512L140.837 37.4604L141.746 38.3513ZM145.013 33.3873L143.836 32.9027L143.832 32.9115L145.013 33.3873ZM145.013 20.9561L143.832 21.4319L143.836 21.4426L143.841 21.4532L145.013 20.9561ZM141.703 16.0346L140.812 16.9437L140.821 16.9524L141.703 16.0346ZM136.739 12.8526L136.264 14.0331L136.271 14.0362L136.279 14.0392L136.739 12.8526ZM124.266 12.8526L124.726 14.0392L124.735 14.0355L124.266 12.8526ZM119.302 16.0346L118.411 15.1255V15.1255L119.302 16.0346ZM115.992 20.9561L117.164 21.4532L117.167 21.4469L115.992 20.9561ZM122.484 27.1505C122.484 25.4374 122.84 23.9668 123.52 22.7051L121.278 21.4982C120.374 23.1782 119.938 25.0735 119.938 27.1505H122.484ZM123.52 22.7051C124.208 21.4267 125.142 20.4358 126.33 19.7082L125.001 17.5371C123.418 18.5066 122.174 19.835 121.278 21.4982L123.52 22.7051ZM126.33 19.7082C127.491 18.9976 128.867 18.6226 130.503 18.6226V16.077C128.461 16.077 126.613 16.5506 125.001 17.5371L126.33 19.7082ZM130.503 18.6226C132.17 18.6226 133.559 18.9994 134.717 19.7082L136.046 17.5371C134.432 16.5488 132.568 16.077 130.503 16.077V18.6226ZM134.717 19.7082C135.901 20.4333 136.817 21.4187 137.477 22.6882L139.736 21.5151C138.868 19.8431 137.634 18.5091 136.046 17.5371L134.717 19.7082ZM137.477 22.6882C138.133 23.9533 138.479 25.4301 138.479 27.1505H141.024C141.024 25.0808 140.606 23.1916 139.736 21.5151L137.477 22.6882ZM138.479 27.1505C138.479 28.8636 138.122 30.3342 137.443 31.5959L139.684 32.8028C140.589 31.1228 141.024 29.2276 141.024 27.1505H138.479ZM137.434 31.6128C136.775 32.8824 135.859 33.8677 134.675 34.5928L136.004 36.7639C137.591 35.7919 138.825 34.4579 139.693 32.7859L137.434 31.6128ZM134.675 34.5928C133.514 35.3034 132.138 35.6784 130.503 35.6784V38.224C132.544 38.224 134.393 37.7504 136.004 36.7639L134.675 34.5928ZM130.503 35.6784C128.867 35.6784 127.491 35.3034 126.33 34.5928L125.001 36.7639C126.613 37.7504 128.461 38.224 130.503 38.224V35.6784ZM126.33 34.5928C125.142 33.8652 124.208 32.8743 123.52 31.5959L121.278 32.8028C122.174 34.466 123.418 35.7944 125.001 36.7639L126.33 34.5928ZM123.52 31.5959C122.84 30.3342 122.484 28.8636 122.484 27.1505H119.938C119.938 29.2276 120.374 31.1228 121.278 32.8028L123.52 31.5959ZM113.532 27.1505C113.532 29.5329 113.939 31.7726 114.767 33.857L117.133 32.9176C116.433 31.1553 116.077 29.2371 116.077 27.1505H113.532ZM114.769 33.863C115.596 35.9135 116.779 37.7133 118.317 39.2513L120.117 37.4513C118.826 36.1608 117.832 34.6513 117.131 32.9115L114.769 33.863ZM118.317 39.2513C119.852 40.7859 121.646 41.9808 123.69 42.835L124.672 40.4862C122.925 39.7564 121.411 38.7451 120.117 37.4513L118.317 39.2513ZM123.711 42.8436C125.799 43.6726 128.068 44.0789 130.503 44.0789V41.5333C128.355 41.5333 126.409 41.1759 124.651 40.4776L123.711 42.8436ZM130.503 44.0789C132.937 44.0789 135.194 43.6727 137.258 42.8411L136.306 40.48C134.579 41.1758 132.65 41.5333 130.503 41.5333V44.0789ZM137.266 42.8375C139.341 41.9833 141.142 40.7857 142.655 39.2421L140.837 37.4604C139.577 38.7453 138.069 39.7539 136.297 40.4836L137.266 42.8375ZM142.646 39.2513C144.184 37.7133 145.367 35.9135 146.193 33.863L143.832 32.9115C143.131 34.6513 142.136 36.1608 140.846 37.4513L142.646 39.2513ZM146.19 33.8719C147.049 31.7837 147.473 29.5388 147.473 27.1505H144.928C144.928 29.2312 144.56 31.1442 143.836 32.9027L146.19 33.8719ZM147.473 27.1505C147.473 24.7367 147.05 22.5003 146.184 20.459L143.841 21.4532C144.559 23.1455 144.928 25.0387 144.928 27.1505H147.473ZM146.193 20.4804C145.364 18.4222 144.16 16.63 142.585 15.1168L140.821 16.9524C142.132 18.2111 143.134 19.7 143.832 21.4319L146.193 20.4804ZM142.594 15.1255C141.053 13.6156 139.251 12.4621 137.2 11.666L136.279 14.0392C138.018 14.7139 139.525 15.6817 140.812 16.9437L142.594 15.1255ZM137.215 11.672C135.153 10.8411 132.911 10.4342 130.503 10.4342V12.9798C132.62 12.9798 134.535 13.3366 136.264 14.0331L137.215 11.672ZM130.503 10.4342C128.12 10.4342 125.88 10.842 123.796 11.6696L124.735 14.0355C126.498 13.3358 128.416 12.9798 130.503 12.9798V10.4342ZM123.805 11.666C121.754 12.4621 119.952 13.6156 118.411 15.1255L120.193 16.9437C121.48 15.6817 122.988 14.7139 124.726 14.0392L123.805 11.666ZM118.411 15.1255C116.871 16.635 115.673 18.4193 114.818 20.4654L117.167 21.4469C117.896 19.7028 118.904 18.2061 120.193 16.9437L118.411 15.1255ZM114.821 20.459C113.955 22.5003 113.532 24.7367 113.532 27.1505H116.077C116.077 25.0387 116.446 23.1455 117.164 21.4532L114.821 20.459Z" fill="url(#paint0_linear_1531_1317)"/>
<g filter="url(#filter1_i_1531_1317)">
<path d="M59.7139 26.3185C60.192 25.372 68.1849 10.9256 68.1849 10.9256C68.4131 10.2427 69.0278 9.97021 69.5968 9.97021H75.903C76.9383 9.97021 75.9971 11.1379 75.9971 11.1379L69.3144 21.2014H79.3855C80.4312 21.2014 81.5503 21.1168 81.1738 21.8599C80.7974 22.603 66.1211 40.5918 64.4129 42.2767C62.7258 43.9407 62.914 42.5607 63.1296 41.8232L70.9145 27.6041H61.5022C58.9609 27.6041 59.2358 27.2651 59.7139 26.3185Z" fill="#D8DDDF"/>
</g>
<path d="M4.5331 1.86044V3.86639L2.07402 1.68224V5.42432H2.8988V3.41836L5.36297 5.60251V1.86044H4.5331ZM29.366 5.42432H31.1632V4.71663H29.366V5.42432ZM29.366 2.56812H31.1632V1.86044H29.366V2.56812ZM29.366 3.89694H31.0614V3.20453H29.366V3.89694ZM28.7958 1.86044V5.42432H29.6205V1.86044H28.7958ZM78.5827 4.17187L77.982 4.60462C78.0634 4.77433 78.1771 4.93046 78.3231 5.07302C78.469 5.21557 78.6404 5.32928 78.8373 5.41413C79.0375 5.49559 79.2531 5.53632 79.4839 5.53632C79.6502 5.53632 79.8114 5.51087 79.9675 5.45996C80.1271 5.41244 80.2679 5.34116 80.3901 5.24612C80.5157 5.15109 80.6141 5.03399 80.6854 4.89483C80.7601 4.75227 80.7974 4.59105 80.7974 4.41116C80.7974 4.26181 80.7737 4.12944 80.7261 4.01404C80.6786 3.89864 80.6124 3.79681 80.5276 3.70856C80.4461 3.62031 80.3511 3.54564 80.2425 3.48455C80.1339 3.42006 80.0168 3.36405 79.8912 3.31654C79.7249 3.25884 79.5823 3.20453 79.4635 3.15362C79.3481 3.1027 79.2582 3.0467 79.1937 2.9856C79.1326 2.92451 79.102 2.85323 79.102 2.77177C79.102 2.69371 79.1343 2.62922 79.1988 2.5783C79.2633 2.524 79.3566 2.49684 79.4788 2.49684C79.5704 2.49684 79.6553 2.51551 79.7333 2.55285C79.8148 2.58679 79.8878 2.636 79.9523 2.70049C80.0202 2.76159 80.0796 2.83456 80.1305 2.91942L80.7872 2.55285C80.7261 2.43066 80.6379 2.31016 80.5225 2.19137C80.4071 2.07257 80.2611 1.97414 80.0846 1.89608C79.9115 1.81801 79.7062 1.77898 79.4686 1.77898C79.2378 1.77898 79.0274 1.81971 78.8373 1.90117C78.6506 1.97923 78.5013 2.09463 78.3893 2.24737C78.2806 2.40011 78.2263 2.5817 78.2263 2.79214C78.2263 2.96863 78.2586 3.11967 78.3231 3.24526C78.3876 3.36745 78.469 3.47267 78.5674 3.56092C78.6659 3.64577 78.7694 3.71535 78.878 3.76966C78.99 3.82396 79.0885 3.86639 79.1733 3.89694C79.3464 3.96143 79.4856 4.01913 79.5908 4.07004C79.696 4.12095 79.7724 4.17526 79.8199 4.23296C79.8674 4.28727 79.8912 4.36024 79.8912 4.45189C79.8912 4.5605 79.8504 4.64705 79.769 4.71154C79.6875 4.77264 79.584 4.80318 79.4584 4.80318C79.3396 4.80318 79.2259 4.77773 79.1173 4.72681C79.0121 4.6759 78.9137 4.60293 78.822 4.50789C78.7338 4.41285 78.654 4.30085 78.5827 4.17187ZM99.5621 3.64238C99.5621 3.42176 99.6113 3.23338 99.7098 3.07725C99.8082 2.92112 99.9372 2.80232 100.097 2.72086C100.26 2.6394 100.438 2.59867 100.631 2.59867C100.801 2.59867 100.95 2.62073 101.079 2.66486C101.208 2.70559 101.324 2.76329 101.426 2.83796C101.527 2.90924 101.617 2.9856 101.695 3.06706V2.14046C101.553 2.02845 101.397 1.9402 101.227 1.87571C101.057 1.81122 100.842 1.77898 100.58 1.77898C100.295 1.77898 100.032 1.8231 99.7912 1.91135C99.5502 1.9996 99.3432 2.12688 99.1701 2.29319C98.997 2.45951 98.8629 2.65637 98.7679 2.88378C98.6728 3.11119 98.6253 3.36405 98.6253 3.64238C98.6253 3.9207 98.6728 4.17356 98.7679 4.40097C98.8629 4.62838 98.997 4.82525 99.1701 4.99156C99.3432 5.15787 99.5502 5.28516 99.7912 5.3734C100.032 5.46165 100.295 5.50578 100.58 5.50578C100.842 5.50578 101.057 5.47353 101.227 5.40904C101.397 5.34455 101.553 5.2563 101.695 5.1443V4.21769C101.617 4.29915 101.527 4.37552 101.426 4.4468C101.324 4.51807 101.208 4.57577 101.079 4.6199C100.95 4.66402 100.801 4.68608 100.631 4.68608C100.438 4.68608 100.26 4.64535 100.097 4.56389C99.9372 4.48243 99.8082 4.36364 99.7098 4.20751C99.6113 4.04798 99.5621 3.8596 99.5621 3.64238ZM102.954 3.64238C102.954 3.43194 102.994 3.24696 103.076 3.08743C103.161 2.92451 103.278 2.79723 103.427 2.70559C103.58 2.61394 103.758 2.56812 103.962 2.56812C104.169 2.56812 104.347 2.61394 104.496 2.70559C104.646 2.79723 104.761 2.92451 104.843 3.08743C104.924 3.24696 104.965 3.43194 104.965 3.64238C104.965 3.85282 104.922 4.03949 104.838 4.20241C104.756 4.36194 104.639 4.48753 104.486 4.57917C104.337 4.67081 104.162 4.71663 103.962 4.71663C103.758 4.71663 103.58 4.67081 103.427 4.57917C103.278 4.48753 103.161 4.36194 103.076 4.20241C102.994 4.03949 102.954 3.85282 102.954 3.64238ZM102.042 3.64238C102.042 3.9173 102.088 4.17017 102.18 4.40097C102.275 4.63178 102.407 4.83203 102.577 5.00174C102.75 5.17145 102.954 5.30382 103.188 5.39886C103.422 5.4905 103.68 5.53632 103.962 5.53632C104.24 5.53632 104.496 5.4905 104.731 5.39886C104.965 5.30382 105.167 5.17145 105.336 5.00174C105.51 4.83203 105.642 4.63178 105.734 4.40097C105.829 4.17017 105.876 3.9173 105.876 3.64238C105.876 3.36745 105.829 3.11628 105.734 2.88887C105.639 2.66146 105.504 2.4646 105.331 2.29828C105.158 2.13197 104.955 2.00469 104.72 1.91644C104.49 1.8248 104.237 1.77898 103.962 1.77898C103.69 1.77898 103.437 1.8248 103.203 1.91644C102.969 2.00469 102.765 2.13197 102.592 2.29828C102.419 2.4646 102.283 2.66146 102.185 2.88887C102.09 3.11628 102.042 3.36745 102.042 3.64238Z" fill="url(#paint1_linear_1531_1317)"/>
<path d="M6.5235 4.737H8.40726L8.35126 4.08022H6.58459L6.5235 4.737ZM7.4552 3.16889L7.95923 4.3246L7.92869 4.54353L8.35635 5.42432H9.33387L7.4552 1.63642L5.58162 5.42432H6.55405L6.99699 4.50789L6.95626 4.31951L7.4552 3.16889ZM8.84022 2.62922H9.81774V5.42432H10.6782V2.62922H11.6608V1.86044H8.84022V2.62922ZM11.8978 1.86044V5.42432H12.7735V1.86044H11.8978ZM14.0835 3.64238C14.0835 3.43194 14.1242 3.24696 14.2057 3.08743C14.2905 2.92451 14.4076 2.79723 14.557 2.70559C14.7097 2.61394 14.8879 2.56812 15.0916 2.56812C15.2986 2.56812 15.4768 2.61394 15.6261 2.70559C15.7755 2.79723 15.8909 2.92451 15.9724 3.08743C16.0538 3.24696 16.0945 3.43194 16.0945 3.64238C16.0945 3.85282 16.0521 4.03949 15.9673 4.20241C15.8858 4.36194 15.7687 4.48753 15.616 4.57917C15.4666 4.67081 15.2918 4.71663 15.0916 4.71663C14.8879 4.71663 14.7097 4.67081 14.557 4.57917C14.4076 4.48753 14.2905 4.36194 14.2057 4.20241C14.1242 4.03949 14.0835 3.85282 14.0835 3.64238ZM13.1722 3.64238C13.1722 3.9173 13.218 4.17017 13.3096 4.40097C13.4047 4.63178 13.537 4.83203 13.7067 5.00174C13.8798 5.17145 14.0835 5.30382 14.3177 5.39886C14.5519 5.4905 14.8099 5.53632 15.0916 5.53632C15.3699 5.53632 15.6261 5.4905 15.8603 5.39886C16.0945 5.30382 16.2965 5.17145 16.4662 5.00174C16.6393 4.83203 16.7717 4.63178 16.8633 4.40097C16.9584 4.17017 17.0059 3.9173 17.0059 3.64238C17.0059 3.36745 16.9584 3.11628 16.8633 2.88887C16.7683 2.66146 16.6342 2.4646 16.4611 2.29828C16.288 2.13197 16.0844 2.00469 15.8502 1.91644C15.6194 1.8248 15.3665 1.77898 15.0916 1.77898C14.82 1.77898 14.5672 1.8248 14.333 1.91644C14.0988 2.00469 13.8951 2.13197 13.722 2.29828C13.5489 2.4646 13.4131 2.66146 13.3147 2.88887C13.2197 3.11628 13.1722 3.36745 13.1722 3.64238ZM19.8635 1.86044V3.86639L17.4045 1.68224V5.42432H18.2293V3.41836L20.6934 5.60251V1.86044H19.8635ZM21.8539 4.737H23.7377L23.6817 4.08022H21.915L21.8539 4.737ZM22.7856 3.16889L23.2897 4.3246L23.2591 4.54353L23.6868 5.42432H24.6643L22.7856 1.63642L20.9121 5.42432H21.8845L22.3274 4.50789L22.2867 4.31951L22.7856 3.16889ZM24.885 1.86044V5.42432H27.1761V4.68608H25.7455V1.86044H24.885ZM31.7107 1.86044V5.42432H34.0018V4.68608H32.5711V1.86044H31.7107ZM34.818 5.42432H36.6152V4.71663H34.818V5.42432ZM34.818 2.56812H36.6152V1.86044H34.818V2.56812ZM34.818 3.89694H36.5134V3.20453H34.818V3.89694ZM34.2478 1.86044V5.42432H35.0726V1.86044H34.2478ZM37.8959 3.64238C37.8959 3.42176 37.9451 3.23338 38.0435 3.07725C38.1419 2.92112 38.2709 2.80232 38.4304 2.72086C38.5934 2.6394 38.7716 2.59867 38.965 2.59867C39.1347 2.59867 39.2841 2.62073 39.4131 2.66486C39.542 2.70559 39.6574 2.76329 39.7593 2.83796C39.8611 2.90924 39.951 2.9856 40.0291 3.06706V2.14046C39.8865 2.02845 39.7304 1.9402 39.5607 1.87571C39.391 1.81122 39.1755 1.77898 38.9141 1.77898C38.629 1.77898 38.366 1.8231 38.125 1.91135C37.884 1.9996 37.6769 2.12688 37.5038 2.29319C37.3307 2.45951 37.1967 2.65637 37.1016 2.88378C37.0066 3.11119 36.9591 3.36405 36.9591 3.64238C36.9591 3.9207 37.0066 4.17356 37.1016 4.40097C37.1967 4.62838 37.3307 4.82525 37.5038 4.99156C37.6769 5.15787 37.884 5.28516 38.125 5.3734C38.366 5.46165 38.629 5.50578 38.9141 5.50578C39.1755 5.50578 39.391 5.47353 39.5607 5.40904C39.7304 5.34455 39.8865 5.2563 40.0291 5.1443V4.21769C39.951 4.29915 39.8611 4.37552 39.7593 4.4468C39.6574 4.51807 39.542 4.57577 39.4131 4.6199C39.2841 4.66402 39.1347 4.68608 38.965 4.68608C38.7716 4.68608 38.5934 4.64535 38.4304 4.56389C38.2709 4.48243 38.1419 4.36364 38.0435 4.20751C37.9451 4.04798 37.8959 3.8596 37.8959 3.64238ZM40.0693 2.62922H41.0468V5.42432H41.9073V2.62922H42.8899V1.86044H40.0693V2.62922ZM44.0178 3.81039L45.0157 5.42432H46.0238L44.9088 3.81039H44.0178ZM43.1268 1.86044V5.42432H43.9873V1.86044H43.1268ZM43.6665 2.58849H44.364C44.4794 2.58849 44.5779 2.60715 44.6593 2.64449C44.7442 2.68183 44.8087 2.73613 44.8528 2.80741C44.8969 2.87529 44.919 2.95845 44.919 3.05688C44.919 3.15531 44.8969 3.24017 44.8528 3.31144C44.8087 3.37933 44.7442 3.43194 44.6593 3.46927C44.5779 3.50322 44.4794 3.52019 44.364 3.52019H43.6665V4.18714H44.4251C44.7306 4.18714 44.9852 4.13793 45.1888 4.03949C45.3925 3.94106 45.5469 3.8053 45.6521 3.63219C45.7573 3.4557 45.8099 3.25374 45.8099 3.02633C45.8099 2.79553 45.7573 2.59358 45.6521 2.42047C45.5469 2.24398 45.3925 2.10651 45.1888 2.00808C44.9852 1.90965 44.7306 1.86044 44.4251 1.86044H43.6665V2.58849ZM46.2705 1.86044V5.42432H47.1462V1.86044H46.2705ZM48.4817 3.64238C48.4817 3.42176 48.5309 3.23338 48.6293 3.07725C48.7278 2.92112 48.8568 2.80232 49.0163 2.72086C49.1792 2.6394 49.3574 2.59867 49.5509 2.59867C49.7206 2.59867 49.8699 2.62073 49.9989 2.66486C50.1279 2.70559 50.2433 2.76329 50.3451 2.83796C50.4469 2.90924 50.5369 2.9856 50.6149 3.06706V2.14046C50.4724 2.02845 50.3162 1.9402 50.1465 1.87571C49.9768 1.81122 49.7613 1.77898 49.4999 1.77898C49.2148 1.77898 48.9518 1.8231 48.7108 1.91135C48.4698 1.9996 48.2628 2.12688 48.0897 2.29319C47.9166 2.45951 47.7825 2.65637 47.6875 2.88378C47.5924 3.11119 47.5449 3.36405 47.5449 3.64238C47.5449 3.9207 47.5924 4.17356 47.6875 4.40097C47.7825 4.62838 47.9166 4.82525 48.0897 4.99156C48.2628 5.15787 48.4698 5.28516 48.7108 5.3734C48.9518 5.46165 49.2148 5.50578 49.4999 5.50578C49.7613 5.50578 49.9768 5.47353 50.1465 5.40904C50.3162 5.34455 50.4724 5.2563 50.6149 5.1443V4.21769C50.5369 4.29915 50.4469 4.37552 50.3451 4.4468C50.2433 4.51807 50.1279 4.57577 49.9989 4.6199C49.8699 4.66402 49.7206 4.68608 49.5509 4.68608C49.3574 4.68608 49.1792 4.64535 49.0163 4.56389C48.8568 4.48243 48.7278 4.36364 48.6293 4.20751C48.5309 4.04798 48.4817 3.8596 48.4817 3.64238ZM51.6511 4.737H53.5349L53.4789 4.08022H51.7122L51.6511 4.737ZM52.5828 3.16889L53.0869 4.3246L53.0563 4.54353L53.484 5.42432H54.4615L52.5828 1.63642L50.7092 5.42432H51.6817L52.1246 4.50789L52.0839 4.31951L52.5828 3.16889ZM54.6822 1.86044V5.42432H56.9733V4.68608H55.5426V1.86044H54.6822ZM58.5929 1.86044V5.42432H59.4534V1.86044H58.5929ZM59.1326 2.56812H59.8301C60.0032 2.56812 60.139 2.60715 60.2374 2.68522C60.3358 2.76329 60.3851 2.87699 60.3851 3.02633C60.3851 3.17228 60.3358 3.28429 60.2374 3.36236C60.139 3.44042 60.0032 3.47946 59.8301 3.47946H59.1326V4.18714H59.8301C60.1322 4.18714 60.3851 4.14132 60.5887 4.04968C60.7957 3.95464 60.9519 3.82057 61.0571 3.64747C61.1623 3.47097 61.2149 3.26393 61.2149 3.02633C61.2149 2.78195 61.1623 2.57321 61.0571 2.40011C60.9519 2.22701 60.7957 2.09463 60.5887 2.00299C60.3851 1.90795 60.1322 1.86044 59.8301 1.86044H59.1326V2.56812ZM62.32 3.64238C62.32 3.43194 62.3607 3.24696 62.4422 3.08743C62.527 2.92451 62.6441 2.79723 62.7935 2.70559C62.9462 2.61394 63.1244 2.56812 63.328 2.56812C63.5351 2.56812 63.7133 2.61394 63.8626 2.70559C64.012 2.79723 64.1274 2.92451 64.2088 3.08743C64.2903 3.24696 64.331 3.43194 64.331 3.64238C64.331 3.85282 64.2886 4.03949 64.2037 4.20241C64.1223 4.36194 64.0052 4.48753 63.8524 4.57917C63.7031 4.67081 63.5283 4.71663 63.328 4.71663C63.1244 4.71663 62.9462 4.67081 62.7935 4.57917C62.6441 4.48753 62.527 4.36194 62.4422 4.20241C62.3607 4.03949 62.32 3.85282 62.32 3.64238ZM61.4086 3.64238C61.4086 3.9173 61.4545 4.17017 61.5461 4.40097C61.6411 4.63178 61.7735 4.83203 61.9432 5.00174C62.1163 5.17145 62.32 5.30382 62.5542 5.39886C62.7884 5.4905 63.0463 5.53632 63.328 5.53632C63.6064 5.53632 63.8626 5.4905 64.0968 5.39886C64.331 5.30382 64.533 5.17145 64.7027 5.00174C64.8758 4.83203 65.0082 4.63178 65.0998 4.40097C65.1948 4.17017 65.2424 3.9173 65.2424 3.64238C65.2424 3.36745 65.1948 3.11628 65.0998 2.88887C65.0048 2.66146 64.8707 2.4646 64.6976 2.29828C64.5245 2.13197 64.3208 2.00469 64.0866 1.91644C63.8558 1.8248 63.603 1.77898 63.328 1.77898C63.0565 1.77898 62.8036 1.8248 62.5694 1.91644C62.3352 2.00469 62.1316 2.13197 61.9585 2.29828C61.7854 2.4646 61.6496 2.66146 61.5512 2.88887C61.4562 3.11628 61.4086 3.36745 61.4086 3.64238ZM68.7961 3.89185L67.8186 1.68224L66.8513 3.89185L66.1487 1.86044H65.1304L66.6731 5.63306L67.8186 3.48455L68.9692 5.63306L70.5119 1.86044H69.4885L68.7961 3.89185ZM71.3287 5.42432H73.1259V4.71663H71.3287V5.42432ZM71.3287 2.56812H73.1259V1.86044H71.3287V2.56812ZM71.3287 3.89694H73.0241V3.20453H71.3287V3.89694ZM70.7585 1.86044V5.42432H71.5832V1.86044H70.7585ZM74.5644 3.81039L75.5622 5.42432H76.5703L75.4553 3.81039H74.5644ZM73.6734 1.86044V5.42432H74.5338V1.86044H73.6734ZM74.2131 2.58849H74.9106C75.026 2.58849 75.1244 2.60715 75.2059 2.64449C75.2907 2.68183 75.3552 2.73613 75.3993 2.80741C75.4435 2.87529 75.4655 2.95845 75.4655 3.05688C75.4655 3.15531 75.4435 3.24017 75.3993 3.31144C75.3552 3.37933 75.2907 3.43194 75.2059 3.46927C75.1244 3.50322 75.026 3.52019 74.9106 3.52019H74.2131V4.18714H74.9717C75.2771 4.18714 75.5317 4.13793 75.7354 4.03949C75.939 3.94106 76.0934 3.8053 76.1987 3.63219C76.3039 3.4557 76.3565 3.25374 76.3565 3.02633C76.3565 2.79553 76.3039 2.59358 76.1987 2.42047C76.0934 2.24398 75.939 2.10651 75.7354 2.00808C75.5317 1.90965 75.2771 1.86044 74.9717 1.86044H74.2131V2.58849ZM83.2209 1.86044L82.5234 3.19944L81.8259 1.86044H80.8381L82.0855 3.9784V5.42432H82.9612V3.97331L84.2086 1.86044H83.2209ZM84.8203 4.17187L84.2195 4.60462C84.301 4.77433 84.4147 4.93046 84.5606 5.07302C84.7066 5.21557 84.878 5.32928 85.0749 5.41413C85.2751 5.49559 85.4906 5.53632 85.7215 5.53632C85.8878 5.53632 86.049 5.51087 86.2051 5.45996C86.3646 5.41244 86.5055 5.34116 86.6277 5.24612C86.7533 5.15109 86.8517 5.03399 86.923 4.89483C86.9977 4.75227 87.035 4.59105 87.035 4.41116C87.035 4.26181 87.0112 4.12944 86.9637 4.01404C86.9162 3.89864 86.85 3.79681 86.7652 3.70856C86.6837 3.62031 86.5887 3.54564 86.4801 3.48455C86.3714 3.42006 86.2543 3.36405 86.1288 3.31654C85.9624 3.25884 85.8199 3.20453 85.7011 3.15362C85.5857 3.1027 85.4957 3.0467 85.4313 2.9856C85.3702 2.92451 85.3396 2.85323 85.3396 2.77177C85.3396 2.69371 85.3719 2.62922 85.4363 2.5783C85.5008 2.524 85.5942 2.49684 85.7164 2.49684C85.808 2.49684 85.8929 2.51551 85.9709 2.55285C86.0524 2.58679 86.1254 2.636 86.1898 2.70049C86.2577 2.76159 86.3171 2.83456 86.368 2.91942L87.0248 2.55285C86.9637 2.43066 86.8755 2.31016 86.7601 2.19137C86.6447 2.07257 86.4987 1.97414 86.3222 1.89608C86.1491 1.81801 85.9438 1.77898 85.7062 1.77898C85.4754 1.77898 85.2649 1.81971 85.0749 1.90117C84.8882 1.97923 84.7388 2.09463 84.6268 2.24737C84.5182 2.40011 84.4639 2.5817 84.4639 2.79214C84.4639 2.96863 84.4962 3.11967 84.5606 3.24526C84.6251 3.36745 84.7066 3.47267 84.805 3.56092C84.9035 3.64577 85.007 3.71535 85.1156 3.76966C85.2276 3.82396 85.326 3.86639 85.4109 3.89694C85.584 3.96143 85.7232 4.01913 85.8284 4.07004C85.9336 4.12095 86.01 4.17526 86.0575 4.23296C86.105 4.28727 86.1288 4.36024 86.1288 4.45189C86.1288 4.5605 86.088 4.64705 86.0066 4.71154C85.9251 4.77264 85.8216 4.80318 85.696 4.80318C85.5772 4.80318 85.4635 4.77773 85.3549 4.72681C85.2497 4.6759 85.1512 4.60293 85.0596 4.50789C84.9713 4.41285 84.8916 4.30085 84.8203 4.17187ZM87.1012 2.62922H88.0787V5.42432H88.9391V2.62922H89.9217V1.86044H87.1012V2.62922ZM90.7289 5.42432H92.5262V4.71663H90.7289V5.42432ZM90.7289 2.56812H92.5262V1.86044H90.7289V2.56812ZM90.7289 3.89694H92.4243V3.20453H90.7289V3.89694ZM90.1587 1.86044V5.42432H90.9835V1.86044H90.1587ZM93.9901 3.60674L94.9625 5.09338L95.94 3.60674L96.1539 5.42432H97.0601L96.4848 1.68224L94.9625 3.85621L93.4453 1.68224L92.87 5.42432H93.7763L93.9901 3.60674ZM107.191 3.60674L108.164 5.09338L109.141 3.60674L109.355 5.42432H110.261L109.686 1.68224L108.164 3.85621L106.646 1.68224L106.071 5.42432H106.977L107.191 3.60674ZM110.656 1.86044V5.42432H111.517V1.86044H110.656ZM111.196 2.56812H111.894C112.067 2.56812 112.202 2.60715 112.301 2.68522C112.399 2.76329 112.449 2.87699 112.449 3.02633C112.449 3.17228 112.399 3.28429 112.301 3.36236C112.202 3.44042 112.067 3.47946 111.894 3.47946H111.196V4.18714H111.894C112.196 4.18714 112.449 4.14132 112.652 4.04968C112.859 3.95464 113.015 3.82057 113.121 3.64747C113.226 3.47097 113.278 3.26393 113.278 3.02633C113.278 2.78195 113.226 2.57321 113.121 2.40011C113.015 2.22701 112.859 2.09463 112.652 2.00299C112.449 1.90795 112.196 1.86044 111.894 1.86044H111.196V2.56812ZM114.246 5.42432H116.043V4.71663H114.246V5.42432ZM114.246 2.56812H116.043V1.86044H114.246V2.56812ZM114.246 3.89694H115.941V3.20453H114.246V3.89694ZM113.676 1.86044V5.42432H114.501V1.86044H113.676ZM116.234 2.62922H117.212V5.42432H118.072V2.62922H119.055V1.86044H116.234V2.62922ZM119.292 1.86044V5.42432H120.168V1.86044H119.292ZM120.414 2.62922H121.391V5.42432H122.251V2.62922H123.234V1.86044H120.414V2.62922ZM123.471 1.86044V5.42432H124.347V1.86044H123.471ZM125.657 3.64238C125.657 3.43194 125.698 3.24696 125.779 3.08743C125.864 2.92451 125.981 2.79723 126.13 2.70559C126.283 2.61394 126.461 2.56812 126.665 2.56812C126.872 2.56812 127.05 2.61394 127.199 2.70559C127.349 2.79723 127.464 2.92451 127.546 3.08743C127.627 3.24696 127.668 3.43194 127.668 3.64238C127.668 3.85282 127.625 4.03949 127.541 4.20241C127.459 4.36194 127.342 4.48753 127.189 4.57917C127.04 4.67081 126.865 4.71663 126.665 4.71663C126.461 4.71663 126.283 4.67081 126.13 4.57917C125.981 4.48753 125.864 4.36194 125.779 4.20241C125.698 4.03949 125.657 3.85282 125.657 3.64238ZM124.745 3.64238C124.745 3.9173 124.791 4.17017 124.883 4.40097C124.978 4.63178 125.11 4.83203 125.28 5.00174C125.453 5.17145 125.657 5.30382 125.891 5.39886C126.125 5.4905 126.383 5.53632 126.665 5.53632C126.943 5.53632 127.199 5.4905 127.434 5.39886C127.668 5.30382 127.87 5.17145 128.04 5.00174C128.213 4.83203 128.345 4.63178 128.437 4.40097C128.532 4.17017 128.579 3.9173 128.579 3.64238C128.579 3.36745 128.532 3.11628 128.437 2.88887C128.342 2.66146 128.208 2.4646 128.034 2.29828C127.861 2.13197 127.658 2.00469 127.423 1.91644C127.193 1.8248 126.94 1.77898 126.665 1.77898C126.393 1.77898 126.14 1.8248 125.906 1.91644C125.672 2.00469 125.468 2.13197 125.295 2.29828C125.122 2.4646 124.986 2.66146 124.888 2.88887C124.793 3.11628 124.745 3.36745 124.745 3.64238ZM131.437 1.86044V3.86639L128.978 1.68224V5.42432H129.803V3.41836L132.267 5.60251V1.86044H131.437ZM133.966 5.42432H136.985V4.63517H135.559L136.389 3.89185C136.542 3.75948 136.666 3.61353 136.761 3.454C136.856 3.29108 136.904 3.11289 136.904 2.91942C136.904 2.78365 136.875 2.64958 136.817 2.51721C136.759 2.38484 136.673 2.26434 136.557 2.15573C136.445 2.04372 136.305 1.95547 136.135 1.89098C135.965 1.8231 135.77 1.78916 135.549 1.78916C135.244 1.78916 134.984 1.85195 134.77 1.97754C134.56 2.10312 134.402 2.27113 134.297 2.48157C134.192 2.69201 134.139 2.92451 134.139 3.17907H134.984C134.984 3.05009 135.005 2.93639 135.045 2.83796C135.089 2.73953 135.152 2.66316 135.234 2.60885C135.319 2.55454 135.415 2.52739 135.524 2.52739C135.605 2.52739 135.677 2.54097 135.738 2.56812C135.799 2.59188 135.85 2.62582 135.89 2.66995C135.931 2.71068 135.962 2.75819 135.982 2.8125C136.002 2.86681 136.013 2.92112 136.013 2.97542C136.013 3.07046 135.994 3.1604 135.957 3.24526C135.923 3.32672 135.87 3.40988 135.799 3.49473C135.731 3.57958 135.649 3.67462 135.554 3.77984L133.966 5.42432ZM138.086 3.64238C138.086 3.47606 138.101 3.32502 138.132 3.18925C138.162 3.05009 138.207 2.93299 138.264 2.83796C138.322 2.73953 138.39 2.66486 138.468 2.61394C138.549 2.55964 138.639 2.53248 138.738 2.53248C138.836 2.53248 138.924 2.55964 139.002 2.61394C139.084 2.66486 139.153 2.73953 139.211 2.83796C139.269 2.93299 139.313 3.05009 139.344 3.18925C139.374 3.32502 139.389 3.47606 139.389 3.64238C139.389 3.80869 139.374 3.96143 139.344 4.10059C139.313 4.23636 139.269 4.35346 139.211 4.45189C139.153 4.54692 139.084 4.62159 139.002 4.6759C138.924 4.72681 138.836 4.75227 138.738 4.75227C138.639 4.75227 138.549 4.72681 138.468 4.6759C138.39 4.62159 138.322 4.54692 138.264 4.45189C138.207 4.35346 138.162 4.23636 138.132 4.10059C138.101 3.96143 138.086 3.80869 138.086 3.64238ZM137.256 3.64238C137.256 4.02931 137.317 4.36024 137.439 4.63517C137.565 4.9101 137.74 5.12224 137.964 5.27158C138.188 5.41753 138.446 5.4905 138.738 5.4905C139.043 5.4905 139.306 5.41753 139.527 5.27158C139.747 5.12224 139.917 4.9101 140.036 4.63517C140.158 4.36024 140.219 4.02931 140.219 3.64238C140.219 3.25544 140.158 2.92451 140.036 2.64958C139.917 2.37465 139.747 2.16421 139.527 2.01827C139.306 1.86892 139.043 1.79425 138.738 1.79425C138.446 1.79425 138.188 1.86892 137.964 2.01827C137.74 2.16421 137.565 2.37465 137.439 2.64958C137.317 2.92451 137.256 3.25544 137.256 3.64238ZM140.373 5.42432H143.392V4.63517H141.966L142.796 3.89185C142.949 3.75948 143.073 3.61353 143.168 3.454C143.263 3.29108 143.31 3.11289 143.31 2.91942C143.31 2.78365 143.281 2.64958 143.224 2.51721C143.166 2.38484 143.079 2.26434 142.964 2.15573C142.852 2.04372 142.711 1.95547 142.541 1.89098C142.372 1.8231 142.177 1.78916 141.956 1.78916C141.65 1.78916 141.391 1.85195 141.177 1.97754C140.967 2.10312 140.809 2.27113 140.703 2.48157C140.598 2.69201 140.546 2.92451 140.546 3.17907H141.391C141.391 3.05009 141.411 2.93639 141.452 2.83796C141.496 2.73953 141.559 2.66316 141.64 2.60885C141.725 2.55454 141.822 2.52739 141.93 2.52739C142.012 2.52739 142.083 2.54097 142.144 2.56812C142.205 2.59188 142.256 2.62582 142.297 2.66995C142.338 2.71068 142.368 2.75819 142.389 2.8125C142.409 2.86681 142.419 2.92112 142.419 2.97542C142.419 3.07046 142.401 3.1604 142.363 3.24526C142.329 3.32672 142.277 3.40988 142.205 3.49473C142.138 3.57958 142.056 3.67462 141.961 3.77984L140.373 5.42432ZM144.859 3.69838C145.141 3.69838 145.396 3.66444 145.623 3.59656C145.85 3.52867 146.03 3.42685 146.163 3.29108C146.298 3.15531 146.366 2.9856 146.366 2.78195C146.366 2.59867 146.317 2.43235 146.219 2.28301C146.124 2.13367 145.983 2.01487 145.796 1.92662C145.609 1.83837 145.382 1.79425 145.114 1.79425C144.863 1.79425 144.642 1.84347 144.452 1.9419C144.262 2.03693 144.114 2.16931 144.009 2.33901C143.907 2.50533 143.856 2.69371 143.856 2.90414H144.645C144.645 2.77856 144.69 2.67673 144.778 2.59867C144.866 2.5206 144.978 2.48157 145.114 2.48157C145.205 2.48157 145.28 2.49684 145.338 2.52739C145.396 2.55454 145.44 2.59527 145.47 2.64958C145.501 2.70389 145.516 2.76498 145.516 2.83287C145.516 2.89736 145.501 2.95845 145.47 3.01615C145.44 3.07385 145.394 3.12477 145.333 3.16889C145.275 3.21301 145.205 3.24865 145.124 3.27581C145.046 3.29957 144.958 3.31144 144.859 3.31144V3.69838ZM145.073 5.50578C145.365 5.50578 145.614 5.46165 145.821 5.3734C146.029 5.28176 146.188 5.15787 146.3 5.00174C146.412 4.84222 146.468 4.65893 146.468 4.45189C146.468 4.272 146.429 4.11756 146.351 3.98858C146.273 3.8596 146.161 3.75438 146.015 3.67292C145.869 3.58807 145.698 3.52697 145.501 3.48964C145.307 3.44891 145.093 3.42854 144.859 3.42854V3.86639C144.988 3.86639 145.1 3.87827 145.195 3.90203C145.29 3.92579 145.368 3.96143 145.429 4.00895C145.494 4.05307 145.541 4.10568 145.572 4.16678C145.603 4.22787 145.618 4.29575 145.618 4.37043C145.618 4.46886 145.596 4.55201 145.552 4.6199C145.508 4.68778 145.446 4.737 145.368 4.76754C145.294 4.79809 145.205 4.81337 145.104 4.81337C145.009 4.81337 144.917 4.7947 144.829 4.75736C144.744 4.72003 144.676 4.66232 144.625 4.58426C144.574 4.50619 144.549 4.40946 144.549 4.29406H143.704C143.704 4.45019 143.734 4.60123 143.795 4.74718C143.86 4.89313 143.95 5.0238 144.065 5.13921C144.184 5.25461 144.328 5.34455 144.498 5.40904C144.667 5.47353 144.859 5.50578 145.073 5.50578Z" fill="#D8DDDF"/>
<defs>
<filter id="filter0_i_1531_1317" x="3.22461" y="10.8159" width="142.976" height="33.5175" filterUnits="userSpaceOnUse" color-interpolation-filters="sRGB">
<feFlood flood-opacity="0" result="BackgroundImageFix"/>
<feBlend mode="normal" in="SourceGraphic" in2="BackgroundImageFix" result="shape"/>
<feColorMatrix in="SourceAlpha" type="matrix" values="0 0 0 0 0 0 0 0 0 0 0 0 0 0 0 0 0 0 127 0" result="hardAlpha"/>
<feOffset dy="0.848543"/>
<feGaussianBlur stdDeviation="1.59102"/>
<feComposite in2="hardAlpha" operator="arithmetic" k2="-1" k3="1"/>
<feColorMatrix type="matrix" values="0 0 0 0 0 0 0 0 0 0 0 0 0 0 0 0 0 0 0.25 0"/>
<feBlend mode="normal" in2="shape" result="effect1_innerShadow_1531_1317"/>
</filter>
<filter id="filter1_i_1531_1317" x="59.3984" y="9.97021" width="22.2739" height="33.9418" filterUnits="userSpaceOnUse" color-interpolation-filters="sRGB">
<feFlood flood-opacity="0" result="BackgroundImageFix"/>
<feBlend mode="normal" in="SourceGraphic" in2="BackgroundImageFix" result="shape"/>
<feColorMatrix in="SourceAlpha" type="matrix" values="0 0 0 0 0 0 0 0 0 0 0 0 0 0 0 0 0 0 127 0" result="hardAlpha"/>
<feOffset dx="0.424271" dy="0.848543"/>
<feGaussianBlur stdDeviation="0.530339"/>
<feComposite in2="hardAlpha" operator="arithmetic" k2="-1" k3="1"/>
<feColorMatrix type="matrix" values="0 0 0 0 0 0 0 0 0 0 0 0 0 0 0 0 0 0 0.25 0"/>
<feBlend mode="normal" in2="shape" result="effect1_innerShadow_1531_1317"/>
</filter>
<linearGradient id="paint0_linear_1531_1317" x1="74" y1="0" x2="74" y2="45" gradientUnits="userSpaceOnUse">
<stop offset="0.458333" stop-color="#05C2FC"/>
<stop offset="1" stop-color="#0DF8CF"/>
</linearGradient>
<linearGradient id="paint1_linear_1531_1317" x1="74.1973" y1="0.424316" x2="74.1973" y2="7.42432" gradientUnits="userSpaceOnUse">
<stop stop-color="#05C2FC"/>
<stop offset="1" stop-color="#0DF8CF"/>
</linearGradient>
</defs>
</svg>
