<svg width="190" height="351" viewBox="0 0 190 351" fill="none" xmlns="http://www.w3.org/2000/svg">
<path d="M189 47L189.768 47.6402L190 47.362V47H189ZM174 65V66H174.468L174.768 65.6402L174 65ZM107 65V64H106.582L106.289 64.297L107 65ZM64.5 108L63.7888 107.297L63.5 107.589V108H64.5ZM64.5 167.5L65.2071 168.207L65.5 167.914V167.5H64.5ZM51.5 180.5L50.7929 179.793L50.5 180.086V180.5H51.5ZM51.5 200.5L52.2288 201.185L52.5 200.896V200.5H51.5ZM36 217V218H36.4326L36.7288 217.685L36 217ZM-1.83333 217C-1.83333 219.946 0.554481 222.333 3.5 222.333C6.44552 222.333 8.83333 219.946 8.83333 217C8.83333 214.054 6.44552 211.667 3.5 211.667C0.554481 211.667 -1.83333 214.054 -1.83333 217ZM188 6V47H190V6H188ZM188.232 46.3598L173.232 64.3598L174.768 65.6402L189.768 47.6402L188.232 46.3598ZM174 64H107V66H174V64ZM106.289 64.297L63.7888 107.297L65.2112 108.703L107.711 65.703L106.289 64.297ZM63.5 108V167.5H65.5V108H63.5ZM63.7929 166.793L50.7929 179.793L52.2071 181.207L65.2071 168.207L63.7929 166.793ZM50.5 180.5V200.5H52.5V180.5H50.5ZM50.7712 199.815L35.2712 216.315L36.7288 217.685L52.2288 201.185L50.7712 199.815ZM36 216H3.5V218H36V216Z" fill="url(#paint0_linear_511_1043)"/>
<path d="M27 17H26V17.4233L26.3039 17.7179L27 17ZM43.5 33H44.5V32.5767L44.1961 32.2821L43.5 33ZM42.5 75C42.5 75.5523 42.9477 76 43.5 76C44.0523 76 44.5 75.5523 44.5 75H42.5ZM26 6.5V17H28V6.5H26ZM26.3039 17.7179L42.8039 33.7179L44.1961 32.2821L27.6961 16.2821L26.3039 17.7179ZM42.5 33V75H44.5V33H42.5Z" fill="url(#paint1_linear_511_1043)"/>
<path d="M29 23L20 32V64L12 74H1.5" stroke="url(#paint2_linear_511_1043)" stroke-width="2"/>
<path d="M48.5 17.5V16.5H48.0721L47.7766 16.8095L48.5 17.5ZM103 17.5V18.5H103.402L103.692 18.222L103 17.5ZM109.667 6C109.667 8.94552 112.054 11.3333 115 11.3333C117.946 11.3333 120.333 8.94552 120.333 6C120.333 3.05448 117.946 0.666667 115 0.666667C112.054 0.666667 109.667 3.05448 109.667 6ZM38.7234 29.1905L49.2234 18.1905L47.7766 16.8095L37.2766 27.8095L38.7234 29.1905ZM48.5 18.5H103V16.5H48.5V18.5ZM103.692 18.222L115.692 6.72199L114.308 5.27801L102.308 16.778L103.692 18.222Z" fill="url(#paint3_linear_511_1043)"/>
<path d="M44 42H145.5L160.5 27.5H189" stroke="url(#paint4_linear_511_1043)" stroke-width="2"/>
<path d="M43.5 76L26.5 92.5V164.5L14.5 177M14.5 177V157L-1 141.5M14.5 177V247.5L26.5 262V350.5" stroke="url(#paint5_linear_511_1043)" stroke-width="2"/>
<path d="M65.0391 67.2787C65.031 67.1053 65.1713 66.9612 65.3448 66.9647L93.4527 67.5315C93.7151 67.5367 93.8447 67.8526 93.6616 68.0407L66.8716 95.5566C66.6885 95.7447 66.3692 95.6236 66.3569 95.3614L65.0391 67.2787Z" fill="url(#paint6_linear_511_1043)"/>
<circle cx="43" cy="76" r="4" fill="url(#paint7_linear_511_1043)"/>
<path d="M57.1172 181.883L66.3172 172.683C66.5691 172.431 67 172.609 67 172.966V188.334C67 188.44 66.9579 188.542 66.8828 188.617L57.6828 197.817C57.4309 198.069 57 197.891 57 197.534V182.166C57 182.06 57.0421 181.958 57.1172 181.883Z" fill="url(#paint8_linear_511_1043)"/>
<defs>
<linearGradient id="paint0_linear_511_1043" x1="96.25" y1="6" x2="96.9405" y2="160.015" gradientUnits="userSpaceOnUse">
<stop stop-color="#05C2FC"/>
<stop offset="1" stop-color="#0DF8CF"/>
</linearGradient>
<linearGradient id="paint1_linear_511_1043" x1="35.25" y1="6.5" x2="36.068" y2="56.4879" gradientUnits="userSpaceOnUse">
<stop stop-color="#05C2FC"/>
<stop offset="1" stop-color="#0DF8CF"/>
</linearGradient>
<linearGradient id="paint2_linear_511_1043" x1="15.25" y1="23" x2="15.5221" y2="60.2252" gradientUnits="userSpaceOnUse">
<stop stop-color="#05C2FC"/>
<stop offset="1" stop-color="#0DF8CF"/>
</linearGradient>
<linearGradient id="paint3_linear_511_1043" x1="76.5" y1="6" x2="76.5189" y2="22.4237" gradientUnits="userSpaceOnUse">
<stop stop-color="#05C2FC"/>
<stop offset="1" stop-color="#0DF8CF"/>
</linearGradient>
<linearGradient id="paint4_linear_511_1043" x1="116.5" y1="27.5" x2="116.504" y2="38.0842" gradientUnits="userSpaceOnUse">
<stop stop-color="#05C2FC"/>
<stop offset="1" stop-color="#0DF8CF"/>
</linearGradient>
<linearGradient id="paint5_linear_511_1043" x1="22.75" y1="76" x2="23.4572" y2="149.718" gradientUnits="userSpaceOnUse">
<stop stop-color="#05C2FC"/>
<stop offset="1" stop-color="#0DF8CF"/>
</linearGradient>
<linearGradient id="paint6_linear_511_1043" x1="65.0241" y1="66.9582" x2="85.3474" y2="86.7455" gradientUnits="userSpaceOnUse">
<stop stop-color="#05C2FC"/>
<stop offset="0.927083" stop-color="#0DF8CF"/>
<stop offset="1" stop-color="#D9D9D9" stop-opacity="0"/>
</linearGradient>
<linearGradient id="paint7_linear_511_1043" x1="43" y1="72" x2="43" y2="80" gradientUnits="userSpaceOnUse">
<stop stop-color="#05C5F9"/>
<stop offset="1" stop-color="#0DF8CF"/>
</linearGradient>
<linearGradient id="paint8_linear_511_1043" x1="62" y1="172" x2="62" y2="198.5" gradientUnits="userSpaceOnUse">
<stop stop-color="#0DF8CF"/>
<stop offset="1" stop-color="#05C2FC"/>
</linearGradient>
</defs>
</svg>
