<svg width="461" height="287" viewBox="0 0 461 287" fill="none" xmlns="http://www.w3.org/2000/svg">
<path opacity="0.3" d="M461 286L438.348 255.77M461 286V205.653M461 286H368.008M438.348 255.77L461 205.653M438.348 255.77L368.008 286M438.348 255.77L367.61 256.964M438.348 255.77L396.223 224.745M461 205.653L408.94 191.333M461 205.653V167.07M368.008 286L367.61 256.964M368.008 286L311.179 255.77M368.008 286H273.029M367.61 256.964L311.179 255.77M311.179 255.77L273.029 286M311.179 255.77L246.403 264.123M311.179 255.77L273.029 201.675M311.179 255.77L315.551 186.958M311.179 255.77L343.369 205.653M273.029 286L246.403 264.123M273.029 286H182.818M246.403 264.123L182.818 286M246.403 264.123L170.896 218.779M246.403 264.123L225.34 224.745M246.403 264.123L273.029 201.675M182.818 286L110.094 271.681M182.818 286L144.668 261.339M182.818 286L170.896 218.779M81.4805 286L91.813 233.098M81.4805 286L110.094 271.681M81.4805 286H2.00001M81.4805 286L57.239 268.896M91.813 233.098L110.094 271.681M91.813 233.098L144.668 261.339M91.813 233.098L2.00001 286M91.813 233.098L57.239 268.896M110.094 271.681L144.668 261.339M144.668 261.339L170.896 218.779M170.896 218.779L225.34 224.745M225.34 224.745L273.029 201.675M273.029 201.675V130.476M273.029 201.675L315.551 186.958M273.029 130.476L325.088 147.58M273.029 130.476L315.551 186.958M325.088 147.58L315.551 186.958M325.088 147.58L385.096 167.07M325.088 147.58L367.61 118.146M315.551 186.958L343.369 205.653M343.369 205.653L367.61 255.77L396.223 224.745M343.369 205.653L396.223 224.745M343.369 205.653L408.94 191.333M343.369 205.653L385.096 167.07M396.223 224.745L408.94 191.333M408.94 191.333L385.096 167.07M408.94 191.333L431.99 144M408.94 191.333L461 167.07M385.096 167.07L431.99 144M385.096 167.07L367.61 118.146M431.99 144L461 167.07M431.99 144L461 130.476M431.99 144L367.61 118.146M431.99 144L414.504 108.202M461 167.07V130.476M461 130.476L414.504 108.202M461 130.476V127.692M461 2L400.992 60.4706M461 2V80.7563M461 2V127.692M400.992 60.4706L343.369 80.7563M400.992 60.4706L414.504 108.202M400.992 60.4706L430.996 70.6134L461 80.7563M343.369 80.7563L367.61 118.146M343.369 80.7563L414.504 108.202M367.61 118.146L414.504 108.202M414.504 108.202L461 80.7563M461 80.7563V127.692M2.00001 286L57.239 268.896" stroke="url(#paint0_linear_916_988)"/>
<defs>
<linearGradient id="paint0_linear_916_988" x1="231.5" y1="286" x2="231.5" y2="2" gradientUnits="userSpaceOnUse">
<stop stop-color="#05C2FC"/>
<stop offset="1" stop-color="#0DF8CF"/>
</linearGradient>
</defs>
</svg>
