<svg width="184" height="391" viewBox="0 0 184 391" fill="none" xmlns="http://www.w3.org/2000/svg">
<path d="M193.626 344.055L194.327 344.769L194.626 344.475V344.055H193.626ZM193.626 288.011L192.915 287.308L192.626 287.601V288.011H193.626ZM286.636 193.809V192.809H286.218L285.925 193.106L286.636 193.809ZM303.959 193.809C303.959 196.754 306.347 199.142 309.293 199.142C312.238 199.142 314.626 196.754 314.626 193.809C314.626 190.863 312.238 188.475 309.293 188.475C306.347 188.475 303.959 190.863 303.959 193.809ZM95.3549 441.952L194.327 344.769L192.926 343.342L93.9537 440.525L95.3549 441.952ZM194.626 344.055V288.011H192.626V344.055H194.626ZM194.338 288.714L287.348 194.511L285.925 193.106L192.915 287.308L194.338 288.714ZM286.636 194.809H309.293V192.809H286.636V194.809Z" fill="white"/>
<path d="M157.257 271.913L157.964 272.62L158.257 272.327V271.913H157.257ZM157.257 242.102L156.536 241.409L156.257 241.699V242.102H157.257ZM182.927 209.906C182.927 212.852 185.314 215.24 188.26 215.24C191.205 215.24 193.593 212.852 193.593 209.906C193.593 206.961 191.205 204.573 188.26 204.573C185.314 204.573 182.927 206.961 182.927 209.906ZM129.941 300.642L157.964 272.62L156.55 271.206L128.527 299.228L129.941 300.642ZM158.257 271.913V242.102H156.257V271.913H158.257ZM157.977 242.796L188.98 210.6L187.54 209.213L156.536 241.409L157.977 242.796Z" fill="white"/>
<path d="M83.9226 422.756V423.756H84.3281L84.619 423.474L83.9226 422.756ZM138.807 364.327C138.807 367.272 141.195 369.66 144.141 369.66C147.086 369.66 149.474 367.272 149.474 364.327C149.474 361.381 147.086 358.994 144.141 358.994C141.195 358.994 138.807 361.381 138.807 364.327ZM33.2441 423.756H83.9226V421.756H33.2441V423.756ZM84.619 423.474L144.837 365.045L143.444 363.609L83.2263 422.039L84.619 423.474Z" fill="white"/>
<path d="M93.4618 393.542V394.542H93.8781L94.1714 394.246L93.4618 393.542ZM175.74 310.667L176.449 311.372L176.74 311.079V310.667H175.74ZM170.407 249.257C170.407 252.202 172.794 254.59 175.74 254.59C178.685 254.59 181.073 252.202 181.073 249.257C181.073 246.311 178.685 243.924 175.74 243.924C172.794 243.924 170.407 246.311 170.407 249.257ZM63.0547 394.542H93.4618V392.542H63.0547V394.542ZM94.1714 394.246L176.449 311.372L175.03 309.963L92.7521 392.837L94.1714 394.246ZM176.74 310.667V249.257H174.74V310.667H176.74Z" fill="white"/>
<path d="M72.5946 332.131L73.2995 332.84L73.5946 332.547V332.131H72.5946ZM72.5946 314.841L71.9141 314.108L71.5946 314.405V314.841H72.5946ZM89.2887 299.339L89.9691 300.072L90.2887 299.775V299.339H89.2887ZM89.2887 269.528L88.5816 268.821L88.2887 269.114V269.528H89.2887ZM108.996 244.487C108.996 247.433 111.384 249.82 114.33 249.82C117.275 249.82 119.663 247.433 119.663 244.487C119.663 241.542 117.275 239.154 114.33 239.154C111.384 239.154 108.996 241.542 108.996 244.487ZM-22.6916 428.235L73.2995 332.84L71.8897 331.422L-24.1014 426.817L-22.6916 428.235ZM73.5946 332.131V314.841H71.5946V332.131H73.5946ZM73.275 315.574L89.9691 300.072L88.6082 298.606L71.9141 314.108L73.275 315.574ZM90.2887 299.339V269.528H88.2887V299.339H90.2887ZM89.9958 270.235L115.037 245.194L113.623 243.78L88.5816 268.821L89.9958 270.235Z" fill="white"/>
<path d="M72.5938 269.528L71.8866 268.821L71.5938 269.114V269.528H72.5938ZM161.463 175.326C161.463 178.271 163.851 180.659 166.796 180.659C169.742 180.659 172.129 178.271 172.129 175.326C172.129 172.38 169.742 169.993 166.796 169.993C163.851 169.993 161.463 172.38 161.463 175.326ZM73.5938 313.648V269.528H71.5938V313.648H73.5938ZM73.3009 270.235L167.503 176.033L166.089 174.619L71.8866 268.821L73.3009 270.235Z" fill="white"/>
<path d="M23.7034 321.995L24.4145 322.699L24.7034 322.406V321.995H23.7034ZM23.7034 241.506L22.995 240.8L22.7034 241.093V241.506H23.7034ZM172.194 87.0856C172.194 90.0311 174.582 92.4189 177.528 92.4189C180.473 92.4189 182.861 90.0311 182.861 87.0856C182.861 84.1401 180.473 81.7522 177.528 81.7522C174.582 81.7522 172.194 84.1401 172.194 87.0856ZM-82.3085 430.614L24.4145 322.699L22.9924 321.292L-83.7306 429.208L-82.3085 430.614ZM24.7034 321.995V241.506H22.7034V321.995H24.7034ZM24.4119 242.212L101.324 165.002L99.9071 163.59L22.995 240.8L24.4119 242.212ZM101.324 165.002L178.236 87.7913L176.819 86.3798L99.9071 163.59L101.324 165.002Z" fill="white"/>
<path d="M76.7676 164.594L76.0605 163.887L75.7676 164.18V164.594H76.7676ZM133.441 102.587C133.441 105.533 135.829 107.92 138.774 107.92C141.72 107.92 144.108 105.533 144.108 102.587C144.108 99.6416 141.72 97.2538 138.774 97.2538C135.829 97.2538 133.441 99.6416 133.441 102.587ZM77.7676 187.25V164.594H75.7676V187.25H77.7676ZM77.4747 165.301L139.481 103.294L138.067 101.88L76.0605 163.887L77.4747 165.301Z" fill="white"/>
<path d="M-34.7246 381.021H-10.8759L51.1307 319.014V240.313L65.44 225.852M107.175 183.673L65.44 225.852M65.44 225.852H94.6546L183.491 135.379H213.302" stroke="white" stroke-width="2"/>
<path d="M14.76 372.078V373.078H15.1784L15.4722 372.78L14.76 372.078ZM50.5657 330.342C50.5657 333.288 52.9535 335.676 55.899 335.676C58.8445 335.676 61.2323 333.288 61.2323 330.342C61.2323 327.397 58.8445 325.009 55.899 325.009C52.9535 325.009 50.5657 327.397 50.5657 330.342ZM-1.33789 373.078H14.76V371.078H-1.33789V373.078ZM15.4722 372.78L56.6112 331.044L55.1868 329.64L14.0478 371.376L15.4722 372.78Z" fill="white"/>
<path d="M-11.472 268.932V267.932H-11.8862L-12.1791 268.225L-11.472 268.932ZM-4.88097 268.932C-4.88097 271.877 -2.49315 274.265 0.452368 274.265C3.39789 274.265 5.7857 271.877 5.7857 268.932C5.7857 265.986 3.39789 263.599 0.452368 263.599C-2.49315 263.599 -4.88097 265.986 -4.88097 268.932ZM-59.0585 317.933L-10.7649 269.639L-12.1791 268.225L-60.4727 316.518L-59.0585 317.933ZM-11.472 269.932H0.452368V267.932H-11.472V269.932Z" fill="white"/>
<path d="M-5.51056 313.649V314.649H-5.09635L-4.80345 314.356L-5.51056 313.649ZM-37.0775 313.649C-37.0775 316.594 -34.6897 318.982 -31.7441 318.982C-28.7986 318.982 -26.4108 316.594 -26.4108 313.649C-26.4108 310.703 -28.7986 308.315 -31.7441 308.315C-34.6897 308.315 -37.0775 310.703 -37.0775 313.649ZM22.997 283.727L-6.21767 312.941L-4.80345 314.356L24.4112 285.141L22.997 283.727ZM-5.51056 312.649H-31.7441V314.649H-5.51056V312.649Z" fill="white"/>
<path d="M-30.5509 256.411V257.411H-30.1366L-29.8437 257.119L-30.5509 256.411ZM44.009 176.518C44.009 179.464 46.3968 181.852 49.3423 181.852C52.2878 181.852 54.6757 179.464 54.6757 176.518C54.6757 173.573 52.2878 171.185 49.3423 171.185C46.3968 171.185 44.009 173.573 44.009 176.518ZM-62.1504 257.411H-30.5509V255.411H-62.1504V257.411ZM-29.8437 257.119L50.0494 177.225L48.6352 175.811L-31.258 255.704L-29.8437 257.119Z" fill="white"/>
<path d="M12.9725 230.178V231.178H13.3867L13.6796 230.885L12.9725 230.178ZM42.816 195.001C42.816 197.946 45.2038 200.334 48.1493 200.334C51.0948 200.334 53.4827 197.946 53.4827 195.001C53.4827 192.055 51.0948 189.668 48.1493 189.668C45.2038 189.668 42.816 192.055 42.816 195.001ZM-4.91406 231.178H12.9725V229.178H-4.91406V231.178ZM13.6796 230.885L48.8564 195.708L47.4422 194.294L12.2654 229.471L13.6796 230.885Z" fill="white"/>
<path d="M-61.5561 200.367V199.367H-61.9777L-62.2721 199.669L-61.5561 200.367ZM-32.9376 200.367V201.367H-32.5199L-32.2263 201.07L-32.9376 200.367ZM66.0345 100.202V99.2024H65.6168L65.3232 99.4995L66.0345 100.202ZM80.3763 100.202C80.3763 103.148 82.7642 105.536 85.7097 105.536C88.6552 105.536 91.043 103.148 91.043 100.202C91.043 97.2569 88.6552 94.8691 85.7097 94.8691C82.7642 94.8691 80.3763 97.2569 80.3763 100.202ZM-84.0926 224.914L-60.8401 201.065L-62.2721 199.669L-85.5246 223.518L-84.0926 224.914ZM-61.5561 201.367H-32.9376V199.367H-61.5561V201.367ZM-32.2263 201.07L66.7458 100.905L65.3232 99.4995L-33.649 199.664L-32.2263 201.07ZM66.0345 101.202H85.7097V99.2024H66.0345V101.202Z" fill="white"/>
<path d="M-10.877 133.591L-11.5885 132.888L-11.877 133.18V133.591H-10.877ZM82.133 39.3882L82.8446 40.0908L83.133 39.7987V39.3882H82.133ZM76.7997 6C76.7997 8.94552 79.1875 11.3333 82.133 11.3333C85.0785 11.3333 87.4663 8.94552 87.4663 6C87.4663 3.05448 85.0785 0.666667 82.133 0.666667C79.1875 0.666667 76.7997 3.05448 76.7997 6ZM-9.87695 176.518V133.591H-11.877V176.518H-9.87695ZM-10.1654 134.293L82.8446 40.0908L81.4214 38.6856L-11.5885 132.888L-10.1654 134.293ZM83.133 39.3882V6H81.133V39.3882H83.133Z" fill="white"/>
<path d="M282.494 274.894C282.494 277.84 284.882 280.228 287.828 280.228C290.773 280.228 293.161 277.84 293.161 274.894C293.161 271.949 290.773 269.561 287.828 269.561C284.882 269.561 282.494 271.949 282.494 274.894ZM123.982 441.942L288.539 275.598L287.117 274.191L122.561 440.536L123.982 441.942Z" fill="white"/>
<path d="M201.378 408.447V407.447H200.968L200.677 407.734L201.378 408.447ZM274.712 408.447V409.447H275.125L275.418 409.155L274.712 408.447ZM429.729 254.027V253.027H429.316L429.023 253.318L429.729 254.027ZM486.402 254.027C486.402 256.972 488.79 259.36 491.736 259.36C494.681 259.36 497.069 256.972 497.069 254.027C497.069 251.081 494.681 248.693 491.736 248.693C488.79 248.693 486.402 251.081 486.402 254.027ZM167.498 443.145L202.078 409.16L200.677 407.734L166.096 441.718L167.498 443.145ZM201.378 409.447H274.712V407.447H201.378V409.447ZM275.418 409.155L430.435 254.735L429.023 253.318L274.007 407.739L275.418 409.155ZM429.729 255.027H491.736V253.027H429.729V255.027Z" fill="white"/>
<path d="M-24.5902 428.718V427.718H-25.0045L-25.2973 428.011L-24.5902 428.718ZM7.60552 428.718V429.718H8.02306L8.31663 429.422L7.60552 428.718ZM111.944 323.188L112.655 323.891L112.944 323.599V323.188H111.944ZM106.61 269.528C106.61 272.474 108.998 274.862 111.944 274.862C114.889 274.862 117.277 272.474 117.277 269.528C117.277 266.583 114.889 264.195 111.944 264.195C108.998 264.195 106.61 266.583 106.61 269.528ZM-36.9999 442.542L-23.8831 429.426L-25.2973 428.011L-38.4141 441.128L-36.9999 442.542ZM-24.5902 429.718H7.60552V427.718H-24.5902V429.718ZM8.31663 429.422L112.655 323.891L111.233 322.485L6.8944 428.015L8.31663 429.422ZM112.944 323.188V269.528H110.944V323.188H112.944Z" fill="white"/>
<path d="M13.5684 441.835L128.042 327.362V242.102L200.185 168.171" stroke="white" stroke-width="2"/>
<path d="M-82.4232 311.264L-81.6095 311.845L-81.4232 311.584V311.264H-82.4232ZM-82.4232 275.49L-83.1331 274.786L-83.4232 275.079V275.49H-82.4232ZM63.0866 123.455C63.0866 126.4 65.4744 128.788 68.4199 128.788C71.3654 128.788 73.7532 126.4 73.7532 123.455C73.7532 120.509 71.3654 118.122 68.4199 118.122C65.4744 118.122 63.0866 120.509 63.0866 123.455ZM-84.5906 316.018L-81.6095 311.845L-83.2369 310.682L-86.218 314.856L-84.5906 316.018ZM-81.4232 311.264V275.49H-83.4232V311.264H-81.4232ZM-81.7133 276.195L69.1298 124.159L67.71 122.751L-83.1331 274.786L-81.7133 276.195Z" fill="white"/>
</svg>
