<svg width="240" height="314" viewBox="0 0 240 314" fill="none" xmlns="http://www.w3.org/2000/svg">
<path d="M-6.22096 213.573L43.8368 240.416M-6.22096 213.573L-0.72488 312.076M-6.22096 213.573L-17.3804 177.465M-6.22096 213.573L13.8477 183.63M74.0538 93.8001L179.309 91.868M74.0538 93.8001L56.9407 42.4417M74.0538 93.8001L190.676 46.5929M74.0538 93.8001L-29.7205 1.96498M74.0538 93.8001L33.9164 153.687M74.0538 93.8001L145.441 129.005M74.0538 93.8001L64.6939 139.215M74.0538 93.8001L92.0046 187.599M43.8368 240.416L-0.72488 312.076M43.8368 240.416L73.1827 311.286M43.8368 240.416L77.0842 203.959M43.8368 240.416L84.7367 243.946M43.8368 240.416L54.2653 189.815M43.8368 240.416L13.8477 183.63M179.309 91.868L238.395 45.3522L202.044 1.31771M179.309 91.868L190.676 46.5929M179.309 91.868L201.305 146.541M179.309 91.868L145.441 129.005M-0.72488 312.076L73.1827 311.286M73.1827 311.286L201.231 254.001M202.044 1.31771L-29.7205 1.96498M202.044 1.31771L190.676 46.5929M-29.7205 1.96498L56.9407 42.4417M-29.7205 1.96498L33.9164 153.687M-29.7205 1.96498L-17.3804 177.465M56.9407 42.4417L190.676 46.5929M33.9164 153.687L-17.3804 177.465M33.9164 153.687L13.8477 183.63M201.305 146.541L110.332 167.503M201.305 146.541L201.231 254.001M110.332 167.503L123.497 180.03M110.332 167.503L145.441 129.005M110.332 167.503L92.0046 187.599M201.231 254.001L136.661 192.558M201.231 254.001L122.298 222.184M201.231 254.001L116.053 246.649M77.0842 203.959L122.298 222.184M77.0842 203.959L84.7367 243.946M77.0842 203.959L116.053 246.649M77.0842 203.959L92.0046 187.599M136.661 192.558L122.298 222.184M136.661 192.558L123.497 180.03M122.298 222.184L123.497 180.03M84.7367 243.946L116.053 246.649M64.6939 139.215L92.0046 187.599M64.6939 139.215L54.2653 189.815M54.2653 189.815L13.8477 183.63" stroke="url(#paint0_linear_916_1055)" stroke-width="2"/>
<defs>
<linearGradient id="paint0_linear_916_1055" x1="80.9562" y1="-19.2158" x2="141.697" y2="298.174" gradientUnits="userSpaceOnUse">
<stop stop-color="#05C2FC"/>
<stop offset="1" stop-color="#0DF8CF"/>
</linearGradient>
</defs>
</svg>
