<svg width="456" height="596" viewBox="0 0 456 596" fill="none" xmlns="http://www.w3.org/2000/svg">
<path d="M415.999 565.5H54.0039V149.395C54.0039 149.395 54.0039 0 231.002 0C415.999 0 415.999 149.395 415.999 149.395V565.5Z" fill="url(#paint0_linear_747_1944)"/>
<path d="M235.437 181.696L272 215.696L379.687 510.164L57.6867 510.164L57.6869 292.696L131.937 215.696L235.437 181.696Z" fill="url(#paint1_linear_747_1944)"/>
<path d="M247.159 136C241.794 122.418 235.993 91.4428 255.709 76.2023C280.355 57.1517 305.5 36.8716 305.5 12" stroke="black" stroke-width="10"/>
<ellipse cx="199.5" cy="267.5" rx="88.5" ry="87.5" fill="white"/>
<rect x="187.111" y="148" width="99.5367" height="38" rx="10" transform="rotate(18.5848 187.111 148)" fill="#1F2326"/>
<rect x="215.111" y="119" width="69.0802" height="38" rx="10" transform="rotate(18.5848 215.111 119)" fill="#1F2326"/>
<path d="M213.912 199L198.999 220.298" stroke="#1F2326" stroke-width="4"/>
<path d="M228 203L228.842 228.986" stroke="#1F2326" stroke-width="4"/>
<defs>
<linearGradient id="paint0_linear_747_1944" x1="249.501" y1="215.561" x2="-3.77413" y2="476.258" gradientUnits="userSpaceOnUse">
<stop offset="0.0260485" stop-color="#05C2FC"/>
<stop offset="0.43529" stop-color="#08D8EA"/>
<stop offset="1" stop-color="#0DF8CF"/>
</linearGradient>
<linearGradient id="paint1_linear_747_1944" x1="244.738" y1="143.353" x2="154.187" y2="466.164" gradientUnits="userSpaceOnUse">
<stop stop-color="white"/>
<stop offset="1" stop-color="white" stop-opacity="0"/>
</linearGradient>
</defs>
</svg>
