<svg width="544" height="371" viewBox="0 0 544 371" fill="none" xmlns="http://www.w3.org/2000/svg">
<path d="M598 1L568.587 40.1709M598 1V105.112M598 1H477.252M568.587 40.1709L598 105.112M568.587 40.1709L477.252 1M568.587 40.1709L476.736 38.6247M568.587 40.1709L513.889 80.3726M598 105.112L530.402 123.667M598 105.112V155.106M477.252 1L476.736 38.6247M477.252 1L403.461 40.1709M477.252 1H353.924M476.736 38.6247L403.461 40.1709M403.461 40.1709L353.924 1M403.461 40.1709L319.351 29.3473M403.461 40.1709L353.924 110.266M403.461 40.1709L409.138 129.336M403.461 40.1709L445.259 105.112M353.924 1L319.351 29.3473M353.924 1H236.788M319.351 29.3473L236.788 1M319.351 29.3473L221.307 88.1036M319.351 29.3473L292.002 80.3726M319.351 29.3473L353.924 110.266M236.788 1L142.357 19.5546M236.788 1L187.25 32.9552M236.788 1L221.307 88.1036M105.203 1L118.62 69.549M105.203 1L142.357 19.5546M105.203 1H2M105.203 1L73.7264 23.1625M118.62 69.549L142.357 19.5546M118.62 69.549L187.25 32.9552M118.62 69.549L2 1M118.62 69.549L73.7264 23.1625M142.357 19.5546L187.25 32.9552M187.25 32.9552L221.307 88.1036M221.307 88.1036L292.002 80.3726M292.002 80.3726L353.924 110.266M353.924 110.266V202.524M353.924 110.266L409.138 129.336M353.924 202.524L421.522 180.361M353.924 202.524L409.138 129.336M421.522 180.361L409.138 129.336M421.522 180.361L499.441 155.106M421.522 180.361L476.736 218.501M409.138 129.336L445.259 105.112M445.259 105.112L476.736 40.1709L513.889 80.3726M445.259 105.112L513.889 80.3726M445.259 105.112L530.402 123.667M445.259 105.112L499.441 155.106M513.889 80.3726L530.402 123.667M530.402 123.667L499.441 155.106M530.402 123.667L560.331 185M530.402 123.667L598 155.106M499.441 155.106L560.331 185M499.441 155.106L476.736 218.501M560.331 185L598 155.106M560.331 185L598 202.524M560.331 185L476.736 218.501M560.331 185L537.626 231.387M598 155.106V202.524M598 202.524L537.626 231.387M598 202.524V206.132M598 369L520.081 293.235M598 369V266.95M598 369V206.132M520.081 293.235L445.259 266.95M520.081 293.235L537.626 231.387M520.081 293.235L559.041 280.092L598 266.95M445.259 266.95L476.736 218.501M445.259 266.95L537.626 231.387M476.736 218.501L537.626 231.387M537.626 231.387L598 266.95M598 266.95V206.132M2 1L73.7264 23.1625" stroke="url(#paint0_linear_916_1056)"/>
<defs>
<linearGradient id="paint0_linear_916_1056" x1="300" y1="1" x2="300" y2="369" gradientUnits="userSpaceOnUse">
<stop stop-color="#05C2FC"/>
<stop offset="1" stop-color="#0DF8CF"/>
</linearGradient>
</defs>
</svg>
