<svg width="160" height="185" viewBox="0 0 160 185" fill="none" xmlns="http://www.w3.org/2000/svg">
<path d="M56.7453 140.252L84.882 141.891M56.7453 140.252L79.7729 183.45M56.7453 140.252L44.1873 126.325M56.7453 140.252L59.5323 122.584M67.8931 69.5804L114.875 46.7484M67.8931 69.5804L49.4725 50.0299M67.8931 69.5804L110.546 23.9937M67.8931 69.5804L2.01232 49.89M67.8931 69.5804L62.3192 104.916M67.8931 69.5804L107.377 70.534M67.8931 69.5804L73.1555 91.9792M67.8931 69.5804L95.5462 108.063M84.882 141.891L79.7729 183.45M84.882 141.891L112.881 167.673M84.882 141.891L92.2429 118.541M84.882 141.891L104.032 134.946M84.882 141.891L79.0188 116.935M84.882 141.891L59.5323 122.584M114.875 46.7484L131.77 13.4784L106.217 1.23913M114.875 46.7484L110.546 23.9937M114.875 46.7484L136.186 66.7721M114.875 46.7484L107.377 70.534M79.7729 183.45L112.881 167.673M112.881 167.673L158.575 115.165M106.217 1.23913L2.01232 49.89M106.217 1.23913L110.546 23.9937M2.01232 49.89L49.4725 50.0299M2.01232 49.89L62.3192 104.916M2.01232 49.89L44.1873 126.325M49.4725 50.0299L110.546 23.9937M62.3192 104.916L44.1873 126.325M62.3192 104.916L59.5323 122.584M136.186 66.7721L99.6038 95.1913M136.186 66.7721L158.575 115.165M99.6038 95.1913L108.145 98.0841M99.6038 95.1913L107.377 70.534M99.6038 95.1913L95.5462 108.063M158.575 115.165L116.685 100.977M158.575 115.165L116.401 117.312M158.575 115.165L118.694 129.629M92.2429 118.541L116.401 117.312M92.2429 118.541L104.032 134.946M92.2429 118.541L118.694 129.629M92.2429 118.541L95.5462 108.063M116.685 100.977L116.401 117.312M116.685 100.977L108.145 98.0841M116.401 117.312L108.145 98.0841M104.032 134.946L118.694 129.629M73.1555 91.9792L95.5462 108.063M73.1555 91.9792L79.0188 116.935M79.0188 116.935L59.5323 122.584" stroke="white" stroke-width="2"/>
</svg>
