<svg width="18" height="17" viewBox="0 0 18 17" fill="none" xmlns="http://www.w3.org/2000/svg">
<path d="M16.9726 7.20715H16.3087V7.17323H8.8907V10.4425H13.5488C12.8692 12.3456 11.0432 13.7117 8.8907 13.7117C6.15962 13.7117 3.94534 11.516 3.94534 8.80784C3.94534 6.09969 6.15962 3.904 8.8907 3.904C10.1514 3.904 11.2983 4.37558 12.1715 5.1459L14.5029 2.83414C13.0308 1.47373 11.0617 0.634766 8.8907 0.634766C4.33891 0.634766 0.648438 4.29426 0.648438 8.80784C0.648438 13.3214 4.33891 16.9809 8.8907 16.9809C13.4425 16.9809 17.133 13.3214 17.133 8.80784C17.133 8.25984 17.0761 7.72491 16.9726 7.20715Z" fill="#FFC107"/>
<path d="M1.59961 5.00368L4.3076 6.97299C5.04034 5.17409 6.8149 3.904 8.89154 3.904C10.1522 3.904 11.2991 4.37558 12.1724 5.1459L14.5037 2.83414C13.0316 1.47373 11.0625 0.634766 8.89154 0.634766C5.72568 0.634766 2.98019 2.4071 1.59961 5.00368Z" fill="#FF3D00"/>
<path d="M8.89041 16.9807C11.0194 16.9807 12.9538 16.1728 14.4164 14.859L11.8654 12.7185C11.0379 13.3401 10.0093 13.7115 8.89041 13.7115C6.74659 13.7115 4.92629 12.356 4.24053 10.4644L1.55273 12.5178C2.91683 15.1647 5.68705 16.9807 8.89041 16.9807Z" fill="#4CAF50"/>
<path d="M16.9726 7.20701H16.3087V7.1731H8.89062V10.4423H13.5487C13.2223 11.3565 12.6293 12.1448 11.8644 12.7189C11.8648 12.7185 11.8653 12.7185 11.8657 12.7181L14.4166 14.8586C14.2361 15.0213 17.1329 12.8942 17.1329 8.80771C17.1329 8.25971 17.076 7.72478 16.9726 7.20701Z" fill="#1976D2"/>
</svg>
