<svg width="282" height="292" viewBox="0 0 282 292" fill="none" xmlns="http://www.w3.org/2000/svg">
<g filter="url(#filter0_d_1682_1163)">
<rect x="5" y="5" width="270" height="280.518" rx="10" fill="#22292F"/>
</g>
<path d="M5 142V276C5 281.523 9.47715 286 15 286H106" stroke="#0DF8CF" stroke-width="5" stroke-linecap="round"/>
<path d="M5 96V122" stroke="#0DF8CF" stroke-width="5" stroke-linecap="round"/>
<path d="M275 166L275 15C275 9.47717 270.523 5.00001 265 5.00001L169 5.00001" stroke="#0DF8CF" stroke-width="5" stroke-linecap="round"/>
<path d="M111.391 74.4492H168.927C168.927 74.4492 164.133 146.627 140.159 146.627C128.448 146.627 121.314 129.403 117.079 111.782C112.646 93.3329 111.391 74.4492 111.391 74.4492Z" stroke="url(#paint0_linear_1682_1163)" stroke-width="7.20462" stroke-linecap="round" stroke-linejoin="round"/>
<path d="M168.928 74.4489C168.928 74.4489 173.943 69.0989 178.111 69.0045C186.278 68.8196 187.788 74.4489 187.788 74.4489C189.386 77.7675 190.664 86.3956 182.993 94.36C175.322 102.324 166.734 109.293 163.239 111.782" stroke="url(#paint1_linear_1682_1163)" stroke-width="7.20462" stroke-linecap="round" stroke-linejoin="round"/>
<path d="M111.391 74.4499C111.391 74.4499 106.166 69.0388 101.889 69.0054C93.7222 68.9417 92.2124 74.4499 92.2124 74.4499C90.6141 77.7684 89.3356 86.3965 97.0071 94.3609C104.679 102.325 113.585 109.294 117.079 111.783" stroke="url(#paint2_linear_1682_1163)" stroke-width="7.20462" stroke-linecap="round" stroke-linejoin="round"/>
<path d="M120.98 161.56C120.98 151.604 140.159 146.626 140.159 146.626C140.159 146.626 159.338 151.604 159.338 161.56H120.98Z" stroke="url(#paint3_linear_1682_1163)" stroke-width="7.20462" stroke-linecap="round" stroke-linejoin="round"/>
<path d="M86.0864 213.416C86.0864 212.328 86.3318 211.352 86.8224 210.488C87.3131 209.613 87.9798 208.931 88.8224 208.44C89.6758 207.949 90.6198 207.704 91.6544 207.704C92.8704 207.704 93.9318 207.997 94.8384 208.584C95.7451 209.171 96.4064 210.003 96.8224 211.08H95.0784C94.7691 210.408 94.3211 209.891 93.7344 209.528C93.1584 209.165 92.4651 208.984 91.6544 208.984C90.8758 208.984 90.1771 209.165 89.5584 209.528C88.9398 209.891 88.4544 210.408 88.1024 211.08C87.7504 211.741 87.5744 212.52 87.5744 213.416C87.5744 214.301 87.7504 215.08 88.1024 215.752C88.4544 216.413 88.9398 216.925 89.5584 217.288C90.1771 217.651 90.8758 217.832 91.6544 217.832C92.4651 217.832 93.1584 217.656 93.7344 217.304C94.3211 216.941 94.7691 216.424 95.0784 215.752H96.8224C96.4064 216.819 95.7451 217.645 94.8384 218.232C93.9318 218.808 92.8704 219.096 91.6544 219.096C90.6198 219.096 89.6758 218.856 88.8224 218.376C87.9798 217.885 87.3131 217.208 86.8224 216.344C86.3318 215.48 86.0864 214.504 86.0864 213.416ZM102.814 219.144C101.992 219.144 101.246 218.957 100.574 218.584C99.9125 218.211 99.3898 217.683 99.0058 217C98.6325 216.307 98.4458 215.507 98.4458 214.6C98.4458 213.704 98.6378 212.915 99.0218 212.232C99.4165 211.539 99.9498 211.011 100.622 210.648C101.294 210.275 102.046 210.088 102.878 210.088C103.71 210.088 104.462 210.275 105.134 210.648C105.806 211.011 106.334 211.533 106.718 212.216C107.112 212.899 107.31 213.693 107.31 214.6C107.31 215.507 107.107 216.307 106.702 217C106.307 217.683 105.768 218.211 105.086 218.584C104.403 218.957 103.646 219.144 102.814 219.144ZM102.814 217.864C103.336 217.864 103.827 217.741 104.286 217.496C104.744 217.251 105.112 216.883 105.39 216.392C105.678 215.901 105.822 215.304 105.822 214.6C105.822 213.896 105.683 213.299 105.406 212.808C105.128 212.317 104.766 211.955 104.318 211.72C103.87 211.475 103.384 211.352 102.862 211.352C102.328 211.352 101.838 211.475 101.39 211.72C100.952 211.955 100.6 212.317 100.334 212.808C100.067 213.299 99.9338 213.896 99.9338 214.6C99.9338 215.315 100.062 215.917 100.318 216.408C100.584 216.899 100.936 217.267 101.374 217.512C101.811 217.747 102.291 217.864 102.814 217.864ZM119.768 210.072C120.451 210.072 121.059 210.216 121.592 210.504C122.126 210.781 122.547 211.203 122.856 211.768C123.166 212.333 123.32 213.021 123.32 213.832V219H121.88V214.04C121.88 213.165 121.662 212.499 121.224 212.04C120.798 211.571 120.216 211.336 119.48 211.336C118.723 211.336 118.12 211.581 117.672 212.072C117.224 212.552 117 213.251 117 214.168V219H115.56V214.04C115.56 213.165 115.342 212.499 114.904 212.04C114.478 211.571 113.896 211.336 113.16 211.336C112.403 211.336 111.8 211.581 111.352 212.072C110.904 212.552 110.68 213.251 110.68 214.168V219H109.224V210.232H110.68V211.496C110.968 211.037 111.352 210.685 111.832 210.44C112.323 210.195 112.862 210.072 113.448 210.072C114.184 210.072 114.835 210.237 115.4 210.568C115.966 210.899 116.387 211.384 116.664 212.024C116.91 211.405 117.315 210.925 117.88 210.584C118.446 210.243 119.075 210.072 119.768 210.072ZM127.165 211.848C127.453 211.347 127.879 210.931 128.445 210.6C129.021 210.259 129.687 210.088 130.445 210.088C131.223 210.088 131.927 210.275 132.557 210.648C133.197 211.021 133.698 211.549 134.061 212.232C134.423 212.904 134.605 213.688 134.605 214.584C134.605 215.469 134.423 216.259 134.061 216.952C133.698 217.645 133.197 218.184 132.557 218.568C131.927 218.952 131.223 219.144 130.445 219.144C129.698 219.144 129.037 218.979 128.461 218.648C127.895 218.307 127.463 217.885 127.165 217.384V223.16H125.709V210.232H127.165V211.848ZM133.117 214.584C133.117 213.923 132.983 213.347 132.717 212.856C132.45 212.365 132.087 211.992 131.629 211.736C131.181 211.48 130.685 211.352 130.141 211.352C129.607 211.352 129.111 211.485 128.653 211.752C128.205 212.008 127.842 212.387 127.565 212.888C127.298 213.379 127.165 213.949 127.165 214.6C127.165 215.261 127.298 215.843 127.565 216.344C127.842 216.835 128.205 217.213 128.653 217.48C129.111 217.736 129.607 217.864 130.141 217.864C130.685 217.864 131.181 217.736 131.629 217.48C132.087 217.213 132.45 216.835 132.717 216.344C132.983 215.843 133.117 215.256 133.117 214.584ZM144.521 214.28C144.521 214.557 144.505 214.851 144.473 215.16H137.465C137.518 216.024 137.812 216.701 138.345 217.192C138.889 217.672 139.545 217.912 140.313 217.912C140.942 217.912 141.465 217.768 141.881 217.48C142.308 217.181 142.606 216.787 142.777 216.296H144.345C144.11 217.139 143.641 217.827 142.937 218.36C142.233 218.883 141.358 219.144 140.313 219.144C139.481 219.144 138.734 218.957 138.073 218.584C137.422 218.211 136.91 217.683 136.537 217C136.164 216.307 135.977 215.507 135.977 214.6C135.977 213.693 136.158 212.899 136.521 212.216C136.884 211.533 137.39 211.011 138.041 210.648C138.702 210.275 139.46 210.088 140.313 210.088C141.145 210.088 141.881 210.269 142.521 210.632C143.161 210.995 143.652 211.496 143.993 212.136C144.345 212.765 144.521 213.48 144.521 214.28ZM143.017 213.976C143.017 213.421 142.894 212.947 142.649 212.552C142.404 212.147 142.068 211.843 141.641 211.64C141.225 211.427 140.761 211.32 140.249 211.32C139.513 211.32 138.884 211.555 138.361 212.024C137.849 212.493 137.556 213.144 137.481 213.976H143.017ZM148.219 211.432V216.6C148.219 217.027 148.31 217.331 148.491 217.512C148.672 217.683 148.987 217.768 149.435 217.768H150.507V219H149.195C148.384 219 147.776 218.813 147.371 218.44C146.966 218.067 146.763 217.453 146.763 216.6V211.432H145.627V210.232H146.763V208.024H148.219V210.232H150.507V211.432H148.219ZM153.023 208.808C152.746 208.808 152.511 208.712 152.319 208.52C152.127 208.328 152.031 208.093 152.031 207.816C152.031 207.539 152.127 207.304 152.319 207.112C152.511 206.92 152.746 206.824 153.023 206.824C153.29 206.824 153.514 206.92 153.695 207.112C153.887 207.304 153.983 207.539 153.983 207.816C153.983 208.093 153.887 208.328 153.695 208.52C153.514 208.712 153.29 208.808 153.023 208.808ZM153.727 210.232V219H152.271V210.232H153.727ZM157.985 211.432V216.6C157.985 217.027 158.075 217.331 158.257 217.512C158.438 217.683 158.753 217.768 159.201 217.768H160.273V219H158.961C158.15 219 157.542 218.813 157.137 218.44C156.731 218.067 156.529 217.453 156.529 216.6V211.432H155.393V210.232H156.529V208.024H157.985V210.232H160.273V211.432H157.985ZM162.789 208.808C162.511 208.808 162.277 208.712 162.085 208.52C161.893 208.328 161.797 208.093 161.797 207.816C161.797 207.539 161.893 207.304 162.085 207.112C162.277 206.92 162.511 206.824 162.789 206.824C163.055 206.824 163.279 206.92 163.461 207.112C163.653 207.304 163.749 207.539 163.749 207.816C163.749 208.093 163.653 208.328 163.461 208.52C163.279 208.712 163.055 208.808 162.789 208.808ZM163.493 210.232V219H162.037V210.232H163.493ZM169.798 219.144C168.977 219.144 168.23 218.957 167.558 218.584C166.897 218.211 166.374 217.683 165.99 217C165.617 216.307 165.43 215.507 165.43 214.6C165.43 213.704 165.622 212.915 166.006 212.232C166.401 211.539 166.934 211.011 167.606 210.648C168.278 210.275 169.03 210.088 169.862 210.088C170.694 210.088 171.446 210.275 172.118 210.648C172.79 211.011 173.318 211.533 173.702 212.216C174.097 212.899 174.294 213.693 174.294 214.6C174.294 215.507 174.092 216.307 173.686 217C173.292 217.683 172.753 218.211 172.07 218.584C171.388 218.957 170.63 219.144 169.798 219.144ZM169.798 217.864C170.321 217.864 170.812 217.741 171.27 217.496C171.729 217.251 172.097 216.883 172.374 216.392C172.662 215.901 172.806 215.304 172.806 214.6C172.806 213.896 172.668 213.299 172.39 212.808C172.113 212.317 171.75 211.955 171.302 211.72C170.854 211.475 170.369 211.352 169.846 211.352C169.313 211.352 168.822 211.475 168.374 211.72C167.937 211.955 167.585 212.317 167.318 212.808C167.052 213.299 166.918 213.896 166.918 214.6C166.918 215.315 167.046 215.917 167.302 216.408C167.569 216.899 167.921 217.267 168.358 217.512C168.796 217.747 169.276 217.864 169.798 217.864ZM180.481 210.072C181.547 210.072 182.411 210.397 183.073 211.048C183.734 211.688 184.065 212.616 184.065 213.832V219H182.625V214.04C182.625 213.165 182.406 212.499 181.969 212.04C181.531 211.571 180.934 211.336 180.177 211.336C179.409 211.336 178.795 211.576 178.337 212.056C177.889 212.536 177.665 213.235 177.665 214.152V219H176.209V210.232H177.665V211.48C177.953 211.032 178.342 210.685 178.833 210.44C179.334 210.195 179.883 210.072 180.481 210.072ZM190.085 208.76V207.432H193.093V219H191.621V208.76H190.085Z" fill="#F7F7F7"/>
<defs>
<filter id="filter0_d_1682_1163" x="0.796133" y="0.27065" width="280.51" height="291.028" filterUnits="userSpaceOnUse" color-interpolation-filters="sRGB">
<feFlood flood-opacity="0" result="BackgroundImageFix"/>
<feColorMatrix in="SourceAlpha" type="matrix" values="0 0 0 0 0 0 0 0 0 0 0 0 0 0 0 0 0 0 127 0" result="hardAlpha"/>
<feOffset dx="1.05097" dy="0.525483"/>
<feGaussianBlur stdDeviation="2.62742"/>
<feComposite in2="hardAlpha" operator="out"/>
<feColorMatrix type="matrix" values="0 0 0 0 0.0509804 0 0 0 0 0.972549 0 0 0 0 0.811765 0 0 0 0.25 0"/>
<feBlend mode="normal" in2="BackgroundImageFix" result="effect1_dropShadow_1682_1163"/>
<feBlend mode="normal" in="SourceGraphic" in2="effect1_dropShadow_1682_1163" result="shape"/>
</filter>
<linearGradient id="paint0_linear_1682_1163" x1="140.159" y1="74.4492" x2="140.159" y2="146.627" gradientUnits="userSpaceOnUse">
<stop stop-color="#05C2FC"/>
<stop offset="1" stop-color="#0DF8CF"/>
</linearGradient>
<linearGradient id="paint1_linear_1682_1163" x1="176.12" y1="69" x2="176.12" y2="111.782" gradientUnits="userSpaceOnUse">
<stop stop-color="#05C2FC"/>
<stop offset="1" stop-color="#0DF8CF"/>
</linearGradient>
<linearGradient id="paint2_linear_1682_1163" x1="104.04" y1="69.0049" x2="104.04" y2="111.783" gradientUnits="userSpaceOnUse">
<stop stop-color="#05C2FC"/>
<stop offset="1" stop-color="#0DF8CF"/>
</linearGradient>
<linearGradient id="paint3_linear_1682_1163" x1="140.159" y1="146.626" x2="140.159" y2="161.56" gradientUnits="userSpaceOnUse">
<stop stop-color="#05C2FC"/>
<stop offset="1" stop-color="#0DF8CF"/>
</linearGradient>
</defs>
</svg>
