<svg width="634" height="263" viewBox="0 0 634 263" fill="none" xmlns="http://www.w3.org/2000/svg">
<path d="M540.668 1.47754C540.668 0.207958 539.639 -0.821241 538.37 -0.821241C537.1 -0.821241 536.071 0.207958 536.071 1.47754C536.071 2.74712 537.1 3.77632 538.37 3.77632C539.639 3.77632 540.668 2.74712 540.668 1.47754ZM632.781 -92.097L538.067 1.17043L538.672 1.78465L633.385 -91.4828L632.781 -92.097Z" fill="url(#paint0_linear_1641_1472)"/>
<path d="M293.995 -8.64412L293.693 -8.95166L293.564 -8.82497V-8.64412H293.995ZM293.995 59.3182L294.301 59.621L294.426 59.4951V59.3182H293.995ZM181.206 173.553V173.984H181.386L181.513 173.856L181.206 173.553ZM156.031 173.553C156.031 172.283 155.002 171.254 153.732 171.254C152.462 171.254 151.433 172.283 151.433 173.553C151.433 174.822 152.462 175.852 153.732 175.852C155.002 175.852 156.031 174.822 156.031 173.553ZM413.711 -126.801L293.693 -8.95166L294.297 -8.33658L414.315 -126.186L413.711 -126.801ZM293.564 -8.64412V59.3182H294.426V-8.64412H293.564ZM293.688 59.0154L180.899 173.25L181.513 173.856L294.301 59.621L293.688 59.0154ZM181.206 173.122H153.732V173.984H181.206V173.122Z" fill="url(#paint1_linear_1641_1472)"/>
<path d="M338.097 78.8394L337.793 78.5346L337.666 78.6609V78.8394H338.097ZM338.097 114.99L338.408 115.289L338.528 115.163V114.99H338.097ZM302.8 154.032C302.8 152.762 301.771 151.733 300.501 151.733C299.232 151.733 298.203 152.762 298.203 154.032C298.203 155.301 299.232 156.331 300.501 156.331C301.771 156.331 302.8 155.301 302.8 154.032ZM371.774 44.5535L337.793 78.5346L338.402 79.1442L372.383 45.163L371.774 44.5535ZM337.666 78.8394V114.99H338.528V78.8394H337.666ZM337.787 114.691L300.191 153.733L300.812 154.331L338.408 115.289L337.787 114.691Z" fill="url(#paint2_linear_1641_1472)"/>
<path d="M415.459 -68.6528V-69.0839H415.279L415.153 -68.9565L415.459 -68.6528ZM315.684 31.8446L315.379 31.5409L315.253 31.667V31.8446H315.684ZM317.983 106.314C317.983 105.044 316.954 104.015 315.684 104.015C314.415 104.015 313.386 105.044 313.386 106.314C313.386 107.584 314.415 108.613 315.684 108.613C316.954 108.613 317.983 107.584 317.983 106.314ZM452.332 -69.0839H415.459V-68.2218H452.332V-69.0839ZM415.153 -68.9565L315.379 31.5409L315.99 32.1483L415.765 -68.3492L415.153 -68.9565ZM315.253 31.8446V106.314H316.115V31.8446H315.253Z" fill="url(#paint3_linear_1641_1472)"/>
<path d="M440.764 5.81617L440.46 5.51044L440.333 5.63685V5.81617H440.764ZM440.764 26.7833L441.057 27.0991L441.195 26.9712V26.7833H440.764ZM420.52 45.5814L420.227 45.2655L420.089 45.3934V45.5814H420.52ZM420.52 81.7315L420.825 82.0363L420.951 81.9101V81.7315H420.52ZM392.452 112.098C392.452 110.828 391.423 109.799 390.154 109.799C388.884 109.799 387.855 110.828 387.855 112.098C387.855 113.367 388.884 114.396 390.154 114.396C391.423 114.396 392.452 113.367 392.452 112.098ZM556.864 -110.17L440.46 5.51044L441.068 6.12189L557.471 -109.559L556.864 -110.17ZM440.333 5.81617V26.7833H441.195V5.81617H440.333ZM440.471 26.4674L420.227 45.2655L420.813 45.8972L441.057 27.0991L440.471 26.4674ZM420.089 45.5814V81.7315H420.951V45.5814H420.089ZM420.215 81.4267L389.849 111.793L390.458 112.402L420.825 82.0363L420.215 81.4267Z" fill="url(#paint4_linear_1641_1472)"/>
<path d="M440.764 81.7313L441.069 82.0361L441.195 81.9099V81.7313H440.764ZM328.828 195.966C328.828 194.696 327.799 193.667 326.53 193.667C325.26 193.667 324.231 194.696 324.231 195.966C324.231 197.235 325.26 198.265 326.53 198.265C327.799 198.265 328.828 197.235 328.828 195.966ZM440.333 28.2291V81.7313H441.195V28.2291H440.333ZM440.459 81.4265L326.225 195.661L326.834 196.271L441.069 82.0361L440.459 81.4265Z" fill="url(#paint5_linear_1641_1472)"/>
<path d="M500.051 18.1075L499.744 17.8044L499.62 17.9303V18.1075H500.051ZM500.051 115.713L500.356 116.017L500.482 115.891V115.713H500.051ZM315.815 302.971C315.815 301.701 314.785 300.672 313.516 300.672C312.246 300.672 311.217 301.701 311.217 302.971C311.217 304.24 312.246 305.269 313.516 305.269C314.785 305.269 315.815 304.24 315.815 302.971ZM629.162 -113.059L499.744 17.8044L500.357 18.4105L629.775 -112.453L629.162 -113.059ZM499.62 18.1075V115.713H500.482V18.1075H499.62ZM499.745 115.409L406.478 209.038L407.089 209.646L500.356 116.017L499.745 115.409ZM406.478 209.038L313.21 302.667L313.821 303.275L407.089 209.646L406.478 209.038Z" fill="url(#paint6_linear_1641_1472)"/>
<path d="M435.703 208.98L436.008 209.285L436.134 209.159V208.98H435.703ZM362.81 284.172C362.81 282.903 361.78 281.874 360.511 281.874C359.241 281.874 358.212 282.903 358.212 284.172C358.212 285.442 359.241 286.471 360.511 286.471C361.78 286.471 362.81 285.442 362.81 284.172ZM435.272 181.506V208.98H436.134V181.506H435.272ZM435.398 208.675L360.206 283.868L360.816 284.477L436.008 209.285L435.398 208.675Z" fill="url(#paint7_linear_1641_1472)"/>
<path d="M570.905 -53.4701H541.985L466.792 21.7222V117.159L449.44 134.695M398.83 185.844L449.44 134.695M449.44 134.695H414.013L306.286 244.407H270.135" stroke="url(#paint8_linear_1641_1472)" stroke-width="0.862043"/>
<path d="M510.896 -42.6254V-43.0564H510.716L510.589 -42.9279L510.896 -42.6254ZM463.307 7.98486C463.307 6.71528 462.278 5.68608 461.009 5.68608C459.739 5.68608 458.71 6.71528 458.71 7.98486C458.71 9.25444 459.739 10.2836 461.009 10.2836C462.278 10.2836 463.307 9.25444 463.307 7.98486ZM530.417 -43.0564H510.896V-42.1943H530.417V-43.0564ZM510.589 -42.9279L460.702 7.68229L461.316 8.28744L511.203 -42.3228L510.589 -42.9279Z" fill="url(#paint9_linear_1641_1472)"/>
<path d="M600.548 -15.1512L600.24 -15.4524L600.117 -15.3268V-15.1512H600.548ZM602.847 50.6421C602.847 49.3725 601.818 48.3433 600.548 48.3433C599.278 48.3433 598.249 49.3725 598.249 50.6421C598.249 51.9117 599.278 52.9409 600.548 52.9409C601.818 52.9409 602.847 51.9117 602.847 50.6421ZM630.606 -46.5415L600.24 -15.4524L600.856 -14.85L631.222 -45.9392L630.606 -46.5415ZM600.117 -15.1512V50.6421H600.979V-15.1512H600.117Z" fill="url(#paint10_linear_1641_1472)"/>
<path d="M542.707 82.4546V82.8856H542.886L543.012 82.7594L542.707 82.4546ZM530.546 82.4546C530.546 81.185 529.517 80.1558 528.247 80.1558C526.978 80.1558 525.948 81.185 525.948 82.4546C525.948 83.7242 526.978 84.7534 528.247 84.7534C529.517 84.7534 530.546 83.7242 530.546 82.4546ZM600.966 23.5865L542.402 82.1498L543.012 82.7594L601.575 24.1961L600.966 23.5865ZM542.707 82.0236H528.247V82.8856H542.707V82.0236Z" fill="url(#paint11_linear_1641_1472)"/>
<path d="M535.477 28.2291V27.7981H535.299L535.173 27.9243L535.477 28.2291ZM569.588 28.2291C569.588 26.9595 568.559 25.9303 567.29 25.9303C566.02 25.9303 564.991 26.9595 564.991 28.2291C564.991 29.4987 566.02 30.5279 567.29 30.5279C568.559 30.5279 569.588 29.4987 569.588 28.2291ZM500.355 63.961L535.782 28.5339L535.173 27.9243L499.745 63.3515L500.355 63.961ZM535.477 28.6601H567.29V27.7981H535.477V28.6601Z" fill="url(#paint12_linear_1641_1472)"/>
<path d="M565.843 97.6371V97.2061H565.665L565.539 97.3323L565.843 97.6371ZM471.26 194.52C471.26 193.25 470.231 192.221 468.961 192.221C467.691 192.221 466.662 193.25 466.662 194.52C466.662 195.789 467.691 196.818 468.961 196.818C470.231 196.818 471.26 195.789 471.26 194.52ZM604.163 97.2061H565.843V98.0681H604.163V97.2061ZM565.539 97.3323L468.656 194.215L469.266 194.824L566.148 97.9419L565.539 97.3323Z" fill="url(#paint13_linear_1641_1472)"/>
<path d="M513.065 129.45V129.019H512.886L512.76 129.145L513.065 129.45ZM472.706 172.107C472.706 170.838 471.677 169.809 470.408 169.809C469.138 169.809 468.109 170.838 468.109 172.107C468.109 173.377 469.138 174.406 470.408 174.406C471.677 174.406 472.706 173.377 472.706 172.107ZM534.755 129.019H513.065V129.881H534.755V129.019ZM512.76 129.145L470.103 171.803L470.712 172.412L513.37 129.755L512.76 129.145Z" fill="url(#paint14_linear_1641_1472)"/>
<path d="M603.44 165.6V166.031H603.622L603.749 165.901L603.44 165.6ZM568.736 165.6V165.169H568.556L568.429 165.297L568.736 165.6ZM448.717 287.064V287.495H448.897L449.024 287.367L448.717 287.064ZM427.157 287.064C427.157 285.795 426.128 284.766 424.858 284.766C423.589 284.766 422.559 285.795 422.559 287.064C422.559 288.334 423.589 289.363 424.858 289.363C426.128 289.363 427.157 288.334 427.157 287.064ZM631.329 136.379L603.131 165.299L603.749 165.901L631.946 136.981L631.329 136.379ZM603.44 165.169H568.736V166.031H603.44V165.169ZM568.429 165.297L448.411 286.762L449.024 287.367L569.043 165.903L568.429 165.297ZM448.717 286.633H424.858V287.495H448.717V286.633Z" fill="url(#paint15_linear_1641_1472)"/>
<path d="M541.985 246.576L542.292 246.879L542.416 246.753V246.576H541.985ZM429.196 360.811L428.89 360.508L428.765 360.634V360.811H429.196ZM431.495 401.299C431.495 400.029 430.466 399 429.196 399C427.927 399 426.898 400.029 426.898 401.299C426.898 402.568 427.927 403.598 429.196 403.598C430.466 403.598 431.495 402.568 431.495 401.299ZM541.554 194.52V246.576H542.416V194.52H541.554ZM541.678 246.273L428.89 360.508L429.503 361.113L542.292 246.879L541.678 246.273ZM428.765 360.811V401.299H429.627V360.811H428.765Z" fill="url(#paint16_linear_1641_1472)"/>
<path d="M260.736 138.848L261.031 139.163L261.167 139.035V138.848H260.736ZM239.899 160.539C239.899 159.269 238.87 158.24 237.6 158.24C236.331 158.24 235.301 159.269 235.301 160.539C235.301 161.808 236.331 162.837 237.6 162.837C238.87 162.837 239.899 161.808 239.899 160.539ZM260.305 94.0223V138.848H261.167V94.0223H260.305ZM260.442 138.534L237.305 160.224L237.895 160.853L261.031 139.163L260.442 138.534Z" fill="url(#paint17_linear_1641_1472)"/>
<path d="M182.058 75.2246C182.058 73.955 181.029 72.9258 179.76 72.9258C178.49 72.9258 177.461 73.955 177.461 75.2246C177.461 76.4942 178.49 77.5234 179.76 77.5234C181.029 77.5234 182.058 76.4942 182.058 75.2246ZM379.002 -126.796L179.453 74.9215L180.066 75.5277L379.615 -126.19L379.002 -126.796Z" fill="url(#paint18_linear_1641_1472)"/>
<path d="M129.15 70.1633L128.844 69.8593L128.719 69.9854V70.1633H129.15ZM131.448 111.375C131.448 110.105 130.419 109.076 129.15 109.076C127.88 109.076 126.851 110.105 126.851 111.375C126.851 112.644 127.88 113.673 129.15 113.673C130.419 113.673 131.448 112.644 131.448 111.375ZM285.013 -87.0325L128.844 69.8593L129.455 70.4674L285.624 -86.4243L285.013 -87.0325ZM128.719 70.1633V111.375H129.581V70.1633H128.719Z" fill="url(#paint19_linear_1641_1472)"/>
<path d="M331.432 -86.7286V-86.2975H331.608L331.734 -86.4211L331.432 -86.7286ZM242.503 -86.7286V-87.1596H242.325L242.198 -87.0339L242.503 -86.7286ZM54.5217 100.529V100.96H54.6997L54.8259 100.835L54.5217 100.529ZM-18.3719 100.529C-18.3719 99.2597 -19.4011 98.2305 -20.6707 98.2305C-21.9402 98.2305 -22.9695 99.2597 -22.9695 100.529C-22.9695 101.799 -21.9402 102.828 -20.6707 102.828C-19.4011 102.828 -18.3719 101.799 -18.3719 100.529ZM373.064 -128.247L331.13 -87.036L331.734 -86.4211L373.668 -127.632L373.064 -128.247ZM331.432 -87.1596H242.503V-86.2975H331.432V-87.1596ZM242.198 -87.0339L54.2175 100.224L54.8259 100.835L242.807 -86.4232L242.198 -87.0339ZM54.5217 100.098H-20.6707V100.96H54.5217V100.098Z" fill="url(#paint20_linear_1641_1472)"/>
<path d="M558.613 -111.311V-110.88H558.792L558.918 -111.006L558.613 -111.311ZM519.571 -111.311V-111.742H519.391L519.265 -111.614L519.571 -111.311ZM393.046 16.6607L392.739 16.3576L392.615 16.4836V16.6607H393.046ZM395.344 81.731C395.344 80.4614 394.315 79.4322 393.046 79.4322C391.776 79.4322 390.747 80.4614 390.747 81.731C390.747 83.0005 391.776 84.0297 393.046 84.0297C394.315 84.0297 395.344 83.0005 395.344 81.731ZM574.215 -127.522L558.309 -111.616L558.918 -111.006L574.824 -126.912L574.215 -127.522ZM558.613 -111.742H519.571V-110.88H558.613V-111.742ZM519.265 -111.614L392.739 16.3576L393.352 16.9637L519.878 -111.008L519.265 -111.614ZM392.615 16.6607V81.731H393.477V16.6607H392.615Z" fill="url(#paint21_linear_1641_1472)"/>
<path d="M512.341 -127.217L373.525 11.5997V114.989L286.041 204.642" stroke="url(#paint22_linear_1641_1472)" stroke-width="0.862043"/>
<path d="M628.745 31.1212L628.394 30.8706L628.314 30.983V31.1212H628.745ZM628.745 74.5014L629.051 74.8049L629.176 74.6789V74.5014H628.745ZM448.124 258.867C448.124 257.598 447.095 256.568 445.825 256.568C444.555 256.568 443.526 257.598 443.526 258.867C443.526 260.137 444.555 261.166 445.825 261.166C447.095 261.166 448.124 260.137 448.124 258.867ZM632.009 25.8096L628.394 30.8706L629.096 31.3717L632.711 26.3107L632.009 25.8096ZM628.314 31.1212V74.5014H629.176V31.1212H628.314ZM628.439 74.1978L445.519 258.564L446.131 259.171L629.051 74.8049L628.439 74.1978Z" fill="url(#paint23_linear_1641_1472)"/>
<path d="M622.238 114.266V113.835H622.059L621.933 113.961L622.238 114.266ZM589.832 148.97C589.832 147.701 588.803 146.671 587.534 146.671C586.264 146.671 585.235 147.701 585.235 148.97C585.235 150.24 586.264 151.269 587.534 151.269C588.803 151.269 589.832 150.24 589.832 148.97ZM632.36 113.835H622.238V114.697H632.36V113.835ZM621.933 113.961L587.229 148.665L587.838 149.275L622.543 114.571L621.933 113.961Z" fill="url(#paint24_linear_1641_1472)"/>
<defs>
<linearGradient id="paint0_linear_1641_1472" x1="585.726" y1="1.47754" x2="585.726" y2="-91.7899" gradientUnits="userSpaceOnUse">
<stop stop-color="#05C2FC"/>
<stop offset="1" stop-color="#0DF8CF"/>
</linearGradient>
<linearGradient id="paint1_linear_1641_1472" x1="283.873" y1="173.553" x2="283.873" y2="-126.494" gradientUnits="userSpaceOnUse">
<stop stop-color="#05C2FC"/>
<stop offset="1" stop-color="#0DF8CF"/>
</linearGradient>
<linearGradient id="paint2_linear_1641_1472" x1="336.29" y1="154.032" x2="336.29" y2="44.8582" gradientUnits="userSpaceOnUse">
<stop stop-color="#05C2FC"/>
<stop offset="1" stop-color="#0DF8CF"/>
</linearGradient>
<linearGradient id="paint3_linear_1641_1472" x1="384.008" y1="106.314" x2="384.008" y2="-68.6528" gradientUnits="userSpaceOnUse">
<stop stop-color="#05C2FC"/>
<stop offset="1" stop-color="#0DF8CF"/>
</linearGradient>
<linearGradient id="paint4_linear_1641_1472" x1="473.661" y1="112.098" x2="473.661" y2="-109.864" gradientUnits="userSpaceOnUse">
<stop stop-color="#05C2FC"/>
<stop offset="1" stop-color="#0DF8CF"/>
</linearGradient>
<linearGradient id="paint5_linear_1641_1472" x1="383.647" y1="195.966" x2="383.647" y2="28.2291" gradientUnits="userSpaceOnUse">
<stop stop-color="#05C2FC"/>
<stop offset="1" stop-color="#0DF8CF"/>
</linearGradient>
<linearGradient id="paint6_linear_1641_1472" x1="471.492" y1="302.971" x2="471.492" y2="-112.756" gradientUnits="userSpaceOnUse">
<stop stop-color="#05C2FC"/>
<stop offset="1" stop-color="#0DF8CF"/>
</linearGradient>
<linearGradient id="paint7_linear_1641_1472" x1="398.107" y1="284.172" x2="398.107" y2="181.506" gradientUnits="userSpaceOnUse">
<stop stop-color="#05C2FC"/>
<stop offset="1" stop-color="#0DF8CF"/>
</linearGradient>
<linearGradient id="paint8_linear_1641_1472" x1="420.52" y1="244.407" x2="420.52" y2="-53.4701" gradientUnits="userSpaceOnUse">
<stop stop-color="#05C2FC"/>
<stop offset="1" stop-color="#0DF8CF"/>
</linearGradient>
<linearGradient id="paint9_linear_1641_1472" x1="495.713" y1="7.98486" x2="495.713" y2="-42.6254" gradientUnits="userSpaceOnUse">
<stop stop-color="#05C2FC"/>
<stop offset="1" stop-color="#0DF8CF"/>
</linearGradient>
<linearGradient id="paint10_linear_1641_1472" x1="615.731" y1="50.6421" x2="615.731" y2="-46.2403" gradientUnits="userSpaceOnUse">
<stop stop-color="#05C2FC"/>
<stop offset="1" stop-color="#0DF8CF"/>
</linearGradient>
<linearGradient id="paint11_linear_1641_1472" x1="564.759" y1="82.4546" x2="564.759" y2="23.8913" gradientUnits="userSpaceOnUse">
<stop stop-color="#05C2FC"/>
<stop offset="1" stop-color="#0DF8CF"/>
</linearGradient>
<linearGradient id="paint12_linear_1641_1472" x1="533.67" y1="63.6562" x2="533.67" y2="28.2291" gradientUnits="userSpaceOnUse">
<stop stop-color="#05C2FC"/>
<stop offset="1" stop-color="#0DF8CF"/>
</linearGradient>
<linearGradient id="paint13_linear_1641_1472" x1="536.562" y1="194.52" x2="536.562" y2="97.6371" gradientUnits="userSpaceOnUse">
<stop stop-color="#05C2FC"/>
<stop offset="1" stop-color="#0DF8CF"/>
</linearGradient>
<linearGradient id="paint14_linear_1641_1472" x1="502.581" y1="172.107" x2="502.581" y2="129.45" gradientUnits="userSpaceOnUse">
<stop stop-color="#05C2FC"/>
<stop offset="1" stop-color="#0DF8CF"/>
</linearGradient>
<linearGradient id="paint15_linear_1641_1472" x1="528.248" y1="287.064" x2="528.248" y2="136.68" gradientUnits="userSpaceOnUse">
<stop stop-color="#05C2FC"/>
<stop offset="1" stop-color="#0DF8CF"/>
</linearGradient>
<linearGradient id="paint16_linear_1641_1472" x1="485.591" y1="401.299" x2="485.591" y2="194.52" gradientUnits="userSpaceOnUse">
<stop stop-color="#05C2FC"/>
<stop offset="1" stop-color="#0DF8CF"/>
</linearGradient>
<linearGradient id="paint17_linear_1641_1472" x1="249.168" y1="160.539" x2="249.168" y2="94.0223" gradientUnits="userSpaceOnUse">
<stop stop-color="#05C2FC"/>
<stop offset="1" stop-color="#0DF8CF"/>
</linearGradient>
<linearGradient id="paint18_linear_1641_1472" x1="279.534" y1="75.2246" x2="279.534" y2="-126.493" gradientUnits="userSpaceOnUse">
<stop stop-color="#05C2FC"/>
<stop offset="1" stop-color="#0DF8CF"/>
</linearGradient>
<linearGradient id="paint19_linear_1641_1472" x1="207.234" y1="111.375" x2="206.511" y2="-33.2261" gradientUnits="userSpaceOnUse">
<stop stop-color="#05C2FC"/>
<stop offset="1" stop-color="#0DF8CF"/>
</linearGradient>
<linearGradient id="paint20_linear_1641_1472" x1="176.348" y1="100.529" x2="176.348" y2="-127.94" gradientUnits="userSpaceOnUse">
<stop stop-color="#05C2FC"/>
<stop offset="1" stop-color="#0DF8CF"/>
</linearGradient>
<linearGradient id="paint21_linear_1641_1472" x1="483.783" y1="81.731" x2="483.783" y2="-127.217" gradientUnits="userSpaceOnUse">
<stop stop-color="#05C2FC"/>
<stop offset="1" stop-color="#0DF8CF"/>
</linearGradient>
<linearGradient id="paint22_linear_1641_1472" x1="399.191" y1="204.642" x2="399.191" y2="-127.217" gradientUnits="userSpaceOnUse">
<stop stop-color="#05C2FC"/>
<stop offset="1" stop-color="#0DF8CF"/>
</linearGradient>
<linearGradient id="paint23_linear_1641_1472" x1="539.092" y1="258.867" x2="539.092" y2="26.0601" gradientUnits="userSpaceOnUse">
<stop stop-color="#05C2FC"/>
<stop offset="1" stop-color="#0DF8CF"/>
</linearGradient>
<linearGradient id="paint24_linear_1641_1472" x1="609.947" y1="148.97" x2="609.947" y2="114.266" gradientUnits="userSpaceOnUse">
<stop stop-color="#05C2FC"/>
<stop offset="1" stop-color="#0DF8CF"/>
</linearGradient>
</defs>
</svg>
