<svg width="105" height="105" viewBox="0 0 105 105" fill="none" xmlns="http://www.w3.org/2000/svg">
<circle cx="52.0463" cy="52.0463" r="52.0463" fill="#1E2126"/>
<mask id="mask0_1760_1102" style="mask-type:alpha" maskUnits="userSpaceOnUse" x="0" y="0" width="105" height="105">
<circle cx="52.0463" cy="52.0463" r="52.0463" fill="#D9D9D9"/>
</mask>
<g mask="url(#mask0_1760_1102)">
<path d="M17.3486 107.903V102.893C17.3486 83.5285 33.0471 67.8301 52.412 67.8301C71.777 67.8301 87.4754 83.5285 87.4754 102.893V107.903" fill="white"/>
<path d="M17.3486 107.903V102.893C17.3486 83.5285 33.0471 67.8301 52.412 67.8301C71.777 67.8301 87.4754 83.5285 87.4754 102.893V107.903" stroke="#252E37" stroke-width="7.51358" stroke-linecap="round" stroke-linejoin="round"/>
<path d="M52.4122 67.8302C63.4777 67.8302 72.4484 58.8595 72.4484 47.794C72.4484 36.7283 63.4777 27.7578 52.4122 27.7578C41.3465 27.7578 32.376 36.7283 32.376 47.794C32.376 58.8595 41.3465 67.8302 52.4122 67.8302Z" fill="white" stroke="#252E37" stroke-width="7.51358" stroke-linecap="round" stroke-linejoin="round"/>
</g>
</svg>
