<svg width="127" height="38" viewBox="0 0 127 38" fill="none" xmlns="http://www.w3.org/2000/svg">
<g filter="url(#filter0_di_511_1040)">
<path d="M1.98248 35H30.6405V26.858H18.2665L24.9365 21.246C26.3778 20.0807 27.5278 18.7927 28.3865 17.382C29.2452 15.9713 29.6745 14.392 29.6745 12.644C29.6745 11.3253 29.3985 10.0527 28.8465 8.826C28.2945 7.56867 27.4665 6.434 26.3625 5.422C25.2892 4.41 23.9552 3.61266 22.3605 3.03C20.7658 2.41666 18.9412 2.11 16.8865 2.11C13.9425 2.11 11.4585 2.708 9.43449 3.904C7.44115 5.06933 5.93849 6.63333 4.92649 8.596C3.94515 10.528 3.45448 12.644 3.45448 14.944H12.1945C12.1945 13.932 12.3632 13.0273 12.7005 12.23C13.0685 11.4327 13.5898 10.8193 14.2645 10.39C14.9392 9.93 15.7058 9.7 16.5645 9.7C17.2392 9.7 17.8065 9.80733 18.2665 10.022C18.7572 10.206 19.1712 10.4667 19.5085 10.804C19.8458 11.1107 20.0912 11.4787 20.2445 11.908C20.3978 12.3373 20.4745 12.782 20.4745 13.242C20.4745 14.07 20.2905 14.8673 19.9225 15.634C19.5852 16.37 19.0792 17.1213 18.4045 17.888C17.7605 18.6547 16.9938 19.544 16.1045 20.556L1.98248 35ZM42.814 18.9C42.814 17.4893 42.9366 16.2167 43.182 15.082C43.458 13.9473 43.826 12.9813 44.286 12.184C44.746 11.3867 45.298 10.7887 45.942 10.39C46.586 9.96067 47.2913 9.746 48.058 9.746C48.8553 9.746 49.5606 9.96067 50.174 10.39C50.818 10.7887 51.37 11.3867 51.83 12.184C52.3206 12.9813 52.6886 13.9473 52.934 15.082C53.21 16.2167 53.348 17.4893 53.348 18.9C53.348 20.3107 53.21 21.5833 52.934 22.718C52.6886 23.8527 52.3206 24.8187 51.83 25.616C51.37 26.4133 50.818 27.0267 50.174 27.456C49.5606 27.8547 48.8553 28.054 48.058 28.054C47.2913 28.054 46.586 27.8547 45.942 27.456C45.298 27.0267 44.746 26.4133 44.286 25.616C43.826 24.8187 43.458 23.8527 43.182 22.718C42.9366 21.5833 42.814 20.3107 42.814 18.9ZM34.258 18.9C34.258 22.488 34.8406 25.524 36.006 28.008C37.1713 30.492 38.7813 32.3933 40.836 33.712C42.9213 35 45.3286 35.644 48.058 35.644C50.9406 35.644 53.4093 35 55.464 33.712C57.5186 32.3933 59.098 30.492 60.202 28.008C61.3366 25.524 61.904 22.488 61.904 18.9C61.904 15.312 61.3366 12.276 60.202 9.792C59.098 7.308 57.5186 5.422 55.464 4.134C53.4093 2.81533 50.9406 2.156 48.058 2.156C45.3286 2.156 42.9213 2.81533 40.836 4.134C38.7813 5.422 37.1713 7.308 36.006 9.792C34.8406 12.276 34.258 15.312 34.258 18.9ZM64.6485 35H93.3065V26.858H80.9325L87.6025 21.246C89.0438 20.0807 90.1938 18.7927 91.0525 17.382C91.9112 15.9713 92.3405 14.392 92.3405 12.644C92.3405 11.3253 92.0645 10.0527 91.5125 8.826C90.9605 7.56867 90.1325 6.434 89.0285 5.422C87.9552 4.41 86.6212 3.61266 85.0265 3.03C83.4318 2.41666 81.6072 2.11 79.5525 2.11C76.6085 2.11 74.1245 2.708 72.1005 3.904C70.1072 5.06933 68.6045 6.63333 67.5925 8.596C66.6112 10.528 66.1205 12.644 66.1205 14.944H74.8605C74.8605 13.932 75.0292 13.0273 75.3665 12.23C75.7345 11.4327 76.2558 10.8193 76.9305 10.39C77.6052 9.93 78.3718 9.7 79.2305 9.7C79.9052 9.7 80.4725 9.80733 80.9325 10.022C81.4232 10.206 81.8372 10.4667 82.1745 10.804C82.5118 11.1107 82.7572 11.4787 82.9105 11.908C83.0638 12.3373 83.1405 12.782 83.1405 13.242C83.1405 14.07 82.9565 14.8673 82.5885 15.634C82.2512 16.37 81.7452 17.1213 81.0705 17.888C80.4265 18.6547 79.6598 19.544 78.7705 20.556L64.6485 35ZM108.01 19.498C110.709 19.498 113.162 19.222 115.37 18.67C117.578 18.0873 119.326 17.1827 120.614 15.956C121.933 14.7293 122.592 13.1347 122.592 11.172C122.592 9.48533 122.117 7.96733 121.166 6.618C120.246 5.238 118.881 4.14933 117.072 3.352C115.293 2.55466 113.116 2.156 110.54 2.156C108.117 2.156 106.001 2.63133 104.192 3.582C102.383 4.502 100.972 5.75933 99.96 7.354C98.9786 8.918 98.488 10.6813 98.488 12.644H106.676C106.676 11.6013 107.029 10.758 107.734 10.114C108.47 9.47 109.405 9.148 110.54 9.148C111.276 9.148 111.874 9.25533 112.334 9.47C112.825 9.68467 113.193 9.99133 113.438 10.39C113.683 10.7887 113.806 11.2487 113.806 11.77C113.806 12.2913 113.668 12.7973 113.392 13.288C113.116 13.748 112.717 14.162 112.196 14.53C111.675 14.898 111.061 15.1893 110.356 15.404C109.651 15.6187 108.869 15.726 108.01 15.726V19.498ZM110.126 35.828C112.978 35.828 115.401 35.414 117.394 34.586C119.387 33.758 120.905 32.608 121.948 31.136C122.991 29.664 123.512 27.9927 123.512 26.122C123.512 24.466 123.129 23.0553 122.362 21.89C121.626 20.7247 120.568 19.7587 119.188 18.992C117.808 18.2253 116.167 17.6733 114.266 17.336C112.395 16.9987 110.31 16.83 108.01 16.83V21.154C109.237 21.154 110.264 21.2613 111.092 21.476C111.951 21.6907 112.641 21.9973 113.162 22.396C113.714 22.764 114.113 23.2087 114.358 23.73C114.603 24.2207 114.726 24.742 114.726 25.294C114.726 26.122 114.542 26.812 114.174 27.364C113.806 27.8853 113.3 28.2533 112.656 28.468C112.043 28.6827 111.322 28.79 110.494 28.79C109.727 28.79 108.976 28.6367 108.24 28.33C107.535 28.0233 106.967 27.5327 106.538 26.858C106.109 26.1833 105.894 25.3247 105.894 24.282H97.108C97.108 25.754 97.3993 27.18 97.982 28.56C98.5646 29.94 99.408 31.182 100.512 32.286C101.647 33.39 103.011 34.264 104.606 34.908C106.231 35.5213 108.071 35.828 110.126 35.828Z" fill="url(#paint0_linear_511_1040)"/>
</g>
<defs>
<filter id="filter0_di_511_1040" x="0.982422" y="0.110107" width="125.529" height="39.7178" filterUnits="userSpaceOnUse" color-interpolation-filters="sRGB">
<feFlood flood-opacity="0" result="BackgroundImageFix"/>
<feColorMatrix in="SourceAlpha" type="matrix" values="0 0 0 0 0 0 0 0 0 0 0 0 0 0 0 0 0 0 127 0" result="hardAlpha"/>
<feOffset dx="1"/>
<feGaussianBlur stdDeviation="1"/>
<feComposite in2="hardAlpha" operator="out"/>
<feColorMatrix type="matrix" values="0 0 0 0 0.0509804 0 0 0 0 0.972549 0 0 0 0 0.811765 0 0 0 1 0"/>
<feBlend mode="normal" in2="BackgroundImageFix" result="effect1_dropShadow_511_1040"/>
<feBlend mode="normal" in="SourceGraphic" in2="effect1_dropShadow_511_1040" result="shape"/>
<feColorMatrix in="SourceAlpha" type="matrix" values="0 0 0 0 0 0 0 0 0 0 0 0 0 0 0 0 0 0 127 0" result="hardAlpha"/>
<feOffset dy="4"/>
<feGaussianBlur stdDeviation="11.5"/>
<feComposite in2="hardAlpha" operator="arithmetic" k2="-1" k3="1"/>
<feColorMatrix type="matrix" values="0 0 0 0 0.592157 0 0 0 0 0.278431 0 0 0 0 1 0 0 0 0.45 0"/>
<feBlend mode="normal" in2="shape" result="effect2_innerShadow_511_1040"/>
</filter>
<linearGradient id="paint0_linear_511_1040" x1="42.6395" y1="-6.85178" x2="83.924" y2="59.1984" gradientUnits="userSpaceOnUse">
<stop offset="0.551495" stop-color="#0DF8CF"/>
<stop offset="1" stop-color="#05C2FC"/>
</linearGradient>
</defs>
</svg>
