<svg width="51" height="360" viewBox="0 0 51 360" fill="none" xmlns="http://www.w3.org/2000/svg">
<rect x="29.5605" y="300.546" width="3.28901" height="40.3121" fill="url(#paint0_linear_511_1015)" stroke="url(#paint1_linear_511_1015)" stroke-width="2"/>
<path d="M31.7661 358.067V335.487C31.7661 334.956 31.5554 334.448 31.1803 334.073L2.25571 305.148C1.88064 304.773 1.66992 304.264 1.66992 303.734V255.23C1.66992 254.7 1.88064 254.191 2.25571 253.816L51.8302 204.242" stroke="url(#paint2_linear_511_1015)" stroke-opacity="0.38" stroke-width="2" stroke-linecap="round"/>
<path d="M30.9312 299.546C30.9312 297.56 30.9312 246.282 30.9312 220.101C30.9312 219.571 30.7205 219.079 30.3455 218.704L12.2889 200.647C11.9138 200.272 11.7031 199.763 11.7031 199.233V148.221C11.7031 147.691 11.9138 147.182 12.2889 146.807L51.8314 107.265" stroke="url(#paint3_linear_511_1015)" stroke-opacity="0.38" stroke-width="2" stroke-linecap="round"/>
<path d="M35.9484 151.573V76.3252C35.9484 75.7948 35.7377 75.286 35.3626 74.911L22.3221 61.8705C21.947 61.4954 21.7363 60.9867 21.7363 60.4562V37.0405" stroke="url(#paint4_linear_511_1015)" stroke-opacity="0.38" stroke-width="2" stroke-linecap="round"/>
<circle cx="21.7352" cy="10.2884" r="10.0321" fill="url(#paint5_linear_511_1015)"/>
<path d="M0 207.398V241.214C0 242.995 2.15429 243.888 3.41422 242.628L20.3219 225.72C21.103 224.939 21.103 223.673 20.3219 222.892L3.41421 205.984C2.15428 204.724 0 205.616 0 207.398Z" fill="url(#paint6_linear_511_1015)"/>
<path d="M27.5017 116.549L7.20159 136.849C7.0126 137.038 6.68945 136.904 6.68945 136.637V120.765C6.68945 120.686 6.72106 120.609 6.77732 120.553L27.0774 100.253C27.2664 100.064 27.5896 100.198 27.5896 100.465V116.337C27.5896 116.416 27.558 116.492 27.5017 116.549Z" fill="url(#paint7_linear_511_1015)"/>
<path d="M27.5017 93.9769L7.20159 114.277C7.0126 114.466 6.68945 114.332 6.68945 114.065V98.1933C6.68945 98.1138 6.72106 98.0375 6.77732 97.9812L27.0774 77.6811C27.2664 77.4921 27.5896 77.6259 27.5896 77.8932V93.7648C27.5896 93.8443 27.558 93.9207 27.5017 93.9769Z" fill="url(#paint8_linear_511_1015)"/>
<defs>
<linearGradient id="paint0_linear_511_1015" x1="31.2051" y1="299.546" x2="31.2051" y2="341.858" gradientUnits="userSpaceOnUse">
<stop stop-color="#05C2FC"/>
<stop offset="1" stop-color="#0DF8CF"/>
</linearGradient>
<linearGradient id="paint1_linear_511_1015" x1="31.2051" y1="299.546" x2="31.2051" y2="341.858" gradientUnits="userSpaceOnUse">
<stop stop-color="#05C2FC"/>
<stop offset="1" stop-color="#0DF8CF"/>
</linearGradient>
<linearGradient id="paint2_linear_511_1015" x1="32.7021" y1="220.989" x2="21.8671" y2="225.73" gradientUnits="userSpaceOnUse">
<stop stop-color="#0DF8CF"/>
<stop offset="0.982292" stop-color="#05C5FA"/>
</linearGradient>
<linearGradient id="paint3_linear_511_1015" x1="39.3338" y1="127.674" x2="28.8512" y2="130.932" gradientUnits="userSpaceOnUse">
<stop stop-color="#0DF8CF"/>
<stop offset="0.982292" stop-color="#05C5FA"/>
</linearGradient>
<linearGradient id="paint4_linear_511_1015" x1="28.9628" y1="56.2435" x2="26.0196" y2="56.6748" gradientUnits="userSpaceOnUse">
<stop stop-color="#0DF8CF"/>
<stop offset="0.982292" stop-color="#05C5FA"/>
</linearGradient>
<linearGradient id="paint5_linear_511_1015" x1="21.7352" y1="0.256348" x2="21.7352" y2="20.3205" gradientUnits="userSpaceOnUse">
<stop stop-color="#05C2FC"/>
<stop offset="1" stop-color="#0DF8CF"/>
</linearGradient>
<linearGradient id="paint6_linear_511_1015" x1="10.8681" y1="202.57" x2="10.8681" y2="246.042" gradientUnits="userSpaceOnUse">
<stop stop-color="#05C2FC"/>
<stop offset="1" stop-color="#0DF8CF"/>
</linearGradient>
<linearGradient id="paint7_linear_511_1015" x1="17.1395" y1="99.7407" x2="17.1395" y2="137.361" gradientUnits="userSpaceOnUse">
<stop stop-color="#05C2FC"/>
<stop offset="1" stop-color="#0DF8CF"/>
</linearGradient>
<linearGradient id="paint8_linear_511_1015" x1="17.1395" y1="77.1689" x2="17.1395" y2="114.789" gradientUnits="userSpaceOnUse">
<stop stop-color="#05C2FC"/>
<stop offset="1" stop-color="#0DF8CF"/>
</linearGradient>
</defs>
</svg>
