<svg width="323" height="408" viewBox="0 0 323 408" fill="none" xmlns="http://www.w3.org/2000/svg">
<path d="M109.051 103.459L136.641 152.473C136.998 153.106 136.983 153.882 136.602 154.501L107.034 202.59C106.67 203.182 106.025 203.542 105.33 203.542L50.4808 203.542C49.7544 203.542 49.0852 203.148 48.7324 202.513L21.1281 152.826C20.7786 152.196 20.7941 151.428 21.1687 150.813L50.0719 103.399C50.435 102.804 51.0821 102.44 51.7796 102.44L107.308 102.44C108.03 102.44 108.697 102.83 109.051 103.459Z" stroke="url(#paint0_linear_511_946)" stroke-opacity="0.38" stroke-width="2" stroke-linecap="round"/>
<path d="M109.051 204.899L136.641 253.913C136.998 254.546 136.983 255.322 136.602 255.941L107.034 304.03C106.67 304.622 106.025 304.982 105.33 304.982L50.4808 304.982C49.7544 304.982 49.0852 304.588 48.7324 303.954L21.1281 254.266C20.7786 253.637 20.7941 252.868 21.1687 252.253L50.0719 204.839C50.435 204.244 51.0821 203.88 51.7796 203.88L107.308 203.88C108.03 203.88 108.697 204.27 109.051 204.899Z" stroke="url(#paint1_linear_511_946)" stroke-opacity="0.38" stroke-width="2" stroke-linecap="round"/>
<path d="M22.4884 52.739L50.0788 101.752C50.4352 102.386 50.4202 103.162 50.0397 103.781L20.4717 151.87C20.1078 152.462 19.4628 152.822 18.768 152.822L-36.0817 152.822C-36.8081 152.822 -37.4773 152.428 -37.8301 151.793L-65.4344 102.106C-65.7839 101.476 -65.7684 100.708 -65.3938 100.093L-36.4906 52.6791C-36.1275 52.0835 -35.4804 51.7201 -34.7829 51.7201L20.7456 51.7201C21.4679 51.7201 22.1341 52.1096 22.4884 52.739Z" stroke="url(#paint2_linear_511_946)" stroke-opacity="0.38" stroke-width="2" stroke-linecap="round"/>
<path d="M22.4884 154.855L50.0788 203.869C50.4352 204.502 50.4202 205.279 50.0397 205.897L20.4717 253.986C20.1078 254.578 19.4628 254.938 18.768 254.938L-36.0817 254.938C-36.8081 254.938 -37.4773 254.545 -37.8301 253.91L-65.4344 204.222C-65.7839 203.593 -65.7684 202.824 -65.3938 202.21L-36.4906 154.795C-36.1275 154.2 -35.4804 153.836 -34.7829 153.836L20.7456 153.836C21.4679 153.836 22.1341 154.226 22.4884 154.855Z" stroke="url(#paint3_linear_511_946)" stroke-opacity="0.38" stroke-width="2" stroke-linecap="round"/>
<path d="M195.849 257.52L223.439 306.534C223.796 307.167 223.781 307.943 223.4 308.562L193.832 356.651C193.468 357.243 192.823 357.603 192.128 357.603L137.279 357.603C136.552 357.603 135.883 357.21 135.53 356.575L107.926 306.887C107.576 306.258 107.592 305.489 107.967 304.875L136.87 257.46C137.233 256.865 137.88 256.501 138.577 256.501L194.106 256.501C194.828 256.501 195.494 256.891 195.849 257.52Z" stroke="url(#paint4_linear_511_946)" stroke-opacity="0.38" stroke-width="2" stroke-linecap="round"/>
<path d="M109.448 306.054L137.039 355.068C137.395 355.701 137.38 356.477 137 357.096L107.432 405.185C107.068 405.777 106.423 406.137 105.728 406.137L50.8782 406.137C50.1519 406.137 49.4826 405.743 49.1299 405.108L21.5256 355.421C21.176 354.791 21.1915 354.023 21.5662 353.408L50.4694 305.994C50.8324 305.399 51.4796 305.035 52.1771 305.035L107.706 305.035C108.428 305.035 109.094 305.425 109.448 306.054Z" stroke="url(#paint5_linear_511_946)" stroke-opacity="0.38" stroke-width="2" stroke-linecap="round"/>
<path d="M110.403 2.01893L137.994 51.0324C138.35 51.6655 138.335 52.4421 137.955 53.061L108.387 101.15C108.023 101.741 107.378 102.102 106.683 102.102L51.8333 102.102C51.107 102.102 50.4377 101.708 50.085 101.073L22.4806 51.3855C22.1311 50.7563 22.1466 49.9878 22.5212 49.3732L51.4244 1.95899C51.7875 1.3634 52.4346 0.999996 53.1322 0.999996L108.661 0.999999C109.383 0.999999 110.049 1.38948 110.403 2.01893Z" stroke="url(#paint6_linear_511_946)" stroke-opacity="0.38" stroke-width="2" stroke-linecap="round"/>
<path d="M197.642 52.739L225.252 101.787C225.598 102.402 225.594 103.153 225.243 103.764L197.645 151.818C197.288 152.439 196.627 152.822 195.91 152.822L139.072 152.822C138.345 152.822 137.676 152.428 137.323 151.793L109.719 102.106C109.369 101.476 109.385 100.708 109.76 100.093L138.663 52.6791C139.026 52.0835 139.673 51.7201 140.37 51.7201L195.899 51.7201C196.621 51.7201 197.287 52.1096 197.642 52.739Z" stroke="url(#paint7_linear_511_946)" stroke-opacity="0.38" stroke-width="2" stroke-linecap="round"/>
<path d="M196.289 154.855L223.899 203.904C224.245 204.518 224.242 205.269 223.891 205.881L196.292 253.934C195.936 254.556 195.274 254.938 194.558 254.938L137.719 254.938C136.993 254.938 136.323 254.545 135.971 253.91L108.366 204.222C108.017 203.593 108.032 202.824 108.407 202.21L137.31 154.795C137.673 154.2 138.32 153.836 139.018 153.836L194.546 153.836C195.269 153.836 195.935 154.226 196.289 154.855Z" stroke="url(#paint8_linear_511_946)" stroke-opacity="0.38" stroke-width="2" stroke-linecap="round"/>
<path d="M293.488 104.019L321.098 153.067C321.444 153.682 321.441 154.433 321.09 155.044L293.491 203.098C293.135 203.719 292.473 204.102 291.757 204.102L234.918 204.102C234.192 204.102 233.523 203.708 233.17 203.073L205.566 153.385C205.216 152.756 205.232 151.988 205.606 151.373L234.509 103.959C234.872 103.363 235.52 103 236.217 103L291.746 103C292.468 103 293.134 103.389 293.488 104.019Z" stroke="url(#paint9_linear_511_946)" stroke-opacity="0.38" stroke-width="2" stroke-linecap="round"/>
<defs>
<linearGradient id="paint0_linear_511_946" x1="117.66" y1="153.848" x2="106.969" y2="143.402" gradientUnits="userSpaceOnUse">
<stop stop-color="#0DF8CF" stop-opacity="0.32"/>
<stop offset="0.982292" stop-color="#05C5FA" stop-opacity="0.02"/>
</linearGradient>
<linearGradient id="paint1_linear_511_946" x1="117.66" y1="255.288" x2="106.969" y2="244.842" gradientUnits="userSpaceOnUse">
<stop stop-color="#0DF8CF" stop-opacity="0.32"/>
<stop offset="0.982292" stop-color="#05C5FA" stop-opacity="0.02"/>
</linearGradient>
<linearGradient id="paint2_linear_511_946" x1="31.0972" y1="103.128" x2="20.4068" y2="92.682" gradientUnits="userSpaceOnUse">
<stop stop-color="#0DF8CF" stop-opacity="0.32"/>
<stop offset="0.982292" stop-color="#05C5FA" stop-opacity="0.02"/>
</linearGradient>
<linearGradient id="paint3_linear_511_946" x1="31.0972" y1="205.244" x2="20.4068" y2="194.798" gradientUnits="userSpaceOnUse">
<stop stop-color="#0DF8CF" stop-opacity="0.32"/>
<stop offset="0.982292" stop-color="#05C5FA" stop-opacity="0.02"/>
</linearGradient>
<linearGradient id="paint4_linear_511_946" x1="204.458" y1="307.909" x2="193.767" y2="297.463" gradientUnits="userSpaceOnUse">
<stop stop-color="#0DF8CF" stop-opacity="0.32"/>
<stop offset="0.982292" stop-color="#05C5FA" stop-opacity="0.02"/>
</linearGradient>
<linearGradient id="paint5_linear_511_946" x1="118.057" y1="356.443" x2="107.367" y2="345.997" gradientUnits="userSpaceOnUse">
<stop stop-color="#0DF8CF" stop-opacity="0.32"/>
<stop offset="0.982292" stop-color="#05C5FA" stop-opacity="0.02"/>
</linearGradient>
<linearGradient id="paint6_linear_511_946" x1="119.012" y1="52.4077" x2="108.322" y2="41.9619" gradientUnits="userSpaceOnUse">
<stop stop-color="#0DF8CF" stop-opacity="0.32"/>
<stop offset="0.982292" stop-color="#05C5FA" stop-opacity="0.02"/>
</linearGradient>
<linearGradient id="paint7_linear_511_946" x1="206.251" y1="103.128" x2="195.56" y2="92.682" gradientUnits="userSpaceOnUse">
<stop stop-color="#0DF8CF" stop-opacity="0.32"/>
<stop offset="0.982292" stop-color="#05C5FA" stop-opacity="0.02"/>
</linearGradient>
<linearGradient id="paint8_linear_511_946" x1="204.898" y1="205.244" x2="194.208" y2="194.798" gradientUnits="userSpaceOnUse">
<stop stop-color="#0DF8CF" stop-opacity="0.32"/>
<stop offset="0.982292" stop-color="#05C5FA" stop-opacity="0.02"/>
</linearGradient>
<linearGradient id="paint9_linear_511_946" x1="302.097" y1="154.408" x2="291.407" y2="143.962" gradientUnits="userSpaceOnUse">
<stop stop-color="#0DF8CF" stop-opacity="0.32"/>
<stop offset="0.982292" stop-color="#05C5FA" stop-opacity="0.02"/>
</linearGradient>
</defs>
</svg>
