<svg width="491" height="112" viewBox="0 0 491 112" fill="none" xmlns="http://www.w3.org/2000/svg">
<g filter="url(#filter0_di_511_1039)">
<path d="M65.4192 7.69999V57.184L0.228215 2.835V105H26.0822V55.516L91.2732 109.865V7.69999H65.4192ZM129.613 105H178.68V83.177H129.613V105ZM129.613 29.523H178.68V7.69999H129.613V29.523ZM129.613 64.968H175.9V43.84H129.613V64.968ZM111.265 7.69999V105H137.119V7.69999H111.265ZM210.114 69.416L191.766 82.76C193.897 87.5787 197.048 91.9803 201.218 95.965C205.388 99.857 210.299 102.915 215.952 105.139C221.697 107.456 227.906 108.614 234.578 108.614C239.304 108.614 243.937 107.919 248.478 106.529C253.019 105.232 257.05 103.286 260.571 100.691C264.185 98.0037 267.011 94.6677 269.05 90.683C271.181 86.6983 272.247 82.1113 272.247 76.922C272.247 73.03 271.645 69.5087 270.44 66.358C269.235 63.2073 267.521 60.4273 265.297 58.018C263.073 55.516 260.432 53.3847 257.374 51.624C254.409 49.7707 251.119 48.1953 247.505 46.898C243.335 45.4153 239.628 44.0717 236.385 42.867C233.234 41.5697 230.732 40.226 228.879 38.836C227.118 37.3533 226.238 35.5463 226.238 33.415C226.238 31.5617 227.026 30.079 228.601 28.967C230.176 27.855 232.308 27.299 234.995 27.299C237.126 27.299 239.211 27.716 241.25 28.55C243.289 29.384 245.188 30.5887 246.949 32.164C248.802 33.6467 250.424 35.5463 251.814 37.863L272.108 26.604C270.347 23.268 267.845 19.9783 264.602 16.735C261.359 13.399 257.235 10.6653 252.231 8.534C247.227 6.30999 241.296 5.19799 234.439 5.19799C227.86 5.19799 221.883 6.30999 216.508 8.534C211.133 10.758 206.824 14.0013 203.581 18.264C200.338 22.434 198.716 27.577 198.716 33.693C198.716 38.5117 199.596 42.6817 201.357 46.203C203.21 49.7243 205.481 52.6897 208.168 55.099C210.948 57.5083 213.821 59.5007 216.786 61.076C219.751 62.5587 222.439 63.7633 224.848 64.69C229.759 66.5433 233.559 68.1187 236.246 69.416C239.026 70.7133 240.972 72.0107 242.084 73.308C243.196 74.5127 243.752 76.0417 243.752 77.895C243.752 80.4897 242.779 82.482 240.833 83.872C238.887 85.1693 236.431 85.818 233.466 85.818C230.408 85.818 227.443 85.1693 224.57 83.872C221.697 82.5747 219.056 80.7213 216.647 78.312C214.238 75.81 212.06 72.8447 210.114 69.416ZM311.506 56.35C311.506 50.8827 312.71 46.2493 315.12 42.45C317.622 38.558 320.911 35.639 324.989 33.693C329.066 31.6543 333.56 30.635 338.472 30.635C343.105 30.635 347.136 31.2373 350.565 32.442C353.993 33.6467 357.051 35.222 359.739 37.168C362.426 39.0213 364.789 41.0137 366.828 43.145V14.789C363.028 11.9163 358.812 9.59966 354.179 7.83899C349.638 6.07833 343.8 5.19799 336.665 5.19799C328.603 5.19799 321.189 6.40266 314.425 8.812C307.66 11.2213 301.868 14.6963 297.05 19.237C292.231 23.7777 288.478 29.1987 285.791 35.5C283.196 41.7087 281.899 48.6587 281.899 56.35C281.899 64.0413 283.196 71.0377 285.791 77.339C288.478 83.5477 292.231 88.9223 297.05 93.463C301.868 98.0037 307.66 101.479 314.425 103.888C321.189 106.297 328.603 107.502 336.665 107.502C343.8 107.502 349.638 106.622 354.179 104.861C358.812 103.008 363.028 100.691 366.828 97.911V69.555C364.789 71.6863 362.426 73.725 359.739 75.671C357.051 77.5243 353.993 79.0533 350.565 80.258C347.136 81.4627 343.105 82.065 338.472 82.065C333.56 82.065 329.066 81.092 324.989 79.146C320.911 77.1073 317.622 74.1883 315.12 70.389C312.71 66.497 311.506 61.8173 311.506 56.35ZM408.4 56.35C408.4 51.068 409.419 46.4347 411.458 42.45C413.496 38.4653 416.369 35.361 420.076 33.137C423.782 30.8203 428.138 29.662 433.142 29.662C438.424 29.662 442.872 30.8203 446.486 33.137C450.192 35.361 453.019 38.4653 454.965 42.45C456.911 46.4347 457.884 51.068 457.884 56.35C457.884 61.5393 456.864 66.1727 454.826 70.25C452.787 74.2347 449.914 77.3853 446.208 79.702C442.594 81.926 438.238 83.038 433.142 83.038C428.138 83.038 423.782 81.926 420.076 79.702C416.369 77.3853 413.496 74.2347 411.458 70.25C409.419 66.1727 408.4 61.5393 408.4 56.35ZM379.905 56.35C379.905 63.9487 381.202 70.945 383.797 77.339C386.391 83.733 390.052 89.293 394.778 94.019C399.596 98.6523 405.249 102.266 411.736 104.861C418.222 107.363 425.358 108.614 433.142 108.614C440.926 108.614 448.061 107.363 454.548 104.861C461.127 102.266 466.78 98.6523 471.506 94.019C476.232 89.293 479.892 83.733 482.487 77.339C485.081 70.945 486.379 63.9487 486.379 56.35C486.379 48.6587 485.035 41.7087 482.348 35.5C479.753 29.1987 476.046 23.824 471.228 19.376C466.409 14.8353 460.756 11.3603 454.27 8.95099C447.876 6.44899 440.833 5.19799 433.142 5.19799C425.636 5.19799 418.639 6.44899 412.153 8.95099C405.759 11.3603 400.152 14.8353 395.334 19.376C390.515 23.824 386.716 29.1987 383.936 35.5C381.248 41.7087 379.905 48.6587 379.905 56.35Z" fill="url(#paint0_linear_511_1039)"/>
</g>
<defs>
<filter id="filter0_di_511_1039" x="0.228516" y="0.834961" width="490.15" height="113.03" filterUnits="userSpaceOnUse" color-interpolation-filters="sRGB">
<feFlood flood-opacity="0" result="BackgroundImageFix"/>
<feColorMatrix in="SourceAlpha" type="matrix" values="0 0 0 0 0 0 0 0 0 0 0 0 0 0 0 0 0 0 127 0" result="hardAlpha"/>
<feOffset dx="2"/>
<feGaussianBlur stdDeviation="1"/>
<feComposite in2="hardAlpha" operator="out"/>
<feColorMatrix type="matrix" values="0 0 0 0 0.0509804 0 0 0 0 0.972549 0 0 0 0 0.811765 0 0 0 1 0"/>
<feBlend mode="normal" in2="BackgroundImageFix" result="effect1_dropShadow_511_1039"/>
<feBlend mode="normal" in="SourceGraphic" in2="effect1_dropShadow_511_1039" result="shape"/>
<feColorMatrix in="SourceAlpha" type="matrix" values="0 0 0 0 0 0 0 0 0 0 0 0 0 0 0 0 0 0 127 0" result="hardAlpha"/>
<feOffset dy="4"/>
<feGaussianBlur stdDeviation="11.5"/>
<feComposite in2="hardAlpha" operator="arithmetic" k2="-1" k3="1"/>
<feColorMatrix type="matrix" values="0 0 0 0 0.592157 0 0 0 0 0.278431 0 0 0 0 1 0 0 0 0.45 0"/>
<feBlend mode="normal" in2="shape" result="effect2_innerShadow_511_1039"/>
</filter>
<linearGradient id="paint0_linear_511_1039" x1="175.946" y1="-3.76087" x2="284.545" y2="194.225" gradientUnits="userSpaceOnUse">
<stop offset="0.0135415" stop-color="#0DF8CF"/>
<stop offset="1" stop-color="#05C2FC"/>
</linearGradient>
</defs>
</svg>
