<svg width="337" height="230" viewBox="0 0 337 230" fill="none" xmlns="http://www.w3.org/2000/svg">
<path d="M108.095 19.4626L69.8418 52.3474L75.2107 84.561L83.2641 200.664L108.095 220.798L206.079 229.522L238.292 191.94L108.095 19.4626Z" fill="url(#paint0_linear_2188_1291)"/>
<path fill-rule="evenodd" clip-rule="evenodd" d="M83.2641 52.3472V175.833C83.2641 198.072 101.292 216.1 123.531 216.1H206.75V229.522H123.531C93.8793 229.522 69.8418 205.485 69.8418 175.833V52.3472H83.2641Z" fill="url(#paint1_linear_2188_1291)"/>
<path fill-rule="evenodd" clip-rule="evenodd" d="M123.53 14.7646C108.704 14.7646 96.6855 26.7834 96.6855 41.6094V175.833C96.6855 190.659 108.704 202.677 123.53 202.677H217.487C232.313 202.677 244.331 190.659 244.331 175.833V115.432H265.807V110.063H244.331V106.037H279.229V99.3255H244.331V95.2988H316.812V88.5876H244.331V84.5606H299.362V77.8495H244.331V73.8228H327.549V67.1116H244.331V41.6093C244.331 26.7834 232.312 14.7646 217.487 14.7646H123.53Z" fill="url(#paint2_linear_2188_1291)"/>
<path fill-rule="evenodd" clip-rule="evenodd" d="M230.912 29.5293H111.453V34.8982H230.912V29.5293ZM230.912 40.2669H111.453V45.6358H230.912V40.2669ZM230.912 51.005H111.453V56.3739H230.912V51.005ZM230.912 61.7426H111.453V67.1115H230.912V61.7426ZM111.453 72.4804H327.553V77.8494H111.453V72.4804ZM111.453 147.646H230.912V153.015H111.453V147.646ZM111.453 136.908H230.912V142.276H111.453V136.908ZM111.453 126.17H230.912V131.539H111.453V126.17ZM111.453 115.432H230.912V120.801H111.453V115.432ZM230.912 159.726H111.453V165.095H230.912V159.726ZM111.453 170.464H230.912V175.833H111.453V170.464ZM230.912 181.201H111.453V186.57H230.912V181.201ZM111.453 83.2183H303.393V88.5872H111.453V83.2183ZM320.842 99.3251H311.446V99.3253H187.96V99.3251H111.453V93.9561H320.842V99.3251ZM285.944 104.694H111.453V110.063H285.944V104.694Z" fill="#1F2326"/>
<path fill-rule="evenodd" clip-rule="evenodd" d="M336.947 69.7956C336.947 73.5021 333.942 76.5068 330.235 76.5068C326.529 76.5068 323.524 73.5021 323.524 69.7956C323.524 66.0892 326.529 63.0845 330.235 63.0845C333.942 63.0845 336.947 66.0892 336.947 69.7956ZM307.418 80.5335C307.418 84.24 304.413 87.2447 300.707 87.2447C297 87.2447 293.996 84.24 293.996 80.5335C293.996 76.827 297 73.8223 300.707 73.8223C304.413 73.8223 307.418 76.827 307.418 80.5335ZM316.814 97.9828C320.52 97.9828 323.525 94.9781 323.525 91.2716C323.525 87.5652 320.52 84.5605 316.814 84.5605C313.107 84.5605 310.102 87.5652 310.102 91.2716C310.102 94.9781 313.107 97.9828 316.814 97.9828ZM288.627 102.009C288.627 105.716 285.622 108.721 281.915 108.721C278.209 108.721 275.204 105.716 275.204 102.009C275.204 98.303 278.209 95.2983 281.915 95.2983C285.622 95.2983 288.627 98.303 288.627 102.009ZM265.809 119.459C269.515 119.459 272.52 116.454 272.52 112.747C272.52 109.041 269.515 106.036 265.809 106.036C262.102 106.036 259.098 109.041 259.098 112.747C259.098 116.454 262.102 119.459 265.809 119.459Z" fill="#09DCE7"/>
<defs>
<linearGradient id="paint0_linear_2188_1291" x1="83.2641" y1="200.664" x2="196.012" y2="110.063" gradientUnits="userSpaceOnUse">
<stop stop-color="#0DF8CF" stop-opacity="0.4"/>
<stop offset="1" stop-color="#D8FFF8" stop-opacity="0"/>
</linearGradient>
<linearGradient id="paint1_linear_2188_1291" x1="81.2508" y1="208.047" x2="162.456" y2="148.988" gradientUnits="userSpaceOnUse">
<stop stop-color="#0DF8CF"/>
<stop offset="1" stop-color="#05C2FC"/>
</linearGradient>
<linearGradient id="paint2_linear_2188_1291" x1="124.201" y1="183.886" x2="219.5" y2="37.5828" gradientUnits="userSpaceOnUse">
<stop stop-color="#0DF8CF"/>
<stop offset="1" stop-color="#05C2FC"/>
</linearGradient>
</defs>
</svg>
