<svg width="41" height="27" viewBox="0 0 41 27" fill="none" xmlns="http://www.w3.org/2000/svg">
<path d="M10.5178 20.3012L5.35019 4.70654L0.367188 8.85896L1.01313 20.3012L3.41236 24.5459L25.0054 26.2991L29.4347 21.1317L10.5178 20.3012Z" fill="url(#paint0_linear_2187_1403)"/>
<path fill-rule="evenodd" clip-rule="evenodd" d="M4.24219 7.38248C4.24219 5.34396 5.89474 3.69141 7.93326 3.69141H25.8352C27.8738 3.69141 29.5263 5.34396 29.5263 7.38248V7.56699H38.2765C38.4189 7.24118 38.7441 7.01351 39.1224 7.01351C39.6321 7.01351 40.0452 7.42665 40.0452 7.93627C40.0452 8.4459 39.6321 8.85903 39.1224 8.85903C38.8204 8.85903 38.5523 8.71398 38.384 8.48975H29.5263V9.22797H34.0318C34.1743 8.90217 34.4994 8.6745 34.8777 8.6745C35.3874 8.6745 35.8005 9.08763 35.8005 9.59726C35.8005 10.1069 35.3874 10.52 34.8777 10.52C34.5758 10.52 34.3077 10.375 34.1393 10.1507H29.5263V10.8884H36.2453C36.3879 10.5629 36.7129 10.3355 37.091 10.3355C37.6006 10.3355 38.0138 10.7486 38.0138 11.2582C38.0138 11.7679 37.6006 12.181 37.091 12.181C36.7888 12.181 36.5205 12.0357 36.3522 11.8112H29.5263V12.5499H31.7402C31.9086 12.3258 32.1766 12.1809 32.4785 12.1809C32.9881 12.1809 33.4013 12.594 33.4013 13.1037C33.4013 13.6133 32.9881 14.0264 32.4785 14.0264C32.1001 14.0264 31.7748 13.7986 31.6325 13.4727H29.5263V18.8246C29.5263 20.8632 27.8738 22.5157 25.8352 22.5157H7.93327C5.89474 22.5157 4.24219 20.8632 4.24219 18.8246V7.38248Z" fill="url(#paint1_linear_2187_1403)"/>
<rect x="15.6855" y="8.48926" width="18.271" height="0.738208" fill="#1F2326"/>
<rect x="17.9023" y="10.1504" width="16.2409" height="0.738208" fill="#1F2326"/>
<rect x="19.377" y="11.811" width="16.9791" height="0.184552" fill="#1F2326"/>
<rect x="19.377" y="11.811" width="11.9961" height="0.738208" fill="#1F2326"/>
<rect x="14.3945" y="13.4722" width="16.9791" height="0.738208" fill="#1F2326"/>
<path d="M23.3463 13.8102C23.9615 13.455 23.9615 12.5671 23.3463 12.2119L14.0724 6.85771C13.4572 6.50255 12.6882 6.94652 12.6882 7.65686V18.3652C12.6882 19.0756 13.4572 19.5196 14.0724 19.1644L23.3463 13.8102Z" fill="#1F2326"/>
<mask id="mask0_2187_1403" style="mask-type:alpha" maskUnits="userSpaceOnUse" x="0" y="0" width="35" height="27">
<rect x="1.29191" y="0.922769" width="32.1127" height="24.3608" rx="6.45938" stroke="url(#paint2_linear_2187_1403)" stroke-width="1.84554"/>
</mask>
<g mask="url(#mask0_2187_1403)">
<rect x="-8.49023" y="8.85889" width="33.22" height="28.0519" fill="url(#paint3_linear_2187_1403)"/>
</g>
<defs>
<linearGradient id="paint0_linear_2187_1403" x1="8.11852" y1="22.3313" x2="23.621" y2="9.87369" gradientUnits="userSpaceOnUse">
<stop stop-color="#0DF8CF" stop-opacity="0.4"/>
<stop offset="1" stop-color="#D8FFF8" stop-opacity="0"/>
</linearGradient>
<linearGradient id="paint1_linear_2187_1403" x1="9.59418" y1="19.286" x2="27.2189" y2="6.45972" gradientUnits="userSpaceOnUse">
<stop stop-color="#0DF8CF"/>
<stop offset="1" stop-color="#05C2FC"/>
</linearGradient>
<linearGradient id="paint2_linear_2187_1403" x1="17.3483" y1="0" x2="17.3483" y2="26.2064" gradientUnits="userSpaceOnUse">
<stop stop-color="#0DF8CF"/>
<stop offset="1" stop-color="#05C2FC"/>
</linearGradient>
<linearGradient id="paint3_linear_2187_1403" x1="3.875" y1="24.9149" x2="11.4416" y2="18.1786" gradientUnits="userSpaceOnUse">
<stop stop-color="#0DF8CF"/>
<stop offset="1" stop-color="#05C2FC"/>
</linearGradient>
</defs>
</svg>
