<svg width="540" height="259" viewBox="0 0 540 259" fill="none" xmlns="http://www.w3.org/2000/svg">
<g filter="url(#filter0_d_1233_1027)">
<path d="M12 209L520 209" stroke="#22292F" stroke-width="20"/>
</g>
<g filter="url(#filter1_d_1233_1027)">
<path d="M378.876 141.743C379.605 139.771 382.395 139.771 383.124 141.743L402.339 193.7C402.886 195.179 401.792 196.75 400.215 196.75H361.784C360.208 196.75 359.113 195.179 359.66 193.7L378.876 141.743Z" fill="white"/>
<mask id="mask0_1233_1027" style="mask-type:alpha" maskUnits="userSpaceOnUse" x="359" y="140" width="44" height="57">
<path d="M378.896 141.724C379.627 139.755 382.412 139.755 383.142 141.724L402.421 193.698C402.969 195.177 401.875 196.75 400.297 196.75H361.741C360.164 196.75 359.069 195.177 359.618 193.698L378.896 141.724Z" fill="#D9D9D9"/>
</mask>
<g mask="url(#mask0_1233_1027)">
<rect x="357.475" y="160.57" width="6.99837" height="47.2695" transform="rotate(-90 357.475 160.57)" fill="url(#paint0_linear_1233_1027)"/>
<rect x="360" y="174.998" width="6.99837" height="47.2695" transform="rotate(-90 360 174.998)" fill="url(#paint1_linear_1233_1027)"/>
<rect x="353.883" y="189.249" width="7.07143" height="54.305" transform="rotate(-90 353.883 189.249)" fill="url(#paint2_linear_1233_1027)"/>
<rect x="357.768" y="146.783" width="6.99837" height="47.2695" transform="rotate(-90 357.768 146.783)" fill="url(#paint3_linear_1233_1027)"/>
</g>
<rect x="350" y="195.572" width="62" height="4.5" fill="#05C2FC"/>
</g>
<g filter="url(#filter2_d_1233_1027)">
<rect x="87" y="88" width="4" height="108" fill="#22292F"/>
<rect x="210" y="88" width="5" height="108" fill="#22292F"/>
<rect x="79" y="126" width="142.46" height="14.0774" fill="url(#paint4_linear_1233_1027)"/>
<mask id="mask1_1233_1027" style="mask-type:alpha" maskUnits="userSpaceOnUse" x="79" y="126" width="143" height="15">
<rect x="79" y="126" width="142.46" height="14.0774" fill="url(#paint5_linear_1233_1027)"/>
</mask>
<g mask="url(#mask1_1233_1027)">
<rect x="88.916" y="115.735" width="7.47862" height="34.2403" transform="rotate(21.3785 88.916 115.735)" fill="white"/>
<rect x="108.4" y="115.735" width="7.47862" height="34.2403" transform="rotate(21.3785 108.4 115.735)" fill="white"/>
<rect x="127.904" y="115.735" width="7.47862" height="34.2403" transform="rotate(21.3785 127.904 115.735)" fill="white"/>
<rect x="147.408" y="115.735" width="7.47862" height="34.2403" transform="rotate(21.3785 147.408 115.735)" fill="white"/>
<rect x="166.91" y="115.735" width="7.47862" height="34.2403" transform="rotate(21.3785 166.91 115.735)" fill="white"/>
<rect x="186.414" y="115.735" width="7.47862" height="34.2403" transform="rotate(21.3785 186.414 115.735)" fill="white"/>
<rect x="205.916" y="115.735" width="7.47862" height="34.2403" transform="rotate(21.3785 205.916 115.735)" fill="white"/>
<rect x="225.42" y="115.735" width="7.47862" height="34.2403" transform="rotate(21.3785 225.42 115.735)" fill="white"/>
</g>
<rect x="79" y="88" width="142.46" height="14.0774" fill="url(#paint6_linear_1233_1027)"/>
<mask id="mask2_1233_1027" style="mask-type:alpha" maskUnits="userSpaceOnUse" x="79" y="88" width="143" height="15">
<rect x="79" y="88" width="142.46" height="14.0774" fill="url(#paint7_linear_1233_1027)"/>
</mask>
<g mask="url(#mask2_1233_1027)">
<rect x="88.916" y="77.7354" width="7.47862" height="34.2403" transform="rotate(21.3785 88.916 77.7354)" fill="white"/>
<rect x="108.4" y="77.7354" width="7.47862" height="34.2403" transform="rotate(21.3785 108.4 77.7354)" fill="white"/>
<rect x="127.904" y="77.7354" width="7.47862" height="34.2403" transform="rotate(21.3785 127.904 77.7354)" fill="white"/>
<rect x="147.408" y="77.7354" width="7.47862" height="34.2403" transform="rotate(21.3785 147.408 77.7354)" fill="white"/>
<rect x="166.91" y="77.7354" width="7.47862" height="34.2403" transform="rotate(21.3785 166.91 77.7354)" fill="white"/>
<rect x="186.414" y="77.7354" width="7.47862" height="34.2403" transform="rotate(21.3785 186.414 77.7354)" fill="white"/>
<rect x="205.916" y="77.7354" width="7.47862" height="34.2403" transform="rotate(21.3785 205.916 77.7354)" fill="white"/>
<rect x="225.42" y="77.7354" width="7.47862" height="34.2403" transform="rotate(21.3785 225.42 77.7354)" fill="white"/>
</g>
</g>
<g filter="url(#filter3_d_1233_1027)">
<path d="M290.368 6.05819C291.954 3.34798 295.871 3.34798 297.456 6.05819L339.186 77.3912C340.787 80.1284 338.813 83.5703 335.642 83.5703H252.183C249.012 83.5703 247.038 80.1284 248.639 77.3912L290.368 6.05819Z" fill="url(#paint8_linear_1233_1027)"/>
<path d="M299.92 27.1282H292.726L285.045 54.5638L295.835 48.848L294.128 65.514L292.056 62.987L293.824 73.155L299.92 64.9725L296.994 65.9351L302.724 41.9891L291.751 47.3439L299.92 27.1282Z" fill="white"/>
<rect x="291.791" y="83.5845" width="4.32587" height="100.155" fill="#22292F"/>
<rect x="290.031" y="181.026" width="7.84521" height="17.5967" fill="#22292F"/>
</g>
<defs>
<filter id="filter0_d_1233_1027" x="0" y="199" width="540" height="60" filterUnits="userSpaceOnUse" color-interpolation-filters="sRGB">
<feFlood flood-opacity="0" result="BackgroundImageFix"/>
<feColorMatrix in="SourceAlpha" type="matrix" values="0 0 0 0 0 0 0 0 0 0 0 0 0 0 0 0 0 0 127 0" result="hardAlpha"/>
<feOffset dx="4" dy="24"/>
<feGaussianBlur stdDeviation="8"/>
<feComposite in2="hardAlpha" operator="out"/>
<feColorMatrix type="matrix" values="0 0 0 0 0 0 0 0 0 0 0 0 0 0 0 0 0 0 0.25 0"/>
<feBlend mode="normal" in2="BackgroundImageFix" result="effect1_dropShadow_1233_1027"/>
<feBlend mode="normal" in="SourceGraphic" in2="effect1_dropShadow_1233_1027" result="shape"/>
</filter>
<filter id="filter1_d_1233_1027" x="342" y="136.247" width="70" height="67.8245" filterUnits="userSpaceOnUse" color-interpolation-filters="sRGB">
<feFlood flood-opacity="0" result="BackgroundImageFix"/>
<feColorMatrix in="SourceAlpha" type="matrix" values="0 0 0 0 0 0 0 0 0 0 0 0 0 0 0 0 0 0 127 0" result="hardAlpha"/>
<feOffset dx="-4"/>
<feGaussianBlur stdDeviation="2"/>
<feComposite in2="hardAlpha" operator="out"/>
<feColorMatrix type="matrix" values="0 0 0 0 0 0 0 0 0 0 0 0 0 0 0 0 0 0 0.25 0"/>
<feBlend mode="normal" in2="BackgroundImageFix" result="effect1_dropShadow_1233_1027"/>
<feBlend mode="normal" in="SourceGraphic" in2="effect1_dropShadow_1233_1027" result="shape"/>
</filter>
<filter id="filter2_d_1233_1027" x="59" y="88" width="162.461" height="128" filterUnits="userSpaceOnUse" color-interpolation-filters="sRGB">
<feFlood flood-opacity="0" result="BackgroundImageFix"/>
<feColorMatrix in="SourceAlpha" type="matrix" values="0 0 0 0 0 0 0 0 0 0 0 0 0 0 0 0 0 0 127 0" result="hardAlpha"/>
<feOffset dx="-16" dy="16"/>
<feGaussianBlur stdDeviation="2"/>
<feComposite in2="hardAlpha" operator="out"/>
<feColorMatrix type="matrix" values="0 0 0 0 0 0 0 0 0 0 0 0 0 0 0 0 0 0 0.25 0"/>
<feBlend mode="normal" in2="BackgroundImageFix" result="effect1_dropShadow_1233_1027"/>
<feBlend mode="normal" in="SourceGraphic" in2="effect1_dropShadow_1233_1027" result="shape"/>
</filter>
<filter id="filter3_d_1233_1027" x="228.07" y="4.02563" width="111.684" height="210.597" filterUnits="userSpaceOnUse" color-interpolation-filters="sRGB">
<feFlood flood-opacity="0" result="BackgroundImageFix"/>
<feColorMatrix in="SourceAlpha" type="matrix" values="0 0 0 0 0 0 0 0 0 0 0 0 0 0 0 0 0 0 127 0" result="hardAlpha"/>
<feOffset dx="-16" dy="12"/>
<feGaussianBlur stdDeviation="2"/>
<feComposite in2="hardAlpha" operator="out"/>
<feColorMatrix type="matrix" values="0 0 0 0 0 0 0 0 0 0 0 0 0 0 0 0 0 0 0.25 0"/>
<feBlend mode="normal" in2="BackgroundImageFix" result="effect1_dropShadow_1233_1027"/>
<feBlend mode="normal" in="SourceGraphic" in2="effect1_dropShadow_1233_1027" result="shape"/>
</filter>
<linearGradient id="paint0_linear_1233_1027" x1="360.974" y1="160.57" x2="360.974" y2="207.839" gradientUnits="userSpaceOnUse">
<stop stop-color="#05C2FC"/>
<stop offset="1" stop-color="#0DF8CF"/>
</linearGradient>
<linearGradient id="paint1_linear_1233_1027" x1="363.499" y1="174.998" x2="363.499" y2="222.268" gradientUnits="userSpaceOnUse">
<stop stop-color="#05C2FC"/>
<stop offset="1" stop-color="#0DF8CF"/>
</linearGradient>
<linearGradient id="paint2_linear_1233_1027" x1="357.419" y1="189.249" x2="357.419" y2="243.554" gradientUnits="userSpaceOnUse">
<stop stop-color="#05C2FC"/>
<stop offset="1" stop-color="#0DF8CF"/>
</linearGradient>
<linearGradient id="paint3_linear_1233_1027" x1="361.267" y1="146.783" x2="361.267" y2="194.053" gradientUnits="userSpaceOnUse">
<stop stop-color="#05C2FC"/>
<stop offset="1" stop-color="#0DF8CF"/>
</linearGradient>
<linearGradient id="paint4_linear_1233_1027" x1="150.23" y1="126" x2="150.23" y2="140.077" gradientUnits="userSpaceOnUse">
<stop stop-color="#05C2FC"/>
<stop offset="1" stop-color="#0DF8CF"/>
</linearGradient>
<linearGradient id="paint5_linear_1233_1027" x1="150.23" y1="126" x2="150.23" y2="140.077" gradientUnits="userSpaceOnUse">
<stop stop-color="#05C2FC"/>
<stop offset="1" stop-color="#0DF8CF"/>
</linearGradient>
<linearGradient id="paint6_linear_1233_1027" x1="150.23" y1="88" x2="150.23" y2="102.077" gradientUnits="userSpaceOnUse">
<stop stop-color="#05C2FC"/>
<stop offset="1" stop-color="#0DF8CF"/>
</linearGradient>
<linearGradient id="paint7_linear_1233_1027" x1="150.23" y1="88" x2="150.23" y2="102.077" gradientUnits="userSpaceOnUse">
<stop stop-color="#05C2FC"/>
<stop offset="1" stop-color="#0DF8CF"/>
</linearGradient>
<linearGradient id="paint8_linear_1233_1027" x1="293.912" y1="0" x2="293.912" y2="111.427" gradientUnits="userSpaceOnUse">
<stop stop-color="#05C2FC"/>
<stop offset="1" stop-color="#0DF8CF"/>
</linearGradient>
</defs>
</svg>
