<svg width="39" height="39" viewBox="0 0 39 39" fill="none" xmlns="http://www.w3.org/2000/svg">
<path d="M19.088 37.5327C28.877 37.5327 36.8127 29.597 36.8127 19.808C36.8127 10.0189 28.877 2.08325 19.088 2.08325C9.2989 2.08325 1.36328 10.0189 1.36328 19.808C1.36328 29.597 9.2989 37.5327 19.088 37.5327Z" stroke="url(#paint0_linear_932_1069)" stroke-width="2.63095" stroke-linecap="round" stroke-linejoin="round"/>
<path d="M2.25 20.6941L11.9986 24.239L10.2261 30.4427L11.9986 35.7601" stroke="url(#paint1_linear_932_1069)" stroke-width="2.63095" stroke-linecap="round" stroke-linejoin="round"/>
<path d="M27.9502 34.8739L27.064 30.4427L22.6328 28.6702V22.4666L27.9502 20.6941L35.9263 21.5803" stroke="url(#paint2_linear_932_1069)" stroke-width="2.63095" stroke-linecap="round" stroke-linejoin="round"/>
<path d="M31.4961 8.28711L30.6099 10.9458L24.4062 11.832V17.1495L28.8374 15.377H32.3824L35.9273 17.1495" stroke="url(#paint3_linear_932_1069)" stroke-width="2.63095" stroke-linecap="round" stroke-linejoin="round"/>
<path d="M2.25 17.1492L6.68118 13.6043L11.1124 12.7181L14.6573 7.40065L12.8848 3.85571" stroke="url(#paint4_linear_932_1069)" stroke-width="2.63095" stroke-linecap="round" stroke-linejoin="round"/>
<defs>
<linearGradient id="paint0_linear_932_1069" x1="19.088" y1="2.08325" x2="19.088" y2="37.5327" gradientUnits="userSpaceOnUse">
<stop stop-color="#05C2FC"/>
<stop offset="1" stop-color="#0DF8CF"/>
</linearGradient>
<linearGradient id="paint1_linear_932_1069" x1="7.12429" y1="20.6941" x2="7.12429" y2="35.7601" gradientUnits="userSpaceOnUse">
<stop stop-color="#05C2FC"/>
<stop offset="1" stop-color="#0DF8CF"/>
</linearGradient>
<linearGradient id="paint2_linear_932_1069" x1="29.2796" y1="20.6941" x2="29.2796" y2="34.8739" gradientUnits="userSpaceOnUse">
<stop stop-color="#05C2FC"/>
<stop offset="1" stop-color="#0DF8CF"/>
</linearGradient>
<linearGradient id="paint3_linear_932_1069" x1="30.1668" y1="8.28711" x2="30.1668" y2="17.1495" gradientUnits="userSpaceOnUse">
<stop stop-color="#05C2FC"/>
<stop offset="1" stop-color="#0DF8CF"/>
</linearGradient>
<linearGradient id="paint4_linear_932_1069" x1="8.45365" y1="3.85571" x2="8.45365" y2="17.1492" gradientUnits="userSpaceOnUse">
<stop stop-color="#05C2FC"/>
<stop offset="1" stop-color="#0DF8CF"/>
</linearGradient>
</defs>
</svg>
